M48
; DRILL file KiCad 10.0.0 date 2026-03-29T09:42:35
; FORMAT={-:-/ absolute / metric / decimal}
; #@! TF.CreationDate,2026-03-29T09:42:35-04:00
; #@! TF.GenerationSoftware,Kicad,Pcbnew,10.0.0
; #@! TF.FileFunction,Plated,1,2,PTH
FMAT,2
METRIC
; #@! TA.AperFunction,Plated,PTH,ComponentDrill
T1C0.800
; #@! TA.AperFunction,Plated,PTH,ComponentDrill
T2C1.000
; #@! TA.AperFunction,Plated,PTH,ComponentDrill
T3C1.100
; #@! TA.AperFunction,Plated,PTH,ComponentDrill
T4C1.200
; #@! TA.AperFunction,Plated,PTH,ComponentDrill
T5C1.300
; #@! TA.AperFunction,Plated,PTH,ComponentDrill
T6C1.600
%
G90
G05
T1
X106.25Y-89.67
X106.25Y-99.83
X106.25Y-104.25
X106.25Y-106.75
X117.63Y-94.71
X117.63Y-97.25
X117.63Y-99.79
X117.63Y-102.33
X117.63Y-104.87
X117.63Y-107.41
X117.63Y-109.95
X117.67Y-86.0
X125.25Y-94.71
X125.25Y-97.25
X125.25Y-99.79
X125.25Y-102.33
X125.25Y-104.87
X125.25Y-107.41
X125.25Y-109.95
X127.83Y-86.0
X132.5Y-85.42
X132.5Y-95.58
X146.5Y-89.92
X146.5Y-100.08
X152.17Y-90.0
X162.33Y-90.0
T2
X166.6Y-69.81
X166.6Y-72.35
X166.6Y-74.89
X166.6Y-77.43
X166.6Y-79.97
X166.6Y-82.51
X166.6Y-85.05
X166.6Y-87.59
X166.6Y-90.13
X166.6Y-92.67
X166.6Y-95.21
X166.6Y-97.75
X166.6Y-100.29
X166.6Y-102.83
X166.6Y-105.37
X166.6Y-107.91
X166.6Y-110.45
X166.6Y-112.99
X166.6Y-115.53
X177.21Y-55.5
X179.75Y-55.5
X182.29Y-55.5
X192.0Y-69.81
X192.0Y-72.35
X192.0Y-74.89
X192.0Y-77.43
X192.0Y-79.97
X192.0Y-82.51
X192.0Y-85.05
X192.0Y-87.59
X192.0Y-90.13
X192.0Y-92.67
X192.0Y-95.21
X192.0Y-97.75
X192.0Y-100.29
X192.0Y-102.83
X192.0Y-105.37
X192.0Y-107.91
X192.0Y-110.45
X192.0Y-112.99
X192.0Y-115.53
T3
X113.75Y-64.42
X113.75Y-66.96
X113.75Y-69.5
T4
X78.28Y-83.0
X106.22Y-83.0
T5
X71.75Y-58.0
X71.75Y-63.0
X71.75Y-108.25
X71.75Y-113.25
X71.75Y-118.25
T6
X84.0Y-56.38
X84.0Y-71.62
M30
