%TF.GenerationSoftware,KiCad,Pcbnew,10.0.0*%
%TF.CreationDate,2026-03-29T09:42:31-04:00*%
%TF.ProjectId,MagneticLevitator,4d61676e-6574-4696-934c-657669746174,rev?*%
%TF.SameCoordinates,Original*%
%TF.FileFunction,Legend,Top*%
%TF.FilePolarity,Positive*%
%FSLAX46Y46*%
G04 Gerber Fmt 4.6, Leading zero omitted, Abs format (unit mm)*
G04 Created by KiCad (PCBNEW 10.0.0) date 2026-03-29 09:42:31*
%MOMM*%
%LPD*%
G01*
G04 APERTURE LIST*
%ADD10C,0.100000*%
%ADD11C,0.150000*%
%ADD12C,0.120000*%
G04 APERTURE END LIST*
D10*
X174993884Y-58782419D02*
X174993884Y-57782419D01*
X174993884Y-58258609D02*
X175565312Y-58258609D01*
X175565312Y-58782419D02*
X175565312Y-57782419D01*
X175993884Y-58496704D02*
X176470074Y-58496704D01*
X175898646Y-58782419D02*
X176231979Y-57782419D01*
X176231979Y-57782419D02*
X176565312Y-58782419D01*
X177374836Y-58782419D02*
X176898646Y-58782419D01*
X176898646Y-58782419D02*
X176898646Y-57782419D01*
X178184360Y-58782419D02*
X177708170Y-58782419D01*
X177708170Y-58782419D02*
X177708170Y-57782419D01*
X179279599Y-58258609D02*
X179612932Y-58258609D01*
X179755789Y-58782419D02*
X179279599Y-58782419D01*
X179279599Y-58782419D02*
X179279599Y-57782419D01*
X179279599Y-57782419D02*
X179755789Y-57782419D01*
X180517694Y-58258609D02*
X180184361Y-58258609D01*
X180184361Y-58782419D02*
X180184361Y-57782419D01*
X180184361Y-57782419D02*
X180660551Y-57782419D01*
X181374837Y-58258609D02*
X181041504Y-58258609D01*
X181041504Y-58782419D02*
X181041504Y-57782419D01*
X181041504Y-57782419D02*
X181517694Y-57782419D01*
X181898647Y-58258609D02*
X182231980Y-58258609D01*
X182374837Y-58782419D02*
X181898647Y-58782419D01*
X181898647Y-58782419D02*
X181898647Y-57782419D01*
X181898647Y-57782419D02*
X182374837Y-57782419D01*
X183374837Y-58687180D02*
X183327218Y-58734800D01*
X183327218Y-58734800D02*
X183184361Y-58782419D01*
X183184361Y-58782419D02*
X183089123Y-58782419D01*
X183089123Y-58782419D02*
X182946266Y-58734800D01*
X182946266Y-58734800D02*
X182851028Y-58639561D01*
X182851028Y-58639561D02*
X182803409Y-58544323D01*
X182803409Y-58544323D02*
X182755790Y-58353847D01*
X182755790Y-58353847D02*
X182755790Y-58210990D01*
X182755790Y-58210990D02*
X182803409Y-58020514D01*
X182803409Y-58020514D02*
X182851028Y-57925276D01*
X182851028Y-57925276D02*
X182946266Y-57830038D01*
X182946266Y-57830038D02*
X183089123Y-57782419D01*
X183089123Y-57782419D02*
X183184361Y-57782419D01*
X183184361Y-57782419D02*
X183327218Y-57830038D01*
X183327218Y-57830038D02*
X183374837Y-57877657D01*
X183660552Y-57782419D02*
X184231980Y-57782419D01*
X183946266Y-58782419D02*
X183946266Y-57782419D01*
X175411027Y-51872419D02*
X175744360Y-52872419D01*
X175744360Y-52872419D02*
X176077693Y-51872419D01*
X176982455Y-52777180D02*
X176934836Y-52824800D01*
X176934836Y-52824800D02*
X176791979Y-52872419D01*
X176791979Y-52872419D02*
X176696741Y-52872419D01*
X176696741Y-52872419D02*
X176553884Y-52824800D01*
X176553884Y-52824800D02*
X176458646Y-52729561D01*
X176458646Y-52729561D02*
X176411027Y-52634323D01*
X176411027Y-52634323D02*
X176363408Y-52443847D01*
X176363408Y-52443847D02*
X176363408Y-52300990D01*
X176363408Y-52300990D02*
X176411027Y-52110514D01*
X176411027Y-52110514D02*
X176458646Y-52015276D01*
X176458646Y-52015276D02*
X176553884Y-51920038D01*
X176553884Y-51920038D02*
X176696741Y-51872419D01*
X176696741Y-51872419D02*
X176791979Y-51872419D01*
X176791979Y-51872419D02*
X176934836Y-51920038D01*
X176934836Y-51920038D02*
X176982455Y-51967657D01*
X177982455Y-52777180D02*
X177934836Y-52824800D01*
X177934836Y-52824800D02*
X177791979Y-52872419D01*
X177791979Y-52872419D02*
X177696741Y-52872419D01*
X177696741Y-52872419D02*
X177553884Y-52824800D01*
X177553884Y-52824800D02*
X177458646Y-52729561D01*
X177458646Y-52729561D02*
X177411027Y-52634323D01*
X177411027Y-52634323D02*
X177363408Y-52443847D01*
X177363408Y-52443847D02*
X177363408Y-52300990D01*
X177363408Y-52300990D02*
X177411027Y-52110514D01*
X177411027Y-52110514D02*
X177458646Y-52015276D01*
X177458646Y-52015276D02*
X177553884Y-51920038D01*
X177553884Y-51920038D02*
X177696741Y-51872419D01*
X177696741Y-51872419D02*
X177791979Y-51872419D01*
X177791979Y-51872419D02*
X177934836Y-51920038D01*
X177934836Y-51920038D02*
X177982455Y-51967657D01*
X179327693Y-51920038D02*
X179232455Y-51872419D01*
X179232455Y-51872419D02*
X179089598Y-51872419D01*
X179089598Y-51872419D02*
X178946741Y-51920038D01*
X178946741Y-51920038D02*
X178851503Y-52015276D01*
X178851503Y-52015276D02*
X178803884Y-52110514D01*
X178803884Y-52110514D02*
X178756265Y-52300990D01*
X178756265Y-52300990D02*
X178756265Y-52443847D01*
X178756265Y-52443847D02*
X178803884Y-52634323D01*
X178803884Y-52634323D02*
X178851503Y-52729561D01*
X178851503Y-52729561D02*
X178946741Y-52824800D01*
X178946741Y-52824800D02*
X179089598Y-52872419D01*
X179089598Y-52872419D02*
X179184836Y-52872419D01*
X179184836Y-52872419D02*
X179327693Y-52824800D01*
X179327693Y-52824800D02*
X179375312Y-52777180D01*
X179375312Y-52777180D02*
X179375312Y-52443847D01*
X179375312Y-52443847D02*
X179184836Y-52443847D01*
X179803884Y-52872419D02*
X179803884Y-51872419D01*
X179803884Y-51872419D02*
X180375312Y-52872419D01*
X180375312Y-52872419D02*
X180375312Y-51872419D01*
X180851503Y-52872419D02*
X180851503Y-51872419D01*
X180851503Y-51872419D02*
X181089598Y-51872419D01*
X181089598Y-51872419D02*
X181232455Y-51920038D01*
X181232455Y-51920038D02*
X181327693Y-52015276D01*
X181327693Y-52015276D02*
X181375312Y-52110514D01*
X181375312Y-52110514D02*
X181422931Y-52300990D01*
X181422931Y-52300990D02*
X181422931Y-52443847D01*
X181422931Y-52443847D02*
X181375312Y-52634323D01*
X181375312Y-52634323D02*
X181327693Y-52729561D01*
X181327693Y-52729561D02*
X181232455Y-52824800D01*
X181232455Y-52824800D02*
X181089598Y-52872419D01*
X181089598Y-52872419D02*
X180851503Y-52872419D01*
X182284360Y-51872419D02*
X182474836Y-51872419D01*
X182474836Y-51872419D02*
X182570074Y-51920038D01*
X182570074Y-51920038D02*
X182665312Y-52015276D01*
X182665312Y-52015276D02*
X182712931Y-52205752D01*
X182712931Y-52205752D02*
X182712931Y-52539085D01*
X182712931Y-52539085D02*
X182665312Y-52729561D01*
X182665312Y-52729561D02*
X182570074Y-52824800D01*
X182570074Y-52824800D02*
X182474836Y-52872419D01*
X182474836Y-52872419D02*
X182284360Y-52872419D01*
X182284360Y-52872419D02*
X182189122Y-52824800D01*
X182189122Y-52824800D02*
X182093884Y-52729561D01*
X182093884Y-52729561D02*
X182046265Y-52539085D01*
X182046265Y-52539085D02*
X182046265Y-52205752D01*
X182046265Y-52205752D02*
X182093884Y-52015276D01*
X182093884Y-52015276D02*
X182189122Y-51920038D01*
X182189122Y-51920038D02*
X182284360Y-51872419D01*
X183141503Y-51872419D02*
X183141503Y-52681942D01*
X183141503Y-52681942D02*
X183189122Y-52777180D01*
X183189122Y-52777180D02*
X183236741Y-52824800D01*
X183236741Y-52824800D02*
X183331979Y-52872419D01*
X183331979Y-52872419D02*
X183522455Y-52872419D01*
X183522455Y-52872419D02*
X183617693Y-52824800D01*
X183617693Y-52824800D02*
X183665312Y-52777180D01*
X183665312Y-52777180D02*
X183712931Y-52681942D01*
X183712931Y-52681942D02*
X183712931Y-51872419D01*
X184046265Y-51872419D02*
X184617693Y-51872419D01*
X184331979Y-52872419D02*
X184331979Y-51872419D01*
X64491466Y-114946115D02*
X64491466Y-114184211D01*
X64872419Y-114565163D02*
X64110514Y-114565163D01*
X63872419Y-113231830D02*
X63872419Y-113708020D01*
X63872419Y-113708020D02*
X64348609Y-113755639D01*
X64348609Y-113755639D02*
X64300990Y-113708020D01*
X64300990Y-113708020D02*
X64253371Y-113612782D01*
X64253371Y-113612782D02*
X64253371Y-113374687D01*
X64253371Y-113374687D02*
X64300990Y-113279449D01*
X64300990Y-113279449D02*
X64348609Y-113231830D01*
X64348609Y-113231830D02*
X64443847Y-113184211D01*
X64443847Y-113184211D02*
X64681942Y-113184211D01*
X64681942Y-113184211D02*
X64777180Y-113231830D01*
X64777180Y-113231830D02*
X64824800Y-113279449D01*
X64824800Y-113279449D02*
X64872419Y-113374687D01*
X64872419Y-113374687D02*
X64872419Y-113612782D01*
X64872419Y-113612782D02*
X64824800Y-113708020D01*
X64824800Y-113708020D02*
X64777180Y-113755639D01*
X63872419Y-112898496D02*
X64872419Y-112565163D01*
X64872419Y-112565163D02*
X63872419Y-112231830D01*
X64591466Y-109946115D02*
X64591466Y-109184211D01*
X64972419Y-109565163D02*
X64210514Y-109565163D01*
X64972419Y-108184211D02*
X64972419Y-108755639D01*
X64972419Y-108469925D02*
X63972419Y-108469925D01*
X63972419Y-108469925D02*
X64115276Y-108565163D01*
X64115276Y-108565163D02*
X64210514Y-108660401D01*
X64210514Y-108660401D02*
X64258133Y-108755639D01*
X64067657Y-107803258D02*
X64020038Y-107755639D01*
X64020038Y-107755639D02*
X63972419Y-107660401D01*
X63972419Y-107660401D02*
X63972419Y-107422306D01*
X63972419Y-107422306D02*
X64020038Y-107327068D01*
X64020038Y-107327068D02*
X64067657Y-107279449D01*
X64067657Y-107279449D02*
X64162895Y-107231830D01*
X64162895Y-107231830D02*
X64258133Y-107231830D01*
X64258133Y-107231830D02*
X64400990Y-107279449D01*
X64400990Y-107279449D02*
X64972419Y-107850877D01*
X64972419Y-107850877D02*
X64972419Y-107231830D01*
X63972419Y-106946115D02*
X64972419Y-106612782D01*
X64972419Y-106612782D02*
X63972419Y-106279449D01*
X64020038Y-119512306D02*
X63972419Y-119607544D01*
X63972419Y-119607544D02*
X63972419Y-119750401D01*
X63972419Y-119750401D02*
X64020038Y-119893258D01*
X64020038Y-119893258D02*
X64115276Y-119988496D01*
X64115276Y-119988496D02*
X64210514Y-120036115D01*
X64210514Y-120036115D02*
X64400990Y-120083734D01*
X64400990Y-120083734D02*
X64543847Y-120083734D01*
X64543847Y-120083734D02*
X64734323Y-120036115D01*
X64734323Y-120036115D02*
X64829561Y-119988496D01*
X64829561Y-119988496D02*
X64924800Y-119893258D01*
X64924800Y-119893258D02*
X64972419Y-119750401D01*
X64972419Y-119750401D02*
X64972419Y-119655163D01*
X64972419Y-119655163D02*
X64924800Y-119512306D01*
X64924800Y-119512306D02*
X64877180Y-119464687D01*
X64877180Y-119464687D02*
X64543847Y-119464687D01*
X64543847Y-119464687D02*
X64543847Y-119655163D01*
X64972419Y-119036115D02*
X63972419Y-119036115D01*
X63972419Y-119036115D02*
X64972419Y-118464687D01*
X64972419Y-118464687D02*
X63972419Y-118464687D01*
X64972419Y-117988496D02*
X63972419Y-117988496D01*
X63972419Y-117988496D02*
X63972419Y-117750401D01*
X63972419Y-117750401D02*
X64020038Y-117607544D01*
X64020038Y-117607544D02*
X64115276Y-117512306D01*
X64115276Y-117512306D02*
X64210514Y-117464687D01*
X64210514Y-117464687D02*
X64400990Y-117417068D01*
X64400990Y-117417068D02*
X64543847Y-117417068D01*
X64543847Y-117417068D02*
X64734323Y-117464687D01*
X64734323Y-117464687D02*
X64829561Y-117512306D01*
X64829561Y-117512306D02*
X64924800Y-117607544D01*
X64924800Y-117607544D02*
X64972419Y-117750401D01*
X64972419Y-117750401D02*
X64972419Y-117988496D01*
X65277180Y-58874687D02*
X65324800Y-58922306D01*
X65324800Y-58922306D02*
X65372419Y-59065163D01*
X65372419Y-59065163D02*
X65372419Y-59160401D01*
X65372419Y-59160401D02*
X65324800Y-59303258D01*
X65324800Y-59303258D02*
X65229561Y-59398496D01*
X65229561Y-59398496D02*
X65134323Y-59446115D01*
X65134323Y-59446115D02*
X64943847Y-59493734D01*
X64943847Y-59493734D02*
X64800990Y-59493734D01*
X64800990Y-59493734D02*
X64610514Y-59446115D01*
X64610514Y-59446115D02*
X64515276Y-59398496D01*
X64515276Y-59398496D02*
X64420038Y-59303258D01*
X64420038Y-59303258D02*
X64372419Y-59160401D01*
X64372419Y-59160401D02*
X64372419Y-59065163D01*
X64372419Y-59065163D02*
X64420038Y-58922306D01*
X64420038Y-58922306D02*
X64467657Y-58874687D01*
X65372419Y-58303258D02*
X65324800Y-58398496D01*
X65324800Y-58398496D02*
X65277180Y-58446115D01*
X65277180Y-58446115D02*
X65181942Y-58493734D01*
X65181942Y-58493734D02*
X64896228Y-58493734D01*
X64896228Y-58493734D02*
X64800990Y-58446115D01*
X64800990Y-58446115D02*
X64753371Y-58398496D01*
X64753371Y-58398496D02*
X64705752Y-58303258D01*
X64705752Y-58303258D02*
X64705752Y-58160401D01*
X64705752Y-58160401D02*
X64753371Y-58065163D01*
X64753371Y-58065163D02*
X64800990Y-58017544D01*
X64800990Y-58017544D02*
X64896228Y-57969925D01*
X64896228Y-57969925D02*
X65181942Y-57969925D01*
X65181942Y-57969925D02*
X65277180Y-58017544D01*
X65277180Y-58017544D02*
X65324800Y-58065163D01*
X65324800Y-58065163D02*
X65372419Y-58160401D01*
X65372419Y-58160401D02*
X65372419Y-58303258D01*
X65372419Y-57541353D02*
X64705752Y-57541353D01*
X64372419Y-57541353D02*
X64420038Y-57588972D01*
X64420038Y-57588972D02*
X64467657Y-57541353D01*
X64467657Y-57541353D02*
X64420038Y-57493734D01*
X64420038Y-57493734D02*
X64372419Y-57541353D01*
X64372419Y-57541353D02*
X64467657Y-57541353D01*
X65372419Y-56922306D02*
X65324800Y-57017544D01*
X65324800Y-57017544D02*
X65229561Y-57065163D01*
X65229561Y-57065163D02*
X64372419Y-57065163D01*
X64991466Y-56541353D02*
X64991466Y-55779449D01*
X65372419Y-56160401D02*
X64610514Y-56160401D01*
X65277180Y-64244687D02*
X65324800Y-64292306D01*
X65324800Y-64292306D02*
X65372419Y-64435163D01*
X65372419Y-64435163D02*
X65372419Y-64530401D01*
X65372419Y-64530401D02*
X65324800Y-64673258D01*
X65324800Y-64673258D02*
X65229561Y-64768496D01*
X65229561Y-64768496D02*
X65134323Y-64816115D01*
X65134323Y-64816115D02*
X64943847Y-64863734D01*
X64943847Y-64863734D02*
X64800990Y-64863734D01*
X64800990Y-64863734D02*
X64610514Y-64816115D01*
X64610514Y-64816115D02*
X64515276Y-64768496D01*
X64515276Y-64768496D02*
X64420038Y-64673258D01*
X64420038Y-64673258D02*
X64372419Y-64530401D01*
X64372419Y-64530401D02*
X64372419Y-64435163D01*
X64372419Y-64435163D02*
X64420038Y-64292306D01*
X64420038Y-64292306D02*
X64467657Y-64244687D01*
X65372419Y-63673258D02*
X65324800Y-63768496D01*
X65324800Y-63768496D02*
X65277180Y-63816115D01*
X65277180Y-63816115D02*
X65181942Y-63863734D01*
X65181942Y-63863734D02*
X64896228Y-63863734D01*
X64896228Y-63863734D02*
X64800990Y-63816115D01*
X64800990Y-63816115D02*
X64753371Y-63768496D01*
X64753371Y-63768496D02*
X64705752Y-63673258D01*
X64705752Y-63673258D02*
X64705752Y-63530401D01*
X64705752Y-63530401D02*
X64753371Y-63435163D01*
X64753371Y-63435163D02*
X64800990Y-63387544D01*
X64800990Y-63387544D02*
X64896228Y-63339925D01*
X64896228Y-63339925D02*
X65181942Y-63339925D01*
X65181942Y-63339925D02*
X65277180Y-63387544D01*
X65277180Y-63387544D02*
X65324800Y-63435163D01*
X65324800Y-63435163D02*
X65372419Y-63530401D01*
X65372419Y-63530401D02*
X65372419Y-63673258D01*
X65372419Y-62911353D02*
X64705752Y-62911353D01*
X64372419Y-62911353D02*
X64420038Y-62958972D01*
X64420038Y-62958972D02*
X64467657Y-62911353D01*
X64467657Y-62911353D02*
X64420038Y-62863734D01*
X64420038Y-62863734D02*
X64372419Y-62911353D01*
X64372419Y-62911353D02*
X64467657Y-62911353D01*
X65372419Y-62292306D02*
X65324800Y-62387544D01*
X65324800Y-62387544D02*
X65229561Y-62435163D01*
X65229561Y-62435163D02*
X64372419Y-62435163D01*
X64991466Y-61911353D02*
X64991466Y-61149449D01*
D11*
X130584819Y-90666666D02*
X130108628Y-90999999D01*
X130584819Y-91238094D02*
X129584819Y-91238094D01*
X129584819Y-91238094D02*
X129584819Y-90857142D01*
X129584819Y-90857142D02*
X129632438Y-90761904D01*
X129632438Y-90761904D02*
X129680057Y-90714285D01*
X129680057Y-90714285D02*
X129775295Y-90666666D01*
X129775295Y-90666666D02*
X129918152Y-90666666D01*
X129918152Y-90666666D02*
X130013390Y-90714285D01*
X130013390Y-90714285D02*
X130061009Y-90761904D01*
X130061009Y-90761904D02*
X130108628Y-90857142D01*
X130108628Y-90857142D02*
X130108628Y-91238094D01*
X129584819Y-89761904D02*
X129584819Y-90238094D01*
X129584819Y-90238094D02*
X130061009Y-90285713D01*
X130061009Y-90285713D02*
X130013390Y-90238094D01*
X130013390Y-90238094D02*
X129965771Y-90142856D01*
X129965771Y-90142856D02*
X129965771Y-89904761D01*
X129965771Y-89904761D02*
X130013390Y-89809523D01*
X130013390Y-89809523D02*
X130061009Y-89761904D01*
X130061009Y-89761904D02*
X130156247Y-89714285D01*
X130156247Y-89714285D02*
X130394342Y-89714285D01*
X130394342Y-89714285D02*
X130489580Y-89761904D01*
X130489580Y-89761904D02*
X130537200Y-89809523D01*
X130537200Y-89809523D02*
X130584819Y-89904761D01*
X130584819Y-89904761D02*
X130584819Y-90142856D01*
X130584819Y-90142856D02*
X130537200Y-90238094D01*
X130537200Y-90238094D02*
X130489580Y-90285713D01*
X104559580Y-105666666D02*
X104607200Y-105714285D01*
X104607200Y-105714285D02*
X104654819Y-105857142D01*
X104654819Y-105857142D02*
X104654819Y-105952380D01*
X104654819Y-105952380D02*
X104607200Y-106095237D01*
X104607200Y-106095237D02*
X104511961Y-106190475D01*
X104511961Y-106190475D02*
X104416723Y-106238094D01*
X104416723Y-106238094D02*
X104226247Y-106285713D01*
X104226247Y-106285713D02*
X104083390Y-106285713D01*
X104083390Y-106285713D02*
X103892914Y-106238094D01*
X103892914Y-106238094D02*
X103797676Y-106190475D01*
X103797676Y-106190475D02*
X103702438Y-106095237D01*
X103702438Y-106095237D02*
X103654819Y-105952380D01*
X103654819Y-105952380D02*
X103654819Y-105857142D01*
X103654819Y-105857142D02*
X103702438Y-105714285D01*
X103702438Y-105714285D02*
X103750057Y-105666666D01*
X103988152Y-104809523D02*
X104654819Y-104809523D01*
X103607200Y-105047618D02*
X104321485Y-105285713D01*
X104321485Y-105285713D02*
X104321485Y-104666666D01*
X76324819Y-60583333D02*
X77039104Y-60583333D01*
X77039104Y-60583333D02*
X77181961Y-60630952D01*
X77181961Y-60630952D02*
X77277200Y-60726190D01*
X77277200Y-60726190D02*
X77324819Y-60869047D01*
X77324819Y-60869047D02*
X77324819Y-60964285D01*
X76658152Y-59678571D02*
X77324819Y-59678571D01*
X76277200Y-59916666D02*
X76991485Y-60154761D01*
X76991485Y-60154761D02*
X76991485Y-59535714D01*
X122583333Y-84084819D02*
X122250000Y-83608628D01*
X122011905Y-84084819D02*
X122011905Y-83084819D01*
X122011905Y-83084819D02*
X122392857Y-83084819D01*
X122392857Y-83084819D02*
X122488095Y-83132438D01*
X122488095Y-83132438D02*
X122535714Y-83180057D01*
X122535714Y-83180057D02*
X122583333Y-83275295D01*
X122583333Y-83275295D02*
X122583333Y-83418152D01*
X122583333Y-83418152D02*
X122535714Y-83513390D01*
X122535714Y-83513390D02*
X122488095Y-83561009D01*
X122488095Y-83561009D02*
X122392857Y-83608628D01*
X122392857Y-83608628D02*
X122011905Y-83608628D01*
X123440476Y-83084819D02*
X123250000Y-83084819D01*
X123250000Y-83084819D02*
X123154762Y-83132438D01*
X123154762Y-83132438D02*
X123107143Y-83180057D01*
X123107143Y-83180057D02*
X123011905Y-83322914D01*
X123011905Y-83322914D02*
X122964286Y-83513390D01*
X122964286Y-83513390D02*
X122964286Y-83894342D01*
X122964286Y-83894342D02*
X123011905Y-83989580D01*
X123011905Y-83989580D02*
X123059524Y-84037200D01*
X123059524Y-84037200D02*
X123154762Y-84084819D01*
X123154762Y-84084819D02*
X123345238Y-84084819D01*
X123345238Y-84084819D02*
X123440476Y-84037200D01*
X123440476Y-84037200D02*
X123488095Y-83989580D01*
X123488095Y-83989580D02*
X123535714Y-83894342D01*
X123535714Y-83894342D02*
X123535714Y-83656247D01*
X123535714Y-83656247D02*
X123488095Y-83561009D01*
X123488095Y-83561009D02*
X123440476Y-83513390D01*
X123440476Y-83513390D02*
X123345238Y-83465771D01*
X123345238Y-83465771D02*
X123154762Y-83465771D01*
X123154762Y-83465771D02*
X123059524Y-83513390D01*
X123059524Y-83513390D02*
X123011905Y-83561009D01*
X123011905Y-83561009D02*
X122964286Y-83656247D01*
X92083333Y-89074819D02*
X91750000Y-88598628D01*
X91511905Y-89074819D02*
X91511905Y-88074819D01*
X91511905Y-88074819D02*
X91892857Y-88074819D01*
X91892857Y-88074819D02*
X91988095Y-88122438D01*
X91988095Y-88122438D02*
X92035714Y-88170057D01*
X92035714Y-88170057D02*
X92083333Y-88265295D01*
X92083333Y-88265295D02*
X92083333Y-88408152D01*
X92083333Y-88408152D02*
X92035714Y-88503390D01*
X92035714Y-88503390D02*
X91988095Y-88551009D01*
X91988095Y-88551009D02*
X91892857Y-88598628D01*
X91892857Y-88598628D02*
X91511905Y-88598628D01*
X92416667Y-88074819D02*
X93035714Y-88074819D01*
X93035714Y-88074819D02*
X92702381Y-88455771D01*
X92702381Y-88455771D02*
X92845238Y-88455771D01*
X92845238Y-88455771D02*
X92940476Y-88503390D01*
X92940476Y-88503390D02*
X92988095Y-88551009D01*
X92988095Y-88551009D02*
X93035714Y-88646247D01*
X93035714Y-88646247D02*
X93035714Y-88884342D01*
X93035714Y-88884342D02*
X92988095Y-88979580D01*
X92988095Y-88979580D02*
X92940476Y-89027200D01*
X92940476Y-89027200D02*
X92845238Y-89074819D01*
X92845238Y-89074819D02*
X92559524Y-89074819D01*
X92559524Y-89074819D02*
X92464286Y-89027200D01*
X92464286Y-89027200D02*
X92416667Y-88979580D01*
X120678095Y-91834819D02*
X120678095Y-92644342D01*
X120678095Y-92644342D02*
X120725714Y-92739580D01*
X120725714Y-92739580D02*
X120773333Y-92787200D01*
X120773333Y-92787200D02*
X120868571Y-92834819D01*
X120868571Y-92834819D02*
X121059047Y-92834819D01*
X121059047Y-92834819D02*
X121154285Y-92787200D01*
X121154285Y-92787200D02*
X121201904Y-92739580D01*
X121201904Y-92739580D02*
X121249523Y-92644342D01*
X121249523Y-92644342D02*
X121249523Y-91834819D01*
X121678095Y-91930057D02*
X121725714Y-91882438D01*
X121725714Y-91882438D02*
X121820952Y-91834819D01*
X121820952Y-91834819D02*
X122059047Y-91834819D01*
X122059047Y-91834819D02*
X122154285Y-91882438D01*
X122154285Y-91882438D02*
X122201904Y-91930057D01*
X122201904Y-91930057D02*
X122249523Y-92025295D01*
X122249523Y-92025295D02*
X122249523Y-92120533D01*
X122249523Y-92120533D02*
X122201904Y-92263390D01*
X122201904Y-92263390D02*
X121630476Y-92834819D01*
X121630476Y-92834819D02*
X122249523Y-92834819D01*
X149324819Y-95166666D02*
X148848628Y-95499999D01*
X149324819Y-95738094D02*
X148324819Y-95738094D01*
X148324819Y-95738094D02*
X148324819Y-95357142D01*
X148324819Y-95357142D02*
X148372438Y-95261904D01*
X148372438Y-95261904D02*
X148420057Y-95214285D01*
X148420057Y-95214285D02*
X148515295Y-95166666D01*
X148515295Y-95166666D02*
X148658152Y-95166666D01*
X148658152Y-95166666D02*
X148753390Y-95214285D01*
X148753390Y-95214285D02*
X148801009Y-95261904D01*
X148801009Y-95261904D02*
X148848628Y-95357142D01*
X148848628Y-95357142D02*
X148848628Y-95738094D01*
X149324819Y-94214285D02*
X149324819Y-94785713D01*
X149324819Y-94499999D02*
X148324819Y-94499999D01*
X148324819Y-94499999D02*
X148467676Y-94595237D01*
X148467676Y-94595237D02*
X148562914Y-94690475D01*
X148562914Y-94690475D02*
X148610533Y-94785713D01*
X191666666Y-66494819D02*
X191666666Y-67209104D01*
X191666666Y-67209104D02*
X191619047Y-67351961D01*
X191619047Y-67351961D02*
X191523809Y-67447200D01*
X191523809Y-67447200D02*
X191380952Y-67494819D01*
X191380952Y-67494819D02*
X191285714Y-67494819D01*
X192095238Y-66590057D02*
X192142857Y-66542438D01*
X192142857Y-66542438D02*
X192238095Y-66494819D01*
X192238095Y-66494819D02*
X192476190Y-66494819D01*
X192476190Y-66494819D02*
X192571428Y-66542438D01*
X192571428Y-66542438D02*
X192619047Y-66590057D01*
X192619047Y-66590057D02*
X192666666Y-66685295D01*
X192666666Y-66685295D02*
X192666666Y-66780533D01*
X192666666Y-66780533D02*
X192619047Y-66923390D01*
X192619047Y-66923390D02*
X192047619Y-67494819D01*
X192047619Y-67494819D02*
X192666666Y-67494819D01*
X173894819Y-55833333D02*
X174609104Y-55833333D01*
X174609104Y-55833333D02*
X174751961Y-55880952D01*
X174751961Y-55880952D02*
X174847200Y-55976190D01*
X174847200Y-55976190D02*
X174894819Y-56119047D01*
X174894819Y-56119047D02*
X174894819Y-56214285D01*
X173894819Y-54928571D02*
X173894819Y-55119047D01*
X173894819Y-55119047D02*
X173942438Y-55214285D01*
X173942438Y-55214285D02*
X173990057Y-55261904D01*
X173990057Y-55261904D02*
X174132914Y-55357142D01*
X174132914Y-55357142D02*
X174323390Y-55404761D01*
X174323390Y-55404761D02*
X174704342Y-55404761D01*
X174704342Y-55404761D02*
X174799580Y-55357142D01*
X174799580Y-55357142D02*
X174847200Y-55309523D01*
X174847200Y-55309523D02*
X174894819Y-55214285D01*
X174894819Y-55214285D02*
X174894819Y-55023809D01*
X174894819Y-55023809D02*
X174847200Y-54928571D01*
X174847200Y-54928571D02*
X174799580Y-54880952D01*
X174799580Y-54880952D02*
X174704342Y-54833333D01*
X174704342Y-54833333D02*
X174466247Y-54833333D01*
X174466247Y-54833333D02*
X174371009Y-54880952D01*
X174371009Y-54880952D02*
X174323390Y-54928571D01*
X174323390Y-54928571D02*
X174275771Y-55023809D01*
X174275771Y-55023809D02*
X174275771Y-55214285D01*
X174275771Y-55214285D02*
X174323390Y-55309523D01*
X174323390Y-55309523D02*
X174371009Y-55357142D01*
X174371009Y-55357142D02*
X174466247Y-55404761D01*
X157083333Y-92824819D02*
X156750000Y-92348628D01*
X156511905Y-92824819D02*
X156511905Y-91824819D01*
X156511905Y-91824819D02*
X156892857Y-91824819D01*
X156892857Y-91824819D02*
X156988095Y-91872438D01*
X156988095Y-91872438D02*
X157035714Y-91920057D01*
X157035714Y-91920057D02*
X157083333Y-92015295D01*
X157083333Y-92015295D02*
X157083333Y-92158152D01*
X157083333Y-92158152D02*
X157035714Y-92253390D01*
X157035714Y-92253390D02*
X156988095Y-92301009D01*
X156988095Y-92301009D02*
X156892857Y-92348628D01*
X156892857Y-92348628D02*
X156511905Y-92348628D01*
X157464286Y-91920057D02*
X157511905Y-91872438D01*
X157511905Y-91872438D02*
X157607143Y-91824819D01*
X157607143Y-91824819D02*
X157845238Y-91824819D01*
X157845238Y-91824819D02*
X157940476Y-91872438D01*
X157940476Y-91872438D02*
X157988095Y-91920057D01*
X157988095Y-91920057D02*
X158035714Y-92015295D01*
X158035714Y-92015295D02*
X158035714Y-92110533D01*
X158035714Y-92110533D02*
X157988095Y-92253390D01*
X157988095Y-92253390D02*
X157416667Y-92824819D01*
X157416667Y-92824819D02*
X158035714Y-92824819D01*
X109074819Y-94916666D02*
X108598628Y-95249999D01*
X109074819Y-95488094D02*
X108074819Y-95488094D01*
X108074819Y-95488094D02*
X108074819Y-95107142D01*
X108074819Y-95107142D02*
X108122438Y-95011904D01*
X108122438Y-95011904D02*
X108170057Y-94964285D01*
X108170057Y-94964285D02*
X108265295Y-94916666D01*
X108265295Y-94916666D02*
X108408152Y-94916666D01*
X108408152Y-94916666D02*
X108503390Y-94964285D01*
X108503390Y-94964285D02*
X108551009Y-95011904D01*
X108551009Y-95011904D02*
X108598628Y-95107142D01*
X108598628Y-95107142D02*
X108598628Y-95488094D01*
X108408152Y-94059523D02*
X109074819Y-94059523D01*
X108027200Y-94297618D02*
X108741485Y-94535713D01*
X108741485Y-94535713D02*
X108741485Y-93916666D01*
X76324819Y-113333333D02*
X77039104Y-113333333D01*
X77039104Y-113333333D02*
X77181961Y-113380952D01*
X77181961Y-113380952D02*
X77277200Y-113476190D01*
X77277200Y-113476190D02*
X77324819Y-113619047D01*
X77324819Y-113619047D02*
X77324819Y-113714285D01*
X76324819Y-112380952D02*
X76324819Y-112857142D01*
X76324819Y-112857142D02*
X76801009Y-112904761D01*
X76801009Y-112904761D02*
X76753390Y-112857142D01*
X76753390Y-112857142D02*
X76705771Y-112761904D01*
X76705771Y-112761904D02*
X76705771Y-112523809D01*
X76705771Y-112523809D02*
X76753390Y-112428571D01*
X76753390Y-112428571D02*
X76801009Y-112380952D01*
X76801009Y-112380952D02*
X76896247Y-112333333D01*
X76896247Y-112333333D02*
X77134342Y-112333333D01*
X77134342Y-112333333D02*
X77229580Y-112380952D01*
X77229580Y-112380952D02*
X77277200Y-112428571D01*
X77277200Y-112428571D02*
X77324819Y-112523809D01*
X77324819Y-112523809D02*
X77324819Y-112761904D01*
X77324819Y-112761904D02*
X77277200Y-112857142D01*
X77277200Y-112857142D02*
X77229580Y-112904761D01*
X118400057Y-67055238D02*
X118352438Y-67150476D01*
X118352438Y-67150476D02*
X118257200Y-67245714D01*
X118257200Y-67245714D02*
X118114342Y-67388571D01*
X118114342Y-67388571D02*
X118066723Y-67483809D01*
X118066723Y-67483809D02*
X118066723Y-67579047D01*
X118304819Y-67531428D02*
X118257200Y-67626666D01*
X118257200Y-67626666D02*
X118161961Y-67721904D01*
X118161961Y-67721904D02*
X117971485Y-67769523D01*
X117971485Y-67769523D02*
X117638152Y-67769523D01*
X117638152Y-67769523D02*
X117447676Y-67721904D01*
X117447676Y-67721904D02*
X117352438Y-67626666D01*
X117352438Y-67626666D02*
X117304819Y-67531428D01*
X117304819Y-67531428D02*
X117304819Y-67340952D01*
X117304819Y-67340952D02*
X117352438Y-67245714D01*
X117352438Y-67245714D02*
X117447676Y-67150476D01*
X117447676Y-67150476D02*
X117638152Y-67102857D01*
X117638152Y-67102857D02*
X117971485Y-67102857D01*
X117971485Y-67102857D02*
X118161961Y-67150476D01*
X118161961Y-67150476D02*
X118257200Y-67245714D01*
X118257200Y-67245714D02*
X118304819Y-67340952D01*
X118304819Y-67340952D02*
X118304819Y-67531428D01*
X118304819Y-66150476D02*
X118304819Y-66721904D01*
X118304819Y-66436190D02*
X117304819Y-66436190D01*
X117304819Y-66436190D02*
X117447676Y-66531428D01*
X117447676Y-66531428D02*
X117542914Y-66626666D01*
X117542914Y-66626666D02*
X117590533Y-66721904D01*
X166266666Y-66494819D02*
X166266666Y-67209104D01*
X166266666Y-67209104D02*
X166219047Y-67351961D01*
X166219047Y-67351961D02*
X166123809Y-67447200D01*
X166123809Y-67447200D02*
X165980952Y-67494819D01*
X165980952Y-67494819D02*
X165885714Y-67494819D01*
X167266666Y-67494819D02*
X166695238Y-67494819D01*
X166980952Y-67494819D02*
X166980952Y-66494819D01*
X166980952Y-66494819D02*
X166885714Y-66637676D01*
X166885714Y-66637676D02*
X166790476Y-66732914D01*
X166790476Y-66732914D02*
X166695238Y-66780533D01*
X88174819Y-64738094D02*
X87174819Y-64738094D01*
X87174819Y-64738094D02*
X87174819Y-64499999D01*
X87174819Y-64499999D02*
X87222438Y-64357142D01*
X87222438Y-64357142D02*
X87317676Y-64261904D01*
X87317676Y-64261904D02*
X87412914Y-64214285D01*
X87412914Y-64214285D02*
X87603390Y-64166666D01*
X87603390Y-64166666D02*
X87746247Y-64166666D01*
X87746247Y-64166666D02*
X87936723Y-64214285D01*
X87936723Y-64214285D02*
X88031961Y-64261904D01*
X88031961Y-64261904D02*
X88127200Y-64357142D01*
X88127200Y-64357142D02*
X88174819Y-64499999D01*
X88174819Y-64499999D02*
X88174819Y-64738094D01*
X87270057Y-63785713D02*
X87222438Y-63738094D01*
X87222438Y-63738094D02*
X87174819Y-63642856D01*
X87174819Y-63642856D02*
X87174819Y-63404761D01*
X87174819Y-63404761D02*
X87222438Y-63309523D01*
X87222438Y-63309523D02*
X87270057Y-63261904D01*
X87270057Y-63261904D02*
X87365295Y-63214285D01*
X87365295Y-63214285D02*
X87460533Y-63214285D01*
X87460533Y-63214285D02*
X87603390Y-63261904D01*
X87603390Y-63261904D02*
X88174819Y-63833332D01*
X88174819Y-63833332D02*
X88174819Y-63214285D01*
X87054819Y-56641904D02*
X86054819Y-56641904D01*
X87054819Y-56070476D02*
X86483390Y-56499047D01*
X86054819Y-56070476D02*
X86626247Y-56641904D01*
%TO.C,R5*%
D12*
X132500000Y-86460000D02*
X132500000Y-87230000D01*
X132500000Y-94540000D02*
X132500000Y-93770000D01*
X131130000Y-87230000D02*
X133870000Y-87230000D01*
X133870000Y-93770000D01*
X131130000Y-93770000D01*
X131130000Y-87230000D01*
%TO.C,C4*%
X105330000Y-106265000D02*
X105330000Y-104735000D01*
X107170000Y-104735000D02*
X107170000Y-106265000D01*
%TO.C,J4*%
X67830000Y-54880000D02*
X75870000Y-54880000D01*
X67830000Y-57700000D02*
X67830000Y-54880000D01*
X67830000Y-65620000D02*
X67830000Y-58300000D01*
X69950000Y-54880000D02*
X69950000Y-56120000D01*
X69950000Y-59880000D02*
X69950000Y-62457000D01*
X69950000Y-63543000D02*
X69950000Y-65620000D01*
X71250000Y-54880000D02*
X71250000Y-56120000D01*
X71250000Y-59880000D02*
X71250000Y-61188000D01*
X71250000Y-64812000D02*
X71250000Y-65620000D01*
X72250000Y-54880000D02*
X72250000Y-56120000D01*
X72250000Y-59880000D02*
X72250000Y-61188000D01*
X72250000Y-64812000D02*
X72250000Y-65620000D01*
X75870000Y-54880000D02*
X75870000Y-65620000D01*
X75870000Y-65620000D02*
X67830000Y-65620000D01*
X67830000Y-58000000D02*
X67220000Y-58440000D01*
X67220000Y-57560000D01*
X67830000Y-58000000D01*
G36*
X67830000Y-58000000D02*
G01*
X67220000Y-58440000D01*
X67220000Y-57560000D01*
X67830000Y-58000000D01*
G37*
%TO.C,R6*%
X118710000Y-86000000D02*
X119480000Y-86000000D01*
X126790000Y-86000000D02*
X126020000Y-86000000D01*
X119480000Y-84630000D02*
X126020000Y-84630000D01*
X126020000Y-87370000D01*
X119480000Y-87370000D01*
X119480000Y-84630000D01*
%TO.C,R3*%
X79630000Y-78380000D02*
X79630000Y-81560000D01*
X79630000Y-87620000D02*
X79630000Y-84440000D01*
X104870000Y-78380000D02*
X79630000Y-78380000D01*
X104870000Y-81560000D02*
X104870000Y-78380000D01*
X104870000Y-84440000D02*
X104870000Y-87620000D01*
X104870000Y-87620000D02*
X79630000Y-87620000D01*
%TO.C,U2*%
X118790000Y-93380000D02*
X118790000Y-111280000D01*
X118790000Y-111280000D02*
X124090000Y-111280000D01*
X120440000Y-93380000D02*
X118790000Y-93380000D01*
X124090000Y-93380000D02*
X122440000Y-93380000D01*
X124090000Y-111280000D02*
X124090000Y-93380000D01*
X122440000Y-93380000D02*
G75*
G02*
X120440000Y-93380000I-1000000J0D01*
G01*
%TO.C,R1*%
X146500000Y-90960000D02*
X146500000Y-91730000D01*
X146500000Y-99040000D02*
X146500000Y-98270000D01*
X145130000Y-91730000D02*
X147870000Y-91730000D01*
X147870000Y-98270000D01*
X145130000Y-98270000D01*
X145130000Y-91730000D01*
%TO.C,J2*%
X190670000Y-71080000D02*
X190670000Y-116860000D01*
X190670000Y-71080000D02*
X193330000Y-71080000D01*
X190670000Y-116860000D02*
X193330000Y-116860000D01*
X192000000Y-68480000D02*
X193330000Y-68480000D01*
X193330000Y-68480000D02*
X193330000Y-69810000D01*
X193330000Y-71080000D02*
X193330000Y-116860000D01*
%TO.C,J6*%
X175880000Y-54170000D02*
X177210000Y-54170000D01*
X175880000Y-55500000D02*
X175880000Y-54170000D01*
X178480000Y-54170000D02*
X183620000Y-54170000D01*
X178480000Y-56830000D02*
X178480000Y-54170000D01*
X178480000Y-56830000D02*
X183620000Y-56830000D01*
X183620000Y-56830000D02*
X183620000Y-54170000D01*
%TO.C,R2*%
X153210000Y-90000000D02*
X153980000Y-90000000D01*
X161290000Y-90000000D02*
X160520000Y-90000000D01*
X153980000Y-88630000D02*
X160520000Y-88630000D01*
X160520000Y-91370000D01*
X153980000Y-91370000D01*
X153980000Y-88630000D01*
%TO.C,R4*%
X106250000Y-90710000D02*
X106250000Y-91480000D01*
X106250000Y-98790000D02*
X106250000Y-98020000D01*
X104880000Y-91480000D02*
X107620000Y-91480000D01*
X107620000Y-98020000D01*
X104880000Y-98020000D01*
X104880000Y-91480000D01*
%TO.C,J5*%
X67830000Y-105130000D02*
X75870000Y-105130000D01*
X67830000Y-107950000D02*
X67830000Y-105130000D01*
X67830000Y-120870000D02*
X67830000Y-108550000D01*
X69950000Y-105130000D02*
X69950000Y-106370000D01*
X69950000Y-110130000D02*
X69950000Y-112707000D01*
X69950000Y-113793000D02*
X69950000Y-117707000D01*
X69950000Y-118793000D02*
X69950000Y-120870000D01*
X71250000Y-105130000D02*
X71250000Y-106370000D01*
X71250000Y-110130000D02*
X71250000Y-111438000D01*
X71250000Y-115062000D02*
X71250000Y-116438000D01*
X71250000Y-120062000D02*
X71250000Y-120870000D01*
X72250000Y-105130000D02*
X72250000Y-106370000D01*
X72250000Y-110130000D02*
X72250000Y-111438000D01*
X72250000Y-115062000D02*
X72250000Y-116438000D01*
X72250000Y-120062000D02*
X72250000Y-120870000D01*
X75870000Y-105130000D02*
X75870000Y-120870000D01*
X75870000Y-120870000D02*
X67830000Y-120870000D01*
X67830000Y-108250000D02*
X67220000Y-108690000D01*
X67220000Y-107810000D01*
X67830000Y-108250000D01*
G36*
X67830000Y-108250000D02*
G01*
X67220000Y-108690000D01*
X67220000Y-107810000D01*
X67830000Y-108250000D01*
G37*
%TO.C,Q1*%
X112390000Y-61850000D02*
X117010000Y-61850000D01*
X112390000Y-72070000D02*
X112390000Y-61850000D01*
X115630000Y-61850000D02*
X115630000Y-72070000D01*
X117010000Y-61850000D02*
X117010000Y-72070000D01*
X117010000Y-65110000D02*
X115630000Y-65110000D01*
X117010000Y-68810000D02*
X115630000Y-68810000D01*
X117010000Y-72070000D02*
X112390000Y-72070000D01*
%TO.C,J1*%
X165270000Y-71080000D02*
X165270000Y-116860000D01*
X165270000Y-71080000D02*
X167930000Y-71080000D01*
X165270000Y-116860000D02*
X167930000Y-116860000D01*
X166600000Y-68480000D02*
X167930000Y-68480000D01*
X167930000Y-68480000D02*
X167930000Y-69810000D01*
X167930000Y-71080000D02*
X167930000Y-116860000D01*
%TO.C,D2*%
X84000000Y-58220000D02*
X84000000Y-59130000D01*
X84000000Y-69780000D02*
X84000000Y-68870000D01*
X86720000Y-60555000D02*
X81280000Y-60555000D01*
X86720000Y-60675000D02*
X81280000Y-60675000D01*
X86720000Y-60795000D02*
X81280000Y-60795000D01*
X81280000Y-59130000D02*
X86720000Y-59130000D01*
X86720000Y-68870000D01*
X81280000Y-68870000D01*
X81280000Y-59130000D01*
%TD*%
M02*
