%TF.GenerationSoftware,KiCad,Pcbnew,10.0.0*%
%TF.CreationDate,2026-03-29T09:42:31-04:00*%
%TF.ProjectId,MagneticLevitator,4d61676e-6574-4696-934c-657669746174,rev?*%
%TF.SameCoordinates,Original*%
%TF.FileFunction,Copper,L2,Bot*%
%TF.FilePolarity,Positive*%
%FSLAX46Y46*%
G04 Gerber Fmt 4.6, Leading zero omitted, Abs format (unit mm)*
G04 Created by KiCad (PCBNEW 10.0.0) date 2026-03-29 09:42:31*
%MOMM*%
%LPD*%
G01*
G04 APERTURE LIST*
G04 Aperture macros list*
%AMRoundRect*
0 Rectangle with rounded corners*
0 $1 Rounding radius*
0 $2 $3 $4 $5 $6 $7 $8 $9 X,Y pos of 4 corners*
0 Add a 4 corners polygon primitive as box body*
4,1,4,$2,$3,$4,$5,$6,$7,$8,$9,$2,$3,0*
0 Add four circle primitives for the rounded corners*
1,1,$1+$1,$2,$3*
1,1,$1+$1,$4,$5*
1,1,$1+$1,$6,$7*
1,1,$1+$1,$8,$9*
0 Add four rect primitives between the rounded corners*
20,1,$1+$1,$2,$3,$4,$5,0*
20,1,$1+$1,$4,$5,$6,$7,0*
20,1,$1+$1,$6,$7,$8,$9,0*
20,1,$1+$1,$8,$9,$2,$3,0*%
G04 Aperture macros list end*
%TA.AperFunction,ComponentPad*%
%ADD10C,1.600000*%
%TD*%
%TA.AperFunction,ComponentPad*%
%ADD11RoundRect,0.250001X-1.149999X1.149999X-1.149999X-1.149999X1.149999X-1.149999X1.149999X1.149999X0*%
%TD*%
%TA.AperFunction,ComponentPad*%
%ADD12C,2.800000*%
%TD*%
%TA.AperFunction,ComponentPad*%
%ADD13C,2.400000*%
%TD*%
%TA.AperFunction,ComponentPad*%
%ADD14RoundRect,0.250000X-0.550000X-0.550000X0.550000X-0.550000X0.550000X0.550000X-0.550000X0.550000X0*%
%TD*%
%TA.AperFunction,ComponentPad*%
%ADD15R,1.700000X1.700000*%
%TD*%
%TA.AperFunction,ComponentPad*%
%ADD16C,1.700000*%
%TD*%
%TA.AperFunction,ComponentPad*%
%ADD17R,2.000000X1.905000*%
%TD*%
%TA.AperFunction,ComponentPad*%
%ADD18O,2.000000X1.905000*%
%TD*%
%TA.AperFunction,ComponentPad*%
%ADD19RoundRect,0.250000X-1.350000X1.350000X-1.350000X-1.350000X1.350000X-1.350000X1.350000X1.350000X0*%
%TD*%
%TA.AperFunction,ComponentPad*%
%ADD20C,3.200000*%
%TD*%
G04 APERTURE END LIST*
D10*
%TO.P,R5,1*%
%TO.N,GND*%
X132500000Y-95580000D03*
%TO.P,R5,2*%
%TO.N,Net-(R5-Pad2)*%
X132500000Y-85420000D03*
%TD*%
%TO.P,C4,1*%
%TO.N,GND*%
X106250000Y-106750000D03*
%TO.P,C4,2*%
%TO.N,Net-(C4-Pad2)*%
X106250000Y-104250000D03*
%TD*%
D11*
%TO.P,J4,1,Pin_1_1*%
%TO.N,/+12V*%
X71750000Y-58000000D03*
D12*
%TO.P,J4,2,Pin_2_2*%
%TO.N,Net-(D2-A)*%
X71750000Y-63000000D03*
%TD*%
D10*
%TO.P,R6,1*%
%TO.N,/V_SHUNT*%
X117670000Y-86000000D03*
%TO.P,R6,2*%
%TO.N,Net-(R5-Pad2)*%
X127830000Y-86000000D03*
%TD*%
D13*
%TO.P,R3,1*%
%TO.N,Net-(Q1-S)*%
X106220000Y-83000000D03*
%TO.P,R3,2*%
%TO.N,GND*%
X78280000Y-83000000D03*
%TD*%
D14*
%TO.P,U2,1,~_1*%
%TO.N,/V_SHUNT*%
X117630000Y-94710000D03*
D10*
%TO.P,U2,2,~_2*%
%TO.N,Net-(R5-Pad2)*%
X117630000Y-97250000D03*
%TO.P,U2,3,~_3*%
%TO.N,Net-(C4-Pad2)*%
X117630000Y-99790000D03*
%TO.P,U2,4,VCC_4*%
%TO.N,/+5V*%
X117630000Y-102330000D03*
%TO.P,U2,5*%
%TO.N,N/C*%
X117630000Y-104870000D03*
%TO.P,U2,6*%
X117630000Y-107410000D03*
%TO.P,U2,7*%
X117630000Y-109950000D03*
%TO.P,U2,8*%
X125250000Y-109950000D03*
%TO.P,U2,9*%
X125250000Y-107410000D03*
%TO.P,U2,10*%
X125250000Y-104870000D03*
%TO.P,U2,11,GND_11*%
%TO.N,GND*%
X125250000Y-102330000D03*
%TO.P,U2,12*%
%TO.N,N/C*%
X125250000Y-99790000D03*
%TO.P,U2,13*%
X125250000Y-97250000D03*
%TO.P,U2,14*%
X125250000Y-94710000D03*
%TD*%
%TO.P,R1,1*%
%TO.N,Net-(Q1-G)*%
X146500000Y-89920000D03*
%TO.P,R1,2*%
%TO.N,GND*%
X146500000Y-100080000D03*
%TD*%
D15*
%TO.P,J2,1,Pin_1_1*%
%TO.N,GND*%
X192000000Y-69810000D03*
D16*
%TO.P,J2,2,Pin_2_2*%
%TO.N,unconnected-(J2-Pin_2-Pad2)*%
X192000000Y-72350000D03*
%TO.P,J2,3,Pin_3_3*%
%TO.N,unconnected-(J2-Pin_3-Pad3)*%
X192000000Y-74890000D03*
%TO.P,J2,4,Pin_4_4*%
%TO.N,unconnected-(J2-Pin_4-Pad4)*%
X192000000Y-77430000D03*
%TO.P,J2,5,Pin_5_5*%
%TO.N,unconnected-(J2-Pin_5-Pad5)*%
X192000000Y-79970000D03*
%TO.P,J2,6,Pin_6_6*%
%TO.N,unconnected-(J2-Pin_6-Pad6)*%
X192000000Y-82510000D03*
%TO.P,J2,7,Pin_7_7*%
%TO.N,GND*%
X192000000Y-85050000D03*
%TO.P,J2,8,Pin_8_8*%
%TO.N,unconnected-(J2-Pin_8-Pad8)*%
X192000000Y-87590000D03*
%TO.P,J2,9,Pin_9_9*%
%TO.N,unconnected-(J2-Pin_9-Pad9)*%
X192000000Y-90130000D03*
%TO.P,J2,10,Pin_10_10*%
%TO.N,unconnected-(J2-Pin_10-Pad10)*%
X192000000Y-92670000D03*
%TO.P,J2,11,Pin_11_11*%
%TO.N,unconnected-(J2-Pin_11-Pad11)*%
X192000000Y-95210000D03*
%TO.P,J2,12,Pin_12_12*%
%TO.N,unconnected-(J2-Pin_12-Pad12)*%
X192000000Y-97750000D03*
%TO.P,J2,13,Pin_13_13*%
%TO.N,unconnected-(J2-Pin_13-Pad13)*%
X192000000Y-100290000D03*
%TO.P,J2,14,Pin_14_14*%
%TO.N,unconnected-(J2-Pin_14-Pad14)*%
X192000000Y-102830000D03*
%TO.P,J2,15,Pin_15_15*%
%TO.N,unconnected-(J2-Pin_15-Pad15)*%
X192000000Y-105370000D03*
%TO.P,J2,16,Pin_16_16*%
%TO.N,unconnected-(J2-Pin_16-Pad16)*%
X192000000Y-107910000D03*
%TO.P,J2,17,Pin_17_17*%
%TO.N,unconnected-(J2-Pin_17-Pad17)*%
X192000000Y-110450000D03*
%TO.P,J2,18,Pin_18_18*%
%TO.N,unconnected-(J2-Pin_18-Pad18)*%
X192000000Y-112990000D03*
%TO.P,J2,19,Pin_19_19*%
%TO.N,unconnected-(J2-Pin_19-Pad19)*%
X192000000Y-115530000D03*
%TD*%
D15*
%TO.P,J6,1,Pin_1_1*%
%TO.N,/+3V3*%
X177210000Y-55500000D03*
D16*
%TO.P,J6,2,Pin_2_2*%
%TO.N,GND*%
X179750000Y-55500000D03*
%TO.P,J6,3,Pin_3_3*%
%TO.N,/V_HALL*%
X182290000Y-55500000D03*
%TD*%
D10*
%TO.P,R2,1*%
%TO.N,/PWM_OUT*%
X162330000Y-90000000D03*
%TO.P,R2,2*%
%TO.N,Net-(Q1-G)*%
X152170000Y-90000000D03*
%TD*%
%TO.P,R4,1*%
%TO.N,Net-(Q1-S)*%
X106250000Y-89670000D03*
%TO.P,R4,2*%
%TO.N,Net-(C4-Pad2)*%
X106250000Y-99830000D03*
%TD*%
D11*
%TO.P,J5,1,Pin_1_1*%
%TO.N,/+12V*%
X71750000Y-108250000D03*
D12*
%TO.P,J5,2,Pin_2_2*%
%TO.N,/+5V*%
X71750000Y-113250000D03*
%TO.P,J5,3,Pin_3_3*%
%TO.N,GND*%
X71750000Y-118250000D03*
%TD*%
D17*
%TO.P,Q1,1,G_1*%
%TO.N,Net-(Q1-G)*%
X113750000Y-64420000D03*
D18*
%TO.P,Q1,2,D_2*%
%TO.N,Net-(D2-A)*%
X113750000Y-66960000D03*
%TO.P,Q1,3,S_3*%
%TO.N,Net-(Q1-S)*%
X113750000Y-69500000D03*
%TD*%
D15*
%TO.P,J1,1,Pin_1_1*%
%TO.N,/+3V3*%
X166600000Y-69810000D03*
D16*
%TO.P,J1,2,Pin_2_2*%
%TO.N,unconnected-(J1-Pin_2-Pad2)*%
X166600000Y-72350000D03*
%TO.P,J1,3,Pin_3_3*%
%TO.N,unconnected-(J1-Pin_3-Pad3)*%
X166600000Y-74890000D03*
%TO.P,J1,4,Pin_4_4*%
%TO.N,unconnected-(J1-Pin_4-Pad4)*%
X166600000Y-77430000D03*
%TO.P,J1,5,Pin_5_5*%
%TO.N,/V_HALL*%
X166600000Y-79970000D03*
%TO.P,J1,6,Pin_6_6*%
%TO.N,/V_SHUNT*%
X166600000Y-82510000D03*
%TO.P,J1,7,Pin_7_7*%
%TO.N,unconnected-(J1-Pin_7-Pad7)*%
X166600000Y-85050000D03*
%TO.P,J1,8,Pin_8_8*%
%TO.N,unconnected-(J1-Pin_8-Pad8)*%
X166600000Y-87590000D03*
%TO.P,J1,9,Pin_9_9*%
%TO.N,/PWM_OUT*%
X166600000Y-90130000D03*
%TO.P,J1,10,Pin_10_10*%
%TO.N,unconnected-(J1-Pin_10-Pad10)*%
X166600000Y-92670000D03*
%TO.P,J1,11,Pin_11_11*%
%TO.N,unconnected-(J1-Pin_11-Pad11)*%
X166600000Y-95210000D03*
%TO.P,J1,12,Pin_12_12*%
%TO.N,unconnected-(J1-Pin_12-Pad12)*%
X166600000Y-97750000D03*
%TO.P,J1,13,Pin_13_13*%
%TO.N,unconnected-(J1-Pin_13-Pad13)*%
X166600000Y-100290000D03*
%TO.P,J1,14,Pin_14_14*%
%TO.N,GND*%
X166600000Y-102830000D03*
%TO.P,J1,15,Pin_15_15*%
%TO.N,unconnected-(J1-Pin_15-Pad15)*%
X166600000Y-105370000D03*
%TO.P,J1,16,Pin_16_16*%
%TO.N,unconnected-(J1-Pin_16-Pad16)*%
X166600000Y-107910000D03*
%TO.P,J1,17,Pin_17_17*%
%TO.N,unconnected-(J1-Pin_17-Pad17)*%
X166600000Y-110450000D03*
%TO.P,J1,18,Pin_18_18*%
%TO.N,unconnected-(J1-Pin_18-Pad18)*%
X166600000Y-112990000D03*
%TO.P,J1,19,Pin_19_19*%
%TO.N,/+5V*%
X166600000Y-115530000D03*
%TD*%
D19*
%TO.P,D2,1,K_1*%
%TO.N,/+12V*%
X84000000Y-56380000D03*
D20*
%TO.P,D2,2,A_2*%
%TO.N,Net-(D2-A)*%
X84000000Y-71620000D03*
%TD*%
%TA.AperFunction,Conductor*%
%TO.N,GND*%
G36*
X198190655Y-53269794D02*
G01*
X198236508Y-53322513D01*
X198247790Y-53376402D01*
X197002137Y-124627710D01*
X196981284Y-124694395D01*
X196927688Y-124739220D01*
X196877692Y-124749541D01*
X63623536Y-124250462D01*
X63556570Y-124230527D01*
X63511013Y-124177552D01*
X63500000Y-124126463D01*
X63500000Y-118125466D01*
X69850000Y-118125466D01*
X69850000Y-118374533D01*
X69882508Y-118621463D01*
X69946973Y-118862049D01*
X70042283Y-119092148D01*
X70042288Y-119092159D01*
X70166813Y-119307841D01*
X70166819Y-119307849D01*
X70241400Y-119405045D01*
X71148958Y-118497487D01*
X71173978Y-118557890D01*
X71245112Y-118664351D01*
X71335649Y-118754888D01*
X71442110Y-118826022D01*
X71502511Y-118851041D01*
X70594953Y-119758598D01*
X70692150Y-119833180D01*
X70692158Y-119833186D01*
X70907840Y-119957711D01*
X70907851Y-119957716D01*
X71137950Y-120053026D01*
X71378536Y-120117491D01*
X71625466Y-120150000D01*
X71874534Y-120150000D01*
X72121463Y-120117491D01*
X72362049Y-120053026D01*
X72592148Y-119957716D01*
X72592159Y-119957711D01*
X72807855Y-119833178D01*
X72905045Y-119758600D01*
X72905045Y-119758597D01*
X71997488Y-118851041D01*
X72057890Y-118826022D01*
X72164351Y-118754888D01*
X72254888Y-118664351D01*
X72326022Y-118557890D01*
X72351041Y-118497489D01*
X73258597Y-119405045D01*
X73258600Y-119405045D01*
X73333178Y-119307855D01*
X73457711Y-119092159D01*
X73457716Y-119092148D01*
X73553026Y-118862049D01*
X73617491Y-118621463D01*
X73650000Y-118374533D01*
X73650000Y-118125466D01*
X73617491Y-117878536D01*
X73553026Y-117637950D01*
X73457716Y-117407851D01*
X73457711Y-117407840D01*
X73333186Y-117192158D01*
X73333180Y-117192150D01*
X73258598Y-117094953D01*
X72351041Y-118002510D01*
X72326022Y-117942110D01*
X72254888Y-117835649D01*
X72164351Y-117745112D01*
X72057890Y-117673978D01*
X71997487Y-117648957D01*
X72905045Y-116741400D01*
X72807849Y-116666819D01*
X72807841Y-116666813D01*
X72592159Y-116542288D01*
X72592148Y-116542283D01*
X72362049Y-116446973D01*
X72121463Y-116382508D01*
X71874534Y-116350000D01*
X71625466Y-116350000D01*
X71378536Y-116382508D01*
X71137950Y-116446973D01*
X70907851Y-116542283D01*
X70907847Y-116542285D01*
X70692143Y-116666823D01*
X70594953Y-116741399D01*
X70594953Y-116741400D01*
X71502511Y-117648958D01*
X71442110Y-117673978D01*
X71335649Y-117745112D01*
X71245112Y-117835649D01*
X71173978Y-117942110D01*
X71148958Y-118002511D01*
X70241400Y-117094953D01*
X70241399Y-117094953D01*
X70166823Y-117192143D01*
X70042285Y-117407847D01*
X70042283Y-117407851D01*
X69946973Y-117637950D01*
X69882508Y-117878536D01*
X69850000Y-118125466D01*
X63500000Y-118125466D01*
X63500000Y-113125441D01*
X69849500Y-113125441D01*
X69849500Y-113374558D01*
X69849501Y-113374575D01*
X69882017Y-113621561D01*
X69946498Y-113862207D01*
X70041830Y-114092361D01*
X70041837Y-114092376D01*
X70166400Y-114308126D01*
X70318060Y-114505774D01*
X70318066Y-114505781D01*
X70494218Y-114681933D01*
X70494225Y-114681939D01*
X70691873Y-114833599D01*
X70907623Y-114958162D01*
X70907638Y-114958169D01*
X71006825Y-114999253D01*
X71137793Y-115053502D01*
X71378435Y-115117982D01*
X71625435Y-115150500D01*
X71625442Y-115150500D01*
X71874558Y-115150500D01*
X71874565Y-115150500D01*
X72121565Y-115117982D01*
X72362207Y-115053502D01*
X72592373Y-114958164D01*
X72808127Y-114833599D01*
X73005776Y-114681938D01*
X73181938Y-114505776D01*
X73333599Y-114308127D01*
X73458164Y-114092373D01*
X73553502Y-113862207D01*
X73617982Y-113621565D01*
X73650500Y-113374565D01*
X73650500Y-113125435D01*
X73617982Y-112878435D01*
X73553502Y-112637793D01*
X73458164Y-112407627D01*
X73333599Y-112191873D01*
X73270939Y-112110213D01*
X73181939Y-111994225D01*
X73181933Y-111994218D01*
X73005781Y-111818066D01*
X73005774Y-111818060D01*
X72808126Y-111666400D01*
X72592376Y-111541837D01*
X72592361Y-111541830D01*
X72362207Y-111446498D01*
X72121561Y-111382017D01*
X71874575Y-111349501D01*
X71874570Y-111349500D01*
X71874565Y-111349500D01*
X71625435Y-111349500D01*
X71625429Y-111349500D01*
X71625424Y-111349501D01*
X71378438Y-111382017D01*
X71137792Y-111446498D01*
X70907638Y-111541830D01*
X70907623Y-111541837D01*
X70691873Y-111666400D01*
X70494225Y-111818060D01*
X70494218Y-111818066D01*
X70318066Y-111994218D01*
X70318060Y-111994225D01*
X70166400Y-112191873D01*
X70041837Y-112407623D01*
X70041830Y-112407638D01*
X69946498Y-112637792D01*
X69882017Y-112878438D01*
X69849501Y-113125424D01*
X69849500Y-113125441D01*
X63500000Y-113125441D01*
X63500000Y-107049984D01*
X69849500Y-107049984D01*
X69849500Y-109450015D01*
X69860000Y-109552795D01*
X69860001Y-109552797D01*
X69865772Y-109570213D01*
X69915186Y-109719335D01*
X69915187Y-109719337D01*
X70007286Y-109868651D01*
X70007289Y-109868655D01*
X70131344Y-109992710D01*
X70131348Y-109992713D01*
X70280662Y-110084812D01*
X70280664Y-110084813D01*
X70280666Y-110084814D01*
X70447203Y-110139999D01*
X70549992Y-110150500D01*
X70549997Y-110150500D01*
X72950003Y-110150500D01*
X72950008Y-110150500D01*
X73052797Y-110139999D01*
X73219334Y-110084814D01*
X73368655Y-109992711D01*
X73492711Y-109868655D01*
X73584814Y-109719334D01*
X73639999Y-109552797D01*
X73650500Y-109450008D01*
X73650500Y-107049992D01*
X73639999Y-106947203D01*
X73584814Y-106780666D01*
X73492711Y-106631345D01*
X73368655Y-106507289D01*
X73368651Y-106507286D01*
X73219337Y-106415187D01*
X73219335Y-106415186D01*
X73104878Y-106377259D01*
X73052797Y-106360001D01*
X73052795Y-106360000D01*
X72950015Y-106349500D01*
X72950008Y-106349500D01*
X70549992Y-106349500D01*
X70549984Y-106349500D01*
X70447204Y-106360000D01*
X70447203Y-106360001D01*
X70280664Y-106415186D01*
X70280662Y-106415187D01*
X70131348Y-106507286D01*
X70131344Y-106507289D01*
X70007289Y-106631344D01*
X70007286Y-106631348D01*
X69915187Y-106780662D01*
X69915186Y-106780664D01*
X69860001Y-106947203D01*
X69860000Y-106947204D01*
X69849500Y-107049984D01*
X63500000Y-107049984D01*
X63500000Y-104147648D01*
X104949500Y-104147648D01*
X104949500Y-104352351D01*
X104981522Y-104554534D01*
X105044781Y-104749223D01*
X105137715Y-104931613D01*
X105258028Y-105097213D01*
X105402786Y-105241971D01*
X105568385Y-105362284D01*
X105568387Y-105362285D01*
X105568390Y-105362287D01*
X105622378Y-105389795D01*
X105673174Y-105437769D01*
X105689969Y-105505590D01*
X105667432Y-105571725D01*
X105622378Y-105610765D01*
X105568644Y-105638143D01*
X105524077Y-105670523D01*
X105524077Y-105670524D01*
X106203554Y-106350000D01*
X106197339Y-106350000D01*
X106095606Y-106377259D01*
X106004394Y-106429920D01*
X105929920Y-106504394D01*
X105877259Y-106595606D01*
X105850000Y-106697339D01*
X105850000Y-106703553D01*
X105170524Y-106024077D01*
X105170523Y-106024077D01*
X105138143Y-106068644D01*
X105045244Y-106250968D01*
X104982009Y-106445582D01*
X104950000Y-106647682D01*
X104950000Y-106852317D01*
X104982009Y-107054417D01*
X105045244Y-107249031D01*
X105138141Y-107431350D01*
X105138147Y-107431359D01*
X105170523Y-107475921D01*
X105170524Y-107475922D01*
X105850000Y-106796446D01*
X105850000Y-106802661D01*
X105877259Y-106904394D01*
X105929920Y-106995606D01*
X106004394Y-107070080D01*
X106095606Y-107122741D01*
X106197339Y-107150000D01*
X106203553Y-107150000D01*
X105524076Y-107829474D01*
X105568650Y-107861859D01*
X105750968Y-107954755D01*
X105945582Y-108017990D01*
X106147683Y-108050000D01*
X106352317Y-108050000D01*
X106554417Y-108017990D01*
X106749031Y-107954755D01*
X106931349Y-107861859D01*
X106975921Y-107829474D01*
X106296447Y-107150000D01*
X106302661Y-107150000D01*
X106404394Y-107122741D01*
X106495606Y-107070080D01*
X106570080Y-106995606D01*
X106622741Y-106904394D01*
X106650000Y-106802661D01*
X106650000Y-106796447D01*
X107329474Y-107475921D01*
X107361859Y-107431349D01*
X107454755Y-107249031D01*
X107517990Y-107054417D01*
X107550000Y-106852317D01*
X107550000Y-106647682D01*
X107517990Y-106445582D01*
X107454755Y-106250968D01*
X107361859Y-106068650D01*
X107329474Y-106024077D01*
X107329474Y-106024076D01*
X106650000Y-106703551D01*
X106650000Y-106697339D01*
X106622741Y-106595606D01*
X106570080Y-106504394D01*
X106495606Y-106429920D01*
X106404394Y-106377259D01*
X106302661Y-106350000D01*
X106296446Y-106350000D01*
X106975922Y-105670524D01*
X106975921Y-105670523D01*
X106931359Y-105638147D01*
X106931350Y-105638141D01*
X106877621Y-105610765D01*
X106826825Y-105562791D01*
X106810030Y-105494970D01*
X106832567Y-105428835D01*
X106877621Y-105389795D01*
X106931610Y-105362287D01*
X107067287Y-105263713D01*
X107097213Y-105241971D01*
X107097215Y-105241968D01*
X107097219Y-105241966D01*
X107241966Y-105097219D01*
X107241968Y-105097215D01*
X107241971Y-105097213D01*
X107332687Y-104972351D01*
X107362287Y-104931610D01*
X107455220Y-104749219D01*
X107518477Y-104554534D01*
X107550500Y-104352352D01*
X107550500Y-104147648D01*
X107531593Y-104028274D01*
X107518477Y-103945465D01*
X107455218Y-103750776D01*
X107381099Y-103605311D01*
X107362287Y-103568390D01*
X107338188Y-103535220D01*
X107241971Y-103402786D01*
X107097213Y-103258028D01*
X106931613Y-103137715D01*
X106931612Y-103137714D01*
X106931610Y-103137713D01*
X106874653Y-103108691D01*
X106749223Y-103044781D01*
X106554534Y-102981522D01*
X106379995Y-102953878D01*
X106352352Y-102949500D01*
X106147648Y-102949500D01*
X106123329Y-102953351D01*
X105945465Y-102981522D01*
X105750776Y-103044781D01*
X105568386Y-103137715D01*
X105402786Y-103258028D01*
X105258028Y-103402786D01*
X105137715Y-103568386D01*
X105044781Y-103750776D01*
X104981522Y-103945465D01*
X104949500Y-104147648D01*
X63500000Y-104147648D01*
X63500000Y-99727648D01*
X104949500Y-99727648D01*
X104949500Y-99932351D01*
X104981522Y-100134534D01*
X105044781Y-100329223D01*
X105097941Y-100433553D01*
X105117333Y-100471613D01*
X105137715Y-100511613D01*
X105258028Y-100677213D01*
X105402786Y-100821971D01*
X105513334Y-100902287D01*
X105568390Y-100942287D01*
X105684607Y-101001503D01*
X105750776Y-101035218D01*
X105750778Y-101035218D01*
X105750781Y-101035220D01*
X105843392Y-101065311D01*
X105945465Y-101098477D01*
X106046557Y-101114488D01*
X106147648Y-101130500D01*
X106147649Y-101130500D01*
X106352351Y-101130500D01*
X106352352Y-101130500D01*
X106554534Y-101098477D01*
X106749219Y-101035220D01*
X106931610Y-100942287D01*
X107024590Y-100874732D01*
X107097213Y-100821971D01*
X107097215Y-100821968D01*
X107097219Y-100821966D01*
X107241966Y-100677219D01*
X107241968Y-100677215D01*
X107241971Y-100677213D01*
X107313303Y-100579031D01*
X107362287Y-100511610D01*
X107455220Y-100329219D01*
X107518477Y-100134534D01*
X107550500Y-99932352D01*
X107550500Y-99727648D01*
X107542953Y-99680000D01*
X107518477Y-99525465D01*
X107455218Y-99330776D01*
X107419099Y-99259890D01*
X107362287Y-99148390D01*
X107333226Y-99108390D01*
X107241971Y-98982786D01*
X107097213Y-98838028D01*
X106931613Y-98717715D01*
X106931612Y-98717714D01*
X106931610Y-98717713D01*
X106853106Y-98677713D01*
X106749223Y-98624781D01*
X106554534Y-98561522D01*
X106379995Y-98533878D01*
X106352352Y-98529500D01*
X106147648Y-98529500D01*
X106123329Y-98533351D01*
X105945465Y-98561522D01*
X105750776Y-98624781D01*
X105568386Y-98717715D01*
X105402786Y-98838028D01*
X105258028Y-98982786D01*
X105137715Y-99148386D01*
X105044781Y-99330776D01*
X104981522Y-99525465D01*
X104949500Y-99727648D01*
X63500000Y-99727648D01*
X63500000Y-94109983D01*
X116329500Y-94109983D01*
X116329500Y-95310001D01*
X116329501Y-95310018D01*
X116340000Y-95412796D01*
X116340001Y-95412799D01*
X116387856Y-95557213D01*
X116395186Y-95579334D01*
X116487288Y-95728656D01*
X116611344Y-95852712D01*
X116760666Y-95944814D01*
X116842570Y-95971954D01*
X116900015Y-96011727D01*
X116926838Y-96076243D01*
X116914523Y-96145018D01*
X116876451Y-96189978D01*
X116782787Y-96258028D01*
X116782782Y-96258032D01*
X116638028Y-96402786D01*
X116517715Y-96568386D01*
X116424781Y-96750776D01*
X116361522Y-96945465D01*
X116329500Y-97147648D01*
X116329500Y-97352351D01*
X116361522Y-97554534D01*
X116424781Y-97749223D01*
X116517715Y-97931613D01*
X116638028Y-98097213D01*
X116782786Y-98241971D01*
X116937749Y-98354556D01*
X116948390Y-98362287D01*
X117039840Y-98408883D01*
X117041080Y-98409515D01*
X117091876Y-98457490D01*
X117108671Y-98525311D01*
X117086134Y-98591446D01*
X117041080Y-98630485D01*
X116948386Y-98677715D01*
X116782786Y-98798028D01*
X116638028Y-98942786D01*
X116517715Y-99108386D01*
X116424781Y-99290776D01*
X116361522Y-99485465D01*
X116329500Y-99687648D01*
X116329500Y-99892351D01*
X116361522Y-100094534D01*
X116424781Y-100289223D01*
X116517715Y-100471613D01*
X116638028Y-100637213D01*
X116782786Y-100781971D01*
X116937749Y-100894556D01*
X116948390Y-100902287D01*
X117039840Y-100948883D01*
X117041080Y-100949515D01*
X117091876Y-100997490D01*
X117108671Y-101065311D01*
X117086134Y-101131446D01*
X117041080Y-101170485D01*
X116948386Y-101217715D01*
X116782786Y-101338028D01*
X116638028Y-101482786D01*
X116517715Y-101648386D01*
X116424781Y-101830776D01*
X116361522Y-102025465D01*
X116329500Y-102227648D01*
X116329500Y-102432351D01*
X116361522Y-102634534D01*
X116424781Y-102829223D01*
X116458718Y-102895826D01*
X116517585Y-103011359D01*
X116517715Y-103011613D01*
X116638028Y-103177213D01*
X116782786Y-103321971D01*
X116894014Y-103402781D01*
X116948390Y-103442287D01*
X117039840Y-103488883D01*
X117041080Y-103489515D01*
X117091876Y-103537490D01*
X117108671Y-103605311D01*
X117086134Y-103671446D01*
X117041080Y-103710485D01*
X116948386Y-103757715D01*
X116782786Y-103878028D01*
X116638028Y-104022786D01*
X116517715Y-104188386D01*
X116424781Y-104370776D01*
X116361522Y-104565465D01*
X116329500Y-104767648D01*
X116329500Y-104972351D01*
X116361522Y-105174534D01*
X116424781Y-105369223D01*
X116479333Y-105476286D01*
X116517147Y-105550500D01*
X116517715Y-105551613D01*
X116638028Y-105717213D01*
X116782786Y-105861971D01*
X116937749Y-105974556D01*
X116948390Y-105982287D01*
X117039840Y-106028883D01*
X117041080Y-106029515D01*
X117091876Y-106077490D01*
X117108671Y-106145311D01*
X117086134Y-106211446D01*
X117041080Y-106250485D01*
X116948386Y-106297715D01*
X116782786Y-106418028D01*
X116638028Y-106562786D01*
X116517715Y-106728386D01*
X116424781Y-106910776D01*
X116361522Y-107105465D01*
X116329500Y-107307648D01*
X116329500Y-107512351D01*
X116361522Y-107714534D01*
X116424781Y-107909223D01*
X116517715Y-108091613D01*
X116638028Y-108257213D01*
X116782786Y-108401971D01*
X116937749Y-108514556D01*
X116948390Y-108522287D01*
X117039840Y-108568883D01*
X117041080Y-108569515D01*
X117091876Y-108617490D01*
X117108671Y-108685311D01*
X117086134Y-108751446D01*
X117041080Y-108790485D01*
X116948386Y-108837715D01*
X116782786Y-108958028D01*
X116638028Y-109102786D01*
X116517715Y-109268386D01*
X116424781Y-109450776D01*
X116361522Y-109645465D01*
X116329500Y-109847648D01*
X116329500Y-110052351D01*
X116361522Y-110254534D01*
X116424781Y-110449223D01*
X116517715Y-110631613D01*
X116638028Y-110797213D01*
X116782786Y-110941971D01*
X116937749Y-111054556D01*
X116948390Y-111062287D01*
X117064607Y-111121503D01*
X117130776Y-111155218D01*
X117130778Y-111155218D01*
X117130781Y-111155220D01*
X117235137Y-111189127D01*
X117325465Y-111218477D01*
X117426557Y-111234488D01*
X117527648Y-111250500D01*
X117527649Y-111250500D01*
X117732351Y-111250500D01*
X117732352Y-111250500D01*
X117934534Y-111218477D01*
X118129219Y-111155220D01*
X118311610Y-111062287D01*
X118404590Y-110994732D01*
X118477213Y-110941971D01*
X118477215Y-110941968D01*
X118477219Y-110941966D01*
X118621966Y-110797219D01*
X118621968Y-110797215D01*
X118621971Y-110797213D01*
X118674732Y-110724590D01*
X118742287Y-110631610D01*
X118835220Y-110449219D01*
X118898477Y-110254534D01*
X118930500Y-110052352D01*
X118930500Y-109847648D01*
X118898477Y-109645466D01*
X118835220Y-109450781D01*
X118835218Y-109450778D01*
X118835218Y-109450776D01*
X118801503Y-109384607D01*
X118742287Y-109268390D01*
X118681928Y-109185312D01*
X118621971Y-109102786D01*
X118477213Y-108958028D01*
X118311614Y-108837715D01*
X118305006Y-108834348D01*
X118218917Y-108790483D01*
X118168123Y-108742511D01*
X118151328Y-108674690D01*
X118173865Y-108608555D01*
X118218917Y-108569516D01*
X118311610Y-108522287D01*
X118332770Y-108506913D01*
X118477213Y-108401971D01*
X118477215Y-108401968D01*
X118477219Y-108401966D01*
X118621966Y-108257219D01*
X118621968Y-108257215D01*
X118621971Y-108257213D01*
X118674732Y-108184590D01*
X118742287Y-108091610D01*
X118835220Y-107909219D01*
X118898477Y-107714534D01*
X118930500Y-107512352D01*
X118930500Y-107307648D01*
X118898477Y-107105466D01*
X118897855Y-107103553D01*
X118862781Y-106995606D01*
X118835220Y-106910781D01*
X118835218Y-106910778D01*
X118835218Y-106910776D01*
X118780130Y-106802661D01*
X118742287Y-106728390D01*
X118681928Y-106645312D01*
X118621971Y-106562786D01*
X118477213Y-106418028D01*
X118311614Y-106297715D01*
X118305006Y-106294348D01*
X118218917Y-106250483D01*
X118168123Y-106202511D01*
X118151328Y-106134690D01*
X118173865Y-106068555D01*
X118218917Y-106029516D01*
X118311610Y-105982287D01*
X118332770Y-105966913D01*
X118477213Y-105861971D01*
X118477215Y-105861968D01*
X118477219Y-105861966D01*
X118621966Y-105717219D01*
X118621968Y-105717215D01*
X118621971Y-105717213D01*
X118679419Y-105638141D01*
X118742287Y-105551610D01*
X118835220Y-105369219D01*
X118898477Y-105174534D01*
X118930500Y-104972352D01*
X118930500Y-104767648D01*
X118898477Y-104565466D01*
X118835220Y-104370781D01*
X118835218Y-104370778D01*
X118835218Y-104370776D01*
X118801503Y-104304607D01*
X118742287Y-104188390D01*
X118723281Y-104162230D01*
X118621971Y-104022786D01*
X118477213Y-103878028D01*
X118311614Y-103757715D01*
X118297995Y-103750776D01*
X118218917Y-103710483D01*
X118168123Y-103662511D01*
X118151328Y-103594690D01*
X118173865Y-103528555D01*
X118218917Y-103489516D01*
X118311610Y-103442287D01*
X118365986Y-103402781D01*
X118477213Y-103321971D01*
X118477215Y-103321968D01*
X118477219Y-103321966D01*
X118621966Y-103177219D01*
X118621968Y-103177215D01*
X118621971Y-103177213D01*
X118674732Y-103104590D01*
X118742287Y-103011610D01*
X118835220Y-102829219D01*
X118898477Y-102634534D01*
X118930500Y-102432352D01*
X118930500Y-102227648D01*
X118913795Y-102122179D01*
X118898477Y-102025465D01*
X118867458Y-101930000D01*
X118835220Y-101830781D01*
X118835218Y-101830778D01*
X118835218Y-101830776D01*
X118776087Y-101714727D01*
X118742287Y-101648390D01*
X118723486Y-101622512D01*
X118621971Y-101482786D01*
X118477213Y-101338028D01*
X118311614Y-101217715D01*
X118305006Y-101214348D01*
X118218917Y-101170483D01*
X118168123Y-101122511D01*
X118151328Y-101054690D01*
X118173865Y-100988555D01*
X118218917Y-100949516D01*
X118311610Y-100902287D01*
X118332770Y-100886913D01*
X118477213Y-100781971D01*
X118477215Y-100781968D01*
X118477219Y-100781966D01*
X118621966Y-100637219D01*
X118621968Y-100637215D01*
X118621971Y-100637213D01*
X118713223Y-100511613D01*
X118742287Y-100471610D01*
X118835220Y-100289219D01*
X118898477Y-100094534D01*
X118930500Y-99892352D01*
X118930500Y-99687648D01*
X118913603Y-99580968D01*
X118898477Y-99485465D01*
X118835218Y-99290776D01*
X118801503Y-99224607D01*
X118742287Y-99108390D01*
X118681928Y-99025312D01*
X118621971Y-98942786D01*
X118477213Y-98798028D01*
X118311614Y-98677715D01*
X118305006Y-98674348D01*
X118218917Y-98630483D01*
X118168123Y-98582511D01*
X118151328Y-98514690D01*
X118173865Y-98448555D01*
X118218917Y-98409516D01*
X118311610Y-98362287D01*
X118332770Y-98346913D01*
X118477213Y-98241971D01*
X118477215Y-98241968D01*
X118477219Y-98241966D01*
X118621966Y-98097219D01*
X118621968Y-98097215D01*
X118621971Y-98097213D01*
X118674732Y-98024590D01*
X118742287Y-97931610D01*
X118835220Y-97749219D01*
X118898477Y-97554534D01*
X118930500Y-97352352D01*
X118930500Y-97147648D01*
X118898477Y-96945466D01*
X118835220Y-96750781D01*
X118835218Y-96750778D01*
X118835218Y-96750776D01*
X118793301Y-96668510D01*
X118742287Y-96568390D01*
X118681928Y-96485312D01*
X118621971Y-96402786D01*
X118477219Y-96258034D01*
X118452540Y-96240104D01*
X118383547Y-96189978D01*
X118340882Y-96134649D01*
X118334903Y-96065036D01*
X118367508Y-96003240D01*
X118417426Y-95971955D01*
X118499334Y-95944814D01*
X118648656Y-95852712D01*
X118772712Y-95728656D01*
X118864814Y-95579334D01*
X118919999Y-95412797D01*
X118930500Y-95310009D01*
X118930499Y-94607648D01*
X123949500Y-94607648D01*
X123949500Y-94812351D01*
X123981522Y-95014534D01*
X124044781Y-95209223D01*
X124137715Y-95391613D01*
X124258028Y-95557213D01*
X124402786Y-95701971D01*
X124557749Y-95814556D01*
X124568390Y-95822287D01*
X124659840Y-95868883D01*
X124661080Y-95869515D01*
X124711876Y-95917490D01*
X124728671Y-95985311D01*
X124706134Y-96051446D01*
X124661080Y-96090485D01*
X124568386Y-96137715D01*
X124402786Y-96258028D01*
X124258028Y-96402786D01*
X124137715Y-96568386D01*
X124044781Y-96750776D01*
X123981522Y-96945465D01*
X123949500Y-97147648D01*
X123949500Y-97352351D01*
X123981522Y-97554534D01*
X124044781Y-97749223D01*
X124137715Y-97931613D01*
X124258028Y-98097213D01*
X124402786Y-98241971D01*
X124557749Y-98354556D01*
X124568390Y-98362287D01*
X124659840Y-98408883D01*
X124661080Y-98409515D01*
X124711876Y-98457490D01*
X124728671Y-98525311D01*
X124706134Y-98591446D01*
X124661080Y-98630485D01*
X124568386Y-98677715D01*
X124402786Y-98798028D01*
X124258028Y-98942786D01*
X124137715Y-99108386D01*
X124044781Y-99290776D01*
X123981522Y-99485465D01*
X123949500Y-99687648D01*
X123949500Y-99892351D01*
X123981522Y-100094534D01*
X124044781Y-100289223D01*
X124137715Y-100471613D01*
X124258028Y-100637213D01*
X124402786Y-100781971D01*
X124568385Y-100902284D01*
X124568387Y-100902285D01*
X124568390Y-100902287D01*
X124661080Y-100949515D01*
X124661630Y-100949795D01*
X124712426Y-100997770D01*
X124729221Y-101065591D01*
X124706684Y-101131725D01*
X124661630Y-101170765D01*
X124568644Y-101218143D01*
X124524077Y-101250523D01*
X124524077Y-101250524D01*
X125203554Y-101930000D01*
X125197339Y-101930000D01*
X125095606Y-101957259D01*
X125004394Y-102009920D01*
X124929920Y-102084394D01*
X124877259Y-102175606D01*
X124850000Y-102277339D01*
X124850000Y-102283553D01*
X124170524Y-101604077D01*
X124170523Y-101604077D01*
X124138143Y-101648644D01*
X124045244Y-101830968D01*
X123982009Y-102025582D01*
X123950000Y-102227682D01*
X123950000Y-102432317D01*
X123982009Y-102634417D01*
X124045244Y-102829031D01*
X124138141Y-103011350D01*
X124138147Y-103011359D01*
X124170523Y-103055921D01*
X124170524Y-103055922D01*
X124850000Y-102376446D01*
X124850000Y-102382661D01*
X124877259Y-102484394D01*
X124929920Y-102575606D01*
X125004394Y-102650080D01*
X125095606Y-102702741D01*
X125197339Y-102730000D01*
X125203553Y-102730000D01*
X124524076Y-103409474D01*
X124568652Y-103441861D01*
X124661628Y-103489234D01*
X124712425Y-103537208D01*
X124729220Y-103605029D01*
X124706683Y-103671164D01*
X124661630Y-103710203D01*
X124568388Y-103757713D01*
X124402786Y-103878028D01*
X124258028Y-104022786D01*
X124137715Y-104188386D01*
X124044781Y-104370776D01*
X123981522Y-104565465D01*
X123949500Y-104767648D01*
X123949500Y-104972351D01*
X123981522Y-105174534D01*
X124044781Y-105369223D01*
X124099333Y-105476286D01*
X124137147Y-105550500D01*
X124137715Y-105551613D01*
X124258028Y-105717213D01*
X124402786Y-105861971D01*
X124557749Y-105974556D01*
X124568390Y-105982287D01*
X124659840Y-106028883D01*
X124661080Y-106029515D01*
X124711876Y-106077490D01*
X124728671Y-106145311D01*
X124706134Y-106211446D01*
X124661080Y-106250485D01*
X124568386Y-106297715D01*
X124402786Y-106418028D01*
X124258028Y-106562786D01*
X124137715Y-106728386D01*
X124044781Y-106910776D01*
X123981522Y-107105465D01*
X123949500Y-107307648D01*
X123949500Y-107512351D01*
X123981522Y-107714534D01*
X124044781Y-107909223D01*
X124137715Y-108091613D01*
X124258028Y-108257213D01*
X124402786Y-108401971D01*
X124557749Y-108514556D01*
X124568390Y-108522287D01*
X124659840Y-108568883D01*
X124661080Y-108569515D01*
X124711876Y-108617490D01*
X124728671Y-108685311D01*
X124706134Y-108751446D01*
X124661080Y-108790485D01*
X124568386Y-108837715D01*
X124402786Y-108958028D01*
X124258028Y-109102786D01*
X124137715Y-109268386D01*
X124044781Y-109450776D01*
X123981522Y-109645465D01*
X123949500Y-109847648D01*
X123949500Y-110052351D01*
X123981522Y-110254534D01*
X124044781Y-110449223D01*
X124137715Y-110631613D01*
X124258028Y-110797213D01*
X124402786Y-110941971D01*
X124557749Y-111054556D01*
X124568390Y-111062287D01*
X124684607Y-111121503D01*
X124750776Y-111155218D01*
X124750778Y-111155218D01*
X124750781Y-111155220D01*
X124855137Y-111189127D01*
X124945465Y-111218477D01*
X125046557Y-111234488D01*
X125147648Y-111250500D01*
X125147649Y-111250500D01*
X125352351Y-111250500D01*
X125352352Y-111250500D01*
X125554534Y-111218477D01*
X125749219Y-111155220D01*
X125931610Y-111062287D01*
X126024590Y-110994732D01*
X126097213Y-110941971D01*
X126097215Y-110941968D01*
X126097219Y-110941966D01*
X126241966Y-110797219D01*
X126241968Y-110797215D01*
X126241971Y-110797213D01*
X126294732Y-110724590D01*
X126362287Y-110631610D01*
X126455220Y-110449219D01*
X126518477Y-110254534D01*
X126550500Y-110052352D01*
X126550500Y-109847648D01*
X126518477Y-109645466D01*
X126455220Y-109450781D01*
X126455218Y-109450778D01*
X126455218Y-109450776D01*
X126421503Y-109384607D01*
X126362287Y-109268390D01*
X126301928Y-109185312D01*
X126241971Y-109102786D01*
X126097213Y-108958028D01*
X125931614Y-108837715D01*
X125925006Y-108834348D01*
X125838917Y-108790483D01*
X125788123Y-108742511D01*
X125771328Y-108674690D01*
X125793865Y-108608555D01*
X125838917Y-108569516D01*
X125931610Y-108522287D01*
X125952770Y-108506913D01*
X126097213Y-108401971D01*
X126097215Y-108401968D01*
X126097219Y-108401966D01*
X126241966Y-108257219D01*
X126241968Y-108257215D01*
X126241971Y-108257213D01*
X126294732Y-108184590D01*
X126362287Y-108091610D01*
X126455220Y-107909219D01*
X126518477Y-107714534D01*
X126550500Y-107512352D01*
X126550500Y-107307648D01*
X126518477Y-107105466D01*
X126517855Y-107103553D01*
X126482781Y-106995606D01*
X126455220Y-106910781D01*
X126455218Y-106910778D01*
X126455218Y-106910776D01*
X126400130Y-106802661D01*
X126362287Y-106728390D01*
X126301928Y-106645312D01*
X126241971Y-106562786D01*
X126097213Y-106418028D01*
X125931614Y-106297715D01*
X125925006Y-106294348D01*
X125838917Y-106250483D01*
X125788123Y-106202511D01*
X125771328Y-106134690D01*
X125793865Y-106068555D01*
X125838917Y-106029516D01*
X125931610Y-105982287D01*
X125952770Y-105966913D01*
X126097213Y-105861971D01*
X126097215Y-105861968D01*
X126097219Y-105861966D01*
X126241966Y-105717219D01*
X126241968Y-105717215D01*
X126241971Y-105717213D01*
X126299419Y-105638141D01*
X126362287Y-105551610D01*
X126455220Y-105369219D01*
X126489501Y-105263713D01*
X126503535Y-105220522D01*
X126503535Y-105220521D01*
X126518476Y-105174538D01*
X126518476Y-105174537D01*
X126518477Y-105174534D01*
X126550500Y-104972352D01*
X126550500Y-104767648D01*
X126518477Y-104565466D01*
X126455220Y-104370781D01*
X126455218Y-104370778D01*
X126455218Y-104370776D01*
X126421503Y-104304607D01*
X126362287Y-104188390D01*
X126343281Y-104162230D01*
X126241971Y-104022786D01*
X126097213Y-103878028D01*
X125931611Y-103757713D01*
X125838369Y-103710203D01*
X125787574Y-103662229D01*
X125770779Y-103594407D01*
X125793317Y-103528273D01*
X125838371Y-103489234D01*
X125931346Y-103441861D01*
X125931347Y-103441861D01*
X125975921Y-103409474D01*
X125296447Y-102730000D01*
X125302661Y-102730000D01*
X125404394Y-102702741D01*
X125495606Y-102650080D01*
X125570080Y-102575606D01*
X125622741Y-102484394D01*
X125650000Y-102382661D01*
X125650000Y-102376447D01*
X126329474Y-103055921D01*
X126361859Y-103011349D01*
X126454755Y-102829031D01*
X126502997Y-102680562D01*
X126502997Y-102680561D01*
X126517989Y-102634421D01*
X126517989Y-102634418D01*
X126550000Y-102432317D01*
X126550000Y-102227682D01*
X126517990Y-102025582D01*
X126454755Y-101830968D01*
X126361859Y-101648650D01*
X126329474Y-101604077D01*
X126329474Y-101604076D01*
X125650000Y-102283551D01*
X125650000Y-102277339D01*
X125622741Y-102175606D01*
X125570080Y-102084394D01*
X125495606Y-102009920D01*
X125404394Y-101957259D01*
X125302661Y-101930000D01*
X125296446Y-101930000D01*
X125975922Y-101250524D01*
X125975921Y-101250523D01*
X125933064Y-101219385D01*
X125838027Y-101170590D01*
X125812849Y-101146662D01*
X125787573Y-101122790D01*
X125787524Y-101122595D01*
X125787380Y-101122458D01*
X125779127Y-101088683D01*
X125770778Y-101054969D01*
X125770842Y-101054780D01*
X125770795Y-101054586D01*
X125782092Y-101021767D01*
X125793315Y-100988835D01*
X125793477Y-100988694D01*
X125793537Y-100988521D01*
X125795108Y-100987280D01*
X125838370Y-100949795D01*
X125838920Y-100949515D01*
X125931610Y-100902287D01*
X125981144Y-100866298D01*
X126097213Y-100781971D01*
X126097215Y-100781968D01*
X126097219Y-100781966D01*
X126241966Y-100637219D01*
X126241968Y-100637215D01*
X126241971Y-100637213D01*
X126333223Y-100511613D01*
X126362287Y-100471610D01*
X126455220Y-100289219D01*
X126518477Y-100094534D01*
X126536985Y-99977682D01*
X145200000Y-99977682D01*
X145200000Y-100182317D01*
X145232009Y-100384417D01*
X145295244Y-100579031D01*
X145388141Y-100761350D01*
X145388147Y-100761359D01*
X145420523Y-100805921D01*
X145420524Y-100805922D01*
X146100000Y-100126446D01*
X146100000Y-100132661D01*
X146127259Y-100234394D01*
X146179920Y-100325606D01*
X146254394Y-100400080D01*
X146345606Y-100452741D01*
X146447339Y-100480000D01*
X146453553Y-100480000D01*
X145774076Y-101159474D01*
X145818650Y-101191859D01*
X146000968Y-101284755D01*
X146195582Y-101347990D01*
X146397683Y-101380000D01*
X146602317Y-101380000D01*
X146804417Y-101347990D01*
X146999031Y-101284755D01*
X147181349Y-101191859D01*
X147225921Y-101159474D01*
X146546447Y-100480000D01*
X146552661Y-100480000D01*
X146654394Y-100452741D01*
X146745606Y-100400080D01*
X146820080Y-100325606D01*
X146872741Y-100234394D01*
X146900000Y-100132661D01*
X146900000Y-100126448D01*
X147579474Y-100805922D01*
X147579474Y-100805921D01*
X147611859Y-100761349D01*
X147704755Y-100579031D01*
X147767990Y-100384417D01*
X147800000Y-100182317D01*
X147800000Y-99977682D01*
X147767990Y-99775582D01*
X147704755Y-99580968D01*
X147611859Y-99398650D01*
X147579474Y-99354077D01*
X147579474Y-99354076D01*
X146900000Y-100033551D01*
X146900000Y-100027339D01*
X146872741Y-99925606D01*
X146820080Y-99834394D01*
X146745606Y-99759920D01*
X146654394Y-99707259D01*
X146552661Y-99680000D01*
X146546446Y-99680000D01*
X147225922Y-99000524D01*
X147225921Y-99000523D01*
X147181359Y-98968147D01*
X147181350Y-98968141D01*
X146999031Y-98875244D01*
X146804417Y-98812009D01*
X146602317Y-98780000D01*
X146397683Y-98780000D01*
X146195582Y-98812009D01*
X146000968Y-98875244D01*
X145818644Y-98968143D01*
X145774077Y-99000523D01*
X145774077Y-99000524D01*
X146453554Y-99680000D01*
X146447339Y-99680000D01*
X146345606Y-99707259D01*
X146254394Y-99759920D01*
X146179920Y-99834394D01*
X146127259Y-99925606D01*
X146100000Y-100027339D01*
X146100000Y-100033553D01*
X145420524Y-99354077D01*
X145420523Y-99354077D01*
X145388143Y-99398644D01*
X145295244Y-99580968D01*
X145232009Y-99775582D01*
X145200000Y-99977682D01*
X126536985Y-99977682D01*
X126550500Y-99892352D01*
X126550500Y-99687648D01*
X126533603Y-99580968D01*
X126518477Y-99485465D01*
X126455218Y-99290776D01*
X126382666Y-99148386D01*
X126362287Y-99108390D01*
X126362284Y-99108386D01*
X126241971Y-98942786D01*
X126097213Y-98798028D01*
X125931614Y-98677715D01*
X125925006Y-98674348D01*
X125838917Y-98630483D01*
X125788123Y-98582511D01*
X125771328Y-98514690D01*
X125793865Y-98448555D01*
X125838917Y-98409516D01*
X125931610Y-98362287D01*
X125952770Y-98346913D01*
X126097213Y-98241971D01*
X126097215Y-98241968D01*
X126097219Y-98241966D01*
X126241966Y-98097219D01*
X126241968Y-98097215D01*
X126241971Y-98097213D01*
X126294732Y-98024590D01*
X126362287Y-97931610D01*
X126455220Y-97749219D01*
X126518477Y-97554534D01*
X126550500Y-97352352D01*
X126550500Y-97147648D01*
X126518477Y-96945466D01*
X126455220Y-96750781D01*
X126455218Y-96750778D01*
X126455218Y-96750776D01*
X126413301Y-96668510D01*
X126403349Y-96648979D01*
X126362287Y-96568390D01*
X126301928Y-96485312D01*
X126241971Y-96402786D01*
X126097213Y-96258028D01*
X125931614Y-96137715D01*
X125925006Y-96134348D01*
X125838917Y-96090483D01*
X125788123Y-96042511D01*
X125771328Y-95974690D01*
X125793865Y-95908555D01*
X125838917Y-95869516D01*
X125931610Y-95822287D01*
X125952770Y-95806913D01*
X126097213Y-95701971D01*
X126097215Y-95701968D01*
X126097219Y-95701966D01*
X126241966Y-95557219D01*
X126299753Y-95477682D01*
X131200000Y-95477682D01*
X131200000Y-95682317D01*
X131232009Y-95884417D01*
X131295244Y-96079031D01*
X131388141Y-96261350D01*
X131388147Y-96261359D01*
X131420523Y-96305921D01*
X131420524Y-96305922D01*
X132100000Y-95626446D01*
X132100000Y-95632661D01*
X132127259Y-95734394D01*
X132179920Y-95825606D01*
X132254394Y-95900080D01*
X132345606Y-95952741D01*
X132447339Y-95980000D01*
X132453553Y-95980000D01*
X131774076Y-96659474D01*
X131818650Y-96691859D01*
X132000968Y-96784755D01*
X132195582Y-96847990D01*
X132397683Y-96880000D01*
X132602317Y-96880000D01*
X132804417Y-96847990D01*
X132999031Y-96784755D01*
X133181349Y-96691859D01*
X133225921Y-96659474D01*
X132546447Y-95980000D01*
X132552661Y-95980000D01*
X132654394Y-95952741D01*
X132745606Y-95900080D01*
X132820080Y-95825606D01*
X132872741Y-95734394D01*
X132900000Y-95632661D01*
X132900000Y-95626447D01*
X133579474Y-96305921D01*
X133611859Y-96261349D01*
X133704755Y-96079031D01*
X133767990Y-95884417D01*
X133800000Y-95682317D01*
X133800000Y-95477682D01*
X133767990Y-95275582D01*
X133704755Y-95080968D01*
X133611859Y-94898650D01*
X133579474Y-94854077D01*
X133579474Y-94854076D01*
X132900000Y-95533551D01*
X132900000Y-95527339D01*
X132872741Y-95425606D01*
X132820080Y-95334394D01*
X132745606Y-95259920D01*
X132654394Y-95207259D01*
X132552661Y-95180000D01*
X132546446Y-95180000D01*
X133225922Y-94500524D01*
X133225921Y-94500523D01*
X133181359Y-94468147D01*
X133181350Y-94468141D01*
X132999031Y-94375244D01*
X132804417Y-94312009D01*
X132602317Y-94280000D01*
X132397683Y-94280000D01*
X132195582Y-94312009D01*
X132000968Y-94375244D01*
X131818644Y-94468143D01*
X131774077Y-94500523D01*
X131774077Y-94500524D01*
X132453554Y-95180000D01*
X132447339Y-95180000D01*
X132345606Y-95207259D01*
X132254394Y-95259920D01*
X132179920Y-95334394D01*
X132127259Y-95425606D01*
X132100000Y-95527339D01*
X132100000Y-95533553D01*
X131420524Y-94854077D01*
X131420523Y-94854077D01*
X131388143Y-94898644D01*
X131295244Y-95080968D01*
X131232009Y-95275582D01*
X131200000Y-95477682D01*
X126299753Y-95477682D01*
X126362287Y-95391610D01*
X126455220Y-95209219D01*
X126518477Y-95014534D01*
X126550500Y-94812352D01*
X126550500Y-94607648D01*
X126518477Y-94405466D01*
X126455220Y-94210781D01*
X126455218Y-94210778D01*
X126455218Y-94210776D01*
X126403865Y-94109991D01*
X126362287Y-94028390D01*
X126301928Y-93945312D01*
X126241971Y-93862786D01*
X126097213Y-93718028D01*
X125931613Y-93597715D01*
X125931612Y-93597714D01*
X125931610Y-93597713D01*
X125837560Y-93549792D01*
X125749223Y-93504781D01*
X125554534Y-93441522D01*
X125379995Y-93413878D01*
X125352352Y-93409500D01*
X125147648Y-93409500D01*
X125123329Y-93413351D01*
X124945465Y-93441522D01*
X124750776Y-93504781D01*
X124568386Y-93597715D01*
X124402786Y-93718028D01*
X124258028Y-93862786D01*
X124137715Y-94028386D01*
X124044781Y-94210776D01*
X123981522Y-94405465D01*
X123949500Y-94607648D01*
X118930499Y-94607648D01*
X118930499Y-94109992D01*
X118919999Y-94007203D01*
X118864814Y-93840666D01*
X118772712Y-93691344D01*
X118648656Y-93567288D01*
X118499334Y-93475186D01*
X118332797Y-93420001D01*
X118332795Y-93420000D01*
X118230010Y-93409500D01*
X117029998Y-93409500D01*
X117029981Y-93409501D01*
X116927203Y-93420000D01*
X116927200Y-93420001D01*
X116760668Y-93475185D01*
X116760663Y-93475187D01*
X116611342Y-93567289D01*
X116487289Y-93691342D01*
X116395187Y-93840663D01*
X116395186Y-93840666D01*
X116340001Y-94007203D01*
X116340001Y-94007204D01*
X116340000Y-94007204D01*
X116329500Y-94109983D01*
X63500000Y-94109983D01*
X63500000Y-89567648D01*
X104949500Y-89567648D01*
X104949500Y-89772351D01*
X104981522Y-89974534D01*
X105044781Y-90169223D01*
X105137715Y-90351613D01*
X105258028Y-90517213D01*
X105402786Y-90661971D01*
X105557749Y-90774556D01*
X105568390Y-90782287D01*
X105684607Y-90841503D01*
X105750776Y-90875218D01*
X105750778Y-90875218D01*
X105750781Y-90875220D01*
X105855137Y-90909127D01*
X105945465Y-90938477D01*
X106046557Y-90954488D01*
X106147648Y-90970500D01*
X106147649Y-90970500D01*
X106352351Y-90970500D01*
X106352352Y-90970500D01*
X106554534Y-90938477D01*
X106749219Y-90875220D01*
X106931610Y-90782287D01*
X107024590Y-90714732D01*
X107097213Y-90661971D01*
X107097215Y-90661968D01*
X107097219Y-90661966D01*
X107241966Y-90517219D01*
X107241968Y-90517215D01*
X107241971Y-90517213D01*
X107294732Y-90444590D01*
X107362287Y-90351610D01*
X107455220Y-90169219D01*
X107518477Y-89974534D01*
X107543326Y-89817648D01*
X145199500Y-89817648D01*
X145199500Y-90022351D01*
X145231522Y-90224534D01*
X145294781Y-90419223D01*
X145387715Y-90601613D01*
X145508028Y-90767213D01*
X145652786Y-90911971D01*
X145762892Y-90991966D01*
X145818390Y-91032287D01*
X145934607Y-91091503D01*
X146000776Y-91125218D01*
X146000778Y-91125218D01*
X146000781Y-91125220D01*
X146105137Y-91159127D01*
X146195465Y-91188477D01*
X146296557Y-91204488D01*
X146397648Y-91220500D01*
X146397649Y-91220500D01*
X146602351Y-91220500D01*
X146602352Y-91220500D01*
X146804534Y-91188477D01*
X146999219Y-91125220D01*
X147181610Y-91032287D01*
X147274590Y-90964732D01*
X147347213Y-90911971D01*
X147347215Y-90911968D01*
X147347219Y-90911966D01*
X147491966Y-90767219D01*
X147491968Y-90767215D01*
X147491971Y-90767213D01*
X147554164Y-90681610D01*
X147612287Y-90601610D01*
X147705220Y-90419219D01*
X147768477Y-90224534D01*
X147800500Y-90022352D01*
X147800500Y-89897648D01*
X150869500Y-89897648D01*
X150869500Y-90102351D01*
X150901522Y-90304534D01*
X150964781Y-90499223D01*
X150973948Y-90517213D01*
X151047706Y-90661971D01*
X151057715Y-90681613D01*
X151178028Y-90847213D01*
X151322786Y-90991971D01*
X151477749Y-91104556D01*
X151488390Y-91112287D01*
X151582236Y-91160104D01*
X151670776Y-91205218D01*
X151670778Y-91205218D01*
X151670781Y-91205220D01*
X151775137Y-91239127D01*
X151865465Y-91268477D01*
X151966557Y-91284488D01*
X152067648Y-91300500D01*
X152067649Y-91300500D01*
X152272351Y-91300500D01*
X152272352Y-91300500D01*
X152474534Y-91268477D01*
X152669219Y-91205220D01*
X152851610Y-91112287D01*
X152944590Y-91044732D01*
X153017213Y-90991971D01*
X153017215Y-90991968D01*
X153017219Y-90991966D01*
X153161966Y-90847219D01*
X153161968Y-90847215D01*
X153161971Y-90847213D01*
X153220093Y-90767213D01*
X153282287Y-90681610D01*
X153375220Y-90499219D01*
X153438477Y-90304534D01*
X153470500Y-90102352D01*
X153470500Y-89897648D01*
X161029500Y-89897648D01*
X161029500Y-90102351D01*
X161061522Y-90304534D01*
X161124781Y-90499223D01*
X161133948Y-90517213D01*
X161207706Y-90661971D01*
X161217715Y-90681613D01*
X161338028Y-90847213D01*
X161482786Y-90991971D01*
X161637749Y-91104556D01*
X161648390Y-91112287D01*
X161742236Y-91160104D01*
X161830776Y-91205218D01*
X161830778Y-91205218D01*
X161830781Y-91205220D01*
X161935137Y-91239127D01*
X162025465Y-91268477D01*
X162126557Y-91284488D01*
X162227648Y-91300500D01*
X162227649Y-91300500D01*
X162432351Y-91300500D01*
X162432352Y-91300500D01*
X162634534Y-91268477D01*
X162829219Y-91205220D01*
X163011610Y-91112287D01*
X163104590Y-91044732D01*
X163177213Y-90991971D01*
X163177215Y-90991968D01*
X163177219Y-90991966D01*
X163321966Y-90847219D01*
X163321968Y-90847215D01*
X163321971Y-90847213D01*
X163380093Y-90767213D01*
X163442287Y-90681610D01*
X163535220Y-90499219D01*
X163598477Y-90304534D01*
X163630500Y-90102352D01*
X163630500Y-89897648D01*
X163598477Y-89695466D01*
X163535220Y-89500781D01*
X163535218Y-89500778D01*
X163535218Y-89500776D01*
X163466273Y-89365466D01*
X163442287Y-89318390D01*
X163392754Y-89250213D01*
X163321971Y-89152786D01*
X163177213Y-89008028D01*
X163011613Y-88887715D01*
X163011612Y-88887714D01*
X163011610Y-88887713D01*
X162921024Y-88841557D01*
X162829223Y-88794781D01*
X162634534Y-88731522D01*
X162459995Y-88703878D01*
X162432352Y-88699500D01*
X162227648Y-88699500D01*
X162203329Y-88703351D01*
X162025465Y-88731522D01*
X161830776Y-88794781D01*
X161648386Y-88887715D01*
X161482786Y-89008028D01*
X161338028Y-89152786D01*
X161217715Y-89318386D01*
X161124781Y-89500776D01*
X161061522Y-89695465D01*
X161029500Y-89897648D01*
X153470500Y-89897648D01*
X153438477Y-89695466D01*
X153375220Y-89500781D01*
X153375218Y-89500778D01*
X153375218Y-89500776D01*
X153306273Y-89365466D01*
X153282287Y-89318390D01*
X153232754Y-89250213D01*
X153161971Y-89152786D01*
X153017213Y-89008028D01*
X152851613Y-88887715D01*
X152851612Y-88887714D01*
X152851610Y-88887713D01*
X152761024Y-88841557D01*
X152669223Y-88794781D01*
X152474534Y-88731522D01*
X152299995Y-88703878D01*
X152272352Y-88699500D01*
X152067648Y-88699500D01*
X152043329Y-88703351D01*
X151865465Y-88731522D01*
X151670776Y-88794781D01*
X151488386Y-88887715D01*
X151322786Y-89008028D01*
X151178028Y-89152786D01*
X151057715Y-89318386D01*
X150964781Y-89500776D01*
X150901522Y-89695465D01*
X150869500Y-89897648D01*
X147800500Y-89897648D01*
X147800500Y-89817648D01*
X147768477Y-89615466D01*
X147705220Y-89420781D01*
X147705218Y-89420778D01*
X147705218Y-89420776D01*
X147653047Y-89318386D01*
X147612287Y-89238390D01*
X147550093Y-89152786D01*
X147491971Y-89072786D01*
X147347213Y-88928028D01*
X147181613Y-88807715D01*
X147181612Y-88807714D01*
X147181610Y-88807713D01*
X147124653Y-88778691D01*
X146999223Y-88714781D01*
X146804534Y-88651522D01*
X146629995Y-88623878D01*
X146602352Y-88619500D01*
X146397648Y-88619500D01*
X146373329Y-88623351D01*
X146195465Y-88651522D01*
X146000776Y-88714781D01*
X145818386Y-88807715D01*
X145652786Y-88928028D01*
X145508028Y-89072786D01*
X145387715Y-89238386D01*
X145294781Y-89420776D01*
X145231522Y-89615465D01*
X145199500Y-89817648D01*
X107543326Y-89817648D01*
X107550500Y-89772352D01*
X107550500Y-89567648D01*
X107539908Y-89500776D01*
X107518477Y-89365465D01*
X107455218Y-89170776D01*
X107405286Y-89072781D01*
X107362287Y-88988390D01*
X107320916Y-88931447D01*
X107241971Y-88822786D01*
X107097213Y-88678028D01*
X106931613Y-88557715D01*
X106931612Y-88557714D01*
X106931610Y-88557713D01*
X106874653Y-88528691D01*
X106749223Y-88464781D01*
X106554534Y-88401522D01*
X106379995Y-88373878D01*
X106352352Y-88369500D01*
X106147648Y-88369500D01*
X106123329Y-88373351D01*
X105945465Y-88401522D01*
X105750776Y-88464781D01*
X105568386Y-88557715D01*
X105402786Y-88678028D01*
X105258028Y-88822786D01*
X105137715Y-88988386D01*
X105044781Y-89170776D01*
X104981522Y-89365465D01*
X104949500Y-89567648D01*
X63500000Y-89567648D01*
X63500000Y-85897648D01*
X116369500Y-85897648D01*
X116369500Y-86102351D01*
X116401522Y-86304534D01*
X116464781Y-86499223D01*
X116557715Y-86681613D01*
X116678028Y-86847213D01*
X116822786Y-86991971D01*
X116932372Y-87071588D01*
X116988390Y-87112287D01*
X117104607Y-87171503D01*
X117170776Y-87205218D01*
X117170778Y-87205218D01*
X117170781Y-87205220D01*
X117275137Y-87239127D01*
X117365465Y-87268477D01*
X117466557Y-87284488D01*
X117567648Y-87300500D01*
X117567649Y-87300500D01*
X117772351Y-87300500D01*
X117772352Y-87300500D01*
X117974534Y-87268477D01*
X118169219Y-87205220D01*
X118351610Y-87112287D01*
X118444590Y-87044732D01*
X118517213Y-86991971D01*
X118517215Y-86991968D01*
X118517219Y-86991966D01*
X118661966Y-86847219D01*
X118661968Y-86847215D01*
X118661971Y-86847213D01*
X118754032Y-86720500D01*
X118782287Y-86681610D01*
X118875220Y-86499219D01*
X118938477Y-86304534D01*
X118970500Y-86102352D01*
X118970500Y-85897648D01*
X126529500Y-85897648D01*
X126529500Y-86102351D01*
X126561522Y-86304534D01*
X126624781Y-86499223D01*
X126717715Y-86681613D01*
X126838028Y-86847213D01*
X126982786Y-86991971D01*
X127092372Y-87071588D01*
X127148390Y-87112287D01*
X127264607Y-87171503D01*
X127330776Y-87205218D01*
X127330778Y-87205218D01*
X127330781Y-87205220D01*
X127435137Y-87239127D01*
X127525465Y-87268477D01*
X127626557Y-87284488D01*
X127727648Y-87300500D01*
X127727649Y-87300500D01*
X127932351Y-87300500D01*
X127932352Y-87300500D01*
X128134534Y-87268477D01*
X128329219Y-87205220D01*
X128511610Y-87112287D01*
X128604590Y-87044732D01*
X128677213Y-86991971D01*
X128677215Y-86991968D01*
X128677219Y-86991966D01*
X128821966Y-86847219D01*
X128821968Y-86847215D01*
X128821971Y-86847213D01*
X128914032Y-86720500D01*
X128942287Y-86681610D01*
X129035220Y-86499219D01*
X129098477Y-86304534D01*
X129130500Y-86102352D01*
X129130500Y-85897648D01*
X129116890Y-85811717D01*
X129098477Y-85695465D01*
X129042229Y-85522352D01*
X129035220Y-85500781D01*
X129035218Y-85500778D01*
X129035218Y-85500776D01*
X128968110Y-85369071D01*
X128966667Y-85366239D01*
X128942287Y-85318390D01*
X128942285Y-85318387D01*
X128942284Y-85318385D01*
X128941749Y-85317648D01*
X131199500Y-85317648D01*
X131199500Y-85522351D01*
X131231522Y-85724534D01*
X131294781Y-85919223D01*
X131387715Y-86101613D01*
X131508028Y-86267213D01*
X131652786Y-86411971D01*
X131772875Y-86499219D01*
X131818390Y-86532287D01*
X131934607Y-86591503D01*
X132000776Y-86625218D01*
X132000778Y-86625218D01*
X132000781Y-86625220D01*
X132105137Y-86659127D01*
X132195465Y-86688477D01*
X132296557Y-86704488D01*
X132397648Y-86720500D01*
X132397649Y-86720500D01*
X132602351Y-86720500D01*
X132602352Y-86720500D01*
X132804534Y-86688477D01*
X132999219Y-86625220D01*
X133181610Y-86532287D01*
X133315583Y-86434951D01*
X133347213Y-86411971D01*
X133347215Y-86411968D01*
X133347219Y-86411966D01*
X133491966Y-86267219D01*
X133491968Y-86267215D01*
X133491971Y-86267213D01*
X133544732Y-86194590D01*
X133612287Y-86101610D01*
X133705220Y-85919219D01*
X133768477Y-85724534D01*
X133800500Y-85522352D01*
X133800500Y-85317648D01*
X133768477Y-85115466D01*
X133747205Y-85049999D01*
X133733568Y-85008028D01*
X133705220Y-84920781D01*
X133705218Y-84920778D01*
X133705218Y-84920776D01*
X133671503Y-84854607D01*
X133612287Y-84738390D01*
X133584757Y-84700498D01*
X133491971Y-84572786D01*
X133347213Y-84428028D01*
X133181613Y-84307715D01*
X133181612Y-84307714D01*
X133181610Y-84307713D01*
X133124653Y-84278691D01*
X132999223Y-84214781D01*
X132804534Y-84151522D01*
X132628377Y-84123622D01*
X132602352Y-84119500D01*
X132397648Y-84119500D01*
X132373329Y-84123351D01*
X132195465Y-84151522D01*
X132000776Y-84214781D01*
X131818386Y-84307715D01*
X131652786Y-84428028D01*
X131508028Y-84572786D01*
X131387715Y-84738386D01*
X131294781Y-84920776D01*
X131231522Y-85115465D01*
X131199500Y-85317648D01*
X128941749Y-85317648D01*
X128821971Y-85152786D01*
X128677213Y-85008028D01*
X128511613Y-84887715D01*
X128511612Y-84887714D01*
X128511610Y-84887713D01*
X128451346Y-84857007D01*
X128329223Y-84794781D01*
X128134534Y-84731522D01*
X127959995Y-84703878D01*
X127932352Y-84699500D01*
X127727648Y-84699500D01*
X127703329Y-84703351D01*
X127525465Y-84731522D01*
X127330776Y-84794781D01*
X127148386Y-84887715D01*
X126982786Y-85008028D01*
X126838028Y-85152786D01*
X126717715Y-85318386D01*
X126624781Y-85500776D01*
X126561522Y-85695465D01*
X126529500Y-85897648D01*
X118970500Y-85897648D01*
X118956890Y-85811717D01*
X118938477Y-85695465D01*
X118882229Y-85522352D01*
X118875220Y-85500781D01*
X118875218Y-85500778D01*
X118875218Y-85500776D01*
X118806667Y-85366239D01*
X118782287Y-85318390D01*
X118774556Y-85307749D01*
X118661971Y-85152786D01*
X118517213Y-85008028D01*
X118351613Y-84887715D01*
X118351612Y-84887714D01*
X118351610Y-84887713D01*
X118291346Y-84857007D01*
X118169223Y-84794781D01*
X117974534Y-84731522D01*
X117799995Y-84703878D01*
X117772352Y-84699500D01*
X117567648Y-84699500D01*
X117543329Y-84703351D01*
X117365465Y-84731522D01*
X117170776Y-84794781D01*
X116988386Y-84887715D01*
X116822786Y-85008028D01*
X116678028Y-85152786D01*
X116557715Y-85318386D01*
X116464781Y-85500776D01*
X116401522Y-85695465D01*
X116369500Y-85897648D01*
X63500000Y-85897648D01*
X63500000Y-82888575D01*
X76580000Y-82888575D01*
X76580000Y-83111424D01*
X76609085Y-83332354D01*
X76609088Y-83332367D01*
X76666763Y-83547618D01*
X76752045Y-83753502D01*
X76752054Y-83753520D01*
X76863464Y-83946491D01*
X76863473Y-83946504D01*
X76914040Y-84012403D01*
X76914043Y-84012403D01*
X77715387Y-83211059D01*
X77720889Y-83231591D01*
X77799881Y-83368408D01*
X77911592Y-83480119D01*
X78048409Y-83559111D01*
X78068940Y-83564612D01*
X77267595Y-84365955D01*
X77267595Y-84365956D01*
X77333507Y-84416533D01*
X77526485Y-84527949D01*
X77526497Y-84527954D01*
X77732381Y-84613236D01*
X77947632Y-84670911D01*
X77947645Y-84670914D01*
X78168575Y-84700000D01*
X78391425Y-84700000D01*
X78612354Y-84670914D01*
X78612367Y-84670911D01*
X78827618Y-84613236D01*
X79033502Y-84527954D01*
X79033514Y-84527949D01*
X79226498Y-84416530D01*
X79292403Y-84365957D01*
X79292404Y-84365956D01*
X78491059Y-83564612D01*
X78511591Y-83559111D01*
X78648408Y-83480119D01*
X78760119Y-83368408D01*
X78839111Y-83231591D01*
X78844612Y-83211059D01*
X79645956Y-84012404D01*
X79645957Y-84012403D01*
X79696530Y-83946498D01*
X79807949Y-83753514D01*
X79807954Y-83753502D01*
X79893236Y-83547618D01*
X79950911Y-83332367D01*
X79950914Y-83332354D01*
X79980000Y-83111424D01*
X79980000Y-82888575D01*
X79979997Y-82888549D01*
X104519500Y-82888549D01*
X104519500Y-83111450D01*
X104519501Y-83111466D01*
X104548594Y-83332452D01*
X104548595Y-83332457D01*
X104548596Y-83332463D01*
X104606290Y-83547780D01*
X104606293Y-83547790D01*
X104691593Y-83753722D01*
X104691595Y-83753726D01*
X104803052Y-83946774D01*
X104803057Y-83946780D01*
X104803058Y-83946782D01*
X104938751Y-84123622D01*
X104938757Y-84123629D01*
X105096370Y-84281242D01*
X105096377Y-84281248D01*
X105175791Y-84342184D01*
X105273226Y-84416948D01*
X105466274Y-84528405D01*
X105596140Y-84582197D01*
X105671074Y-84613236D01*
X105672219Y-84613710D01*
X105887537Y-84671404D01*
X106108543Y-84700500D01*
X106108550Y-84700500D01*
X106331450Y-84700500D01*
X106331457Y-84700500D01*
X106552463Y-84671404D01*
X106767781Y-84613710D01*
X106973726Y-84528405D01*
X107166774Y-84416948D01*
X107343624Y-84281247D01*
X107501247Y-84123624D01*
X107636948Y-83946774D01*
X107748405Y-83753726D01*
X107833710Y-83547781D01*
X107891404Y-83332463D01*
X107920500Y-83111457D01*
X107920500Y-82888543D01*
X107891404Y-82667537D01*
X107833710Y-82452219D01*
X107748405Y-82246274D01*
X107636948Y-82053226D01*
X107501247Y-81876376D01*
X107501242Y-81876370D01*
X107343629Y-81718757D01*
X107343622Y-81718751D01*
X107166782Y-81583058D01*
X107166780Y-81583057D01*
X107166774Y-81583052D01*
X106973726Y-81471595D01*
X106973722Y-81471593D01*
X106767790Y-81386293D01*
X106767783Y-81386291D01*
X106767781Y-81386290D01*
X106552463Y-81328596D01*
X106552457Y-81328595D01*
X106552452Y-81328594D01*
X106331466Y-81299501D01*
X106331463Y-81299500D01*
X106331457Y-81299500D01*
X106108543Y-81299500D01*
X106108537Y-81299500D01*
X106108533Y-81299501D01*
X105887547Y-81328594D01*
X105887540Y-81328595D01*
X105887537Y-81328596D01*
X105672219Y-81386290D01*
X105672209Y-81386293D01*
X105466277Y-81471593D01*
X105466273Y-81471595D01*
X105273226Y-81583052D01*
X105273217Y-81583058D01*
X105096377Y-81718751D01*
X105096370Y-81718757D01*
X104938757Y-81876370D01*
X104938751Y-81876377D01*
X104803058Y-82053217D01*
X104803052Y-82053226D01*
X104691595Y-82246273D01*
X104691593Y-82246277D01*
X104606293Y-82452209D01*
X104606290Y-82452219D01*
X104558228Y-82631592D01*
X104548597Y-82667534D01*
X104548594Y-82667547D01*
X104519501Y-82888533D01*
X104519500Y-82888549D01*
X79979997Y-82888549D01*
X79950914Y-82667645D01*
X79950911Y-82667632D01*
X79893236Y-82452381D01*
X79807954Y-82246497D01*
X79807949Y-82246485D01*
X79696533Y-82053507D01*
X79645956Y-81987595D01*
X79645955Y-81987595D01*
X78844612Y-82788939D01*
X78839111Y-82768409D01*
X78760119Y-82631592D01*
X78648408Y-82519881D01*
X78511591Y-82440889D01*
X78491058Y-82435387D01*
X79292403Y-81634043D01*
X79292403Y-81634040D01*
X79226504Y-81583473D01*
X79226491Y-81583464D01*
X79033520Y-81472054D01*
X79033502Y-81472045D01*
X78827618Y-81386763D01*
X78612367Y-81329088D01*
X78612354Y-81329085D01*
X78391425Y-81300000D01*
X78168575Y-81300000D01*
X77947645Y-81329085D01*
X77947632Y-81329088D01*
X77732381Y-81386763D01*
X77526497Y-81472045D01*
X77526479Y-81472054D01*
X77333511Y-81583462D01*
X77267595Y-81634042D01*
X78068941Y-82435387D01*
X78048409Y-82440889D01*
X77911592Y-82519881D01*
X77799881Y-82631592D01*
X77720889Y-82768409D01*
X77715387Y-82788940D01*
X76914042Y-81987595D01*
X76863462Y-82053511D01*
X76752054Y-82246479D01*
X76752045Y-82246497D01*
X76666763Y-82452381D01*
X76609088Y-82667632D01*
X76609085Y-82667645D01*
X76580000Y-82888575D01*
X63500000Y-82888575D01*
X63500000Y-71482332D01*
X81899500Y-71482332D01*
X81899500Y-71757667D01*
X81899501Y-71757684D01*
X81935438Y-72030655D01*
X81935439Y-72030660D01*
X81935440Y-72030666D01*
X81936269Y-72033760D01*
X82006704Y-72296630D01*
X82112075Y-72551017D01*
X82112080Y-72551028D01*
X82194861Y-72694407D01*
X82249751Y-72789479D01*
X82249753Y-72789482D01*
X82249754Y-72789483D01*
X82417370Y-73007926D01*
X82417376Y-73007933D01*
X82612066Y-73202623D01*
X82612072Y-73202628D01*
X82830521Y-73370249D01*
X82983778Y-73458732D01*
X83068971Y-73507919D01*
X83068976Y-73507921D01*
X83068979Y-73507923D01*
X83323368Y-73613295D01*
X83589334Y-73684560D01*
X83862326Y-73720500D01*
X83862333Y-73720500D01*
X84137667Y-73720500D01*
X84137674Y-73720500D01*
X84410666Y-73684560D01*
X84676632Y-73613295D01*
X84931021Y-73507923D01*
X85169479Y-73370249D01*
X85387928Y-73202628D01*
X85582628Y-73007928D01*
X85750249Y-72789479D01*
X85887923Y-72551021D01*
X85993295Y-72296632D01*
X86064560Y-72030666D01*
X86100500Y-71757674D01*
X86100500Y-71482326D01*
X86064560Y-71209334D01*
X85993295Y-70943368D01*
X85887923Y-70688979D01*
X85887921Y-70688976D01*
X85887919Y-70688971D01*
X85838732Y-70603778D01*
X85750249Y-70450521D01*
X85642424Y-70310000D01*
X85582629Y-70232073D01*
X85582623Y-70232066D01*
X85387933Y-70037376D01*
X85387926Y-70037370D01*
X85169483Y-69869754D01*
X85169482Y-69869753D01*
X85169479Y-69869751D01*
X85074407Y-69814861D01*
X84931028Y-69732080D01*
X84931017Y-69732075D01*
X84676630Y-69626704D01*
X84543649Y-69591072D01*
X84410666Y-69555440D01*
X84410660Y-69555439D01*
X84410655Y-69555438D01*
X84137684Y-69519501D01*
X84137679Y-69519500D01*
X84137674Y-69519500D01*
X83862326Y-69519500D01*
X83862320Y-69519500D01*
X83862315Y-69519501D01*
X83589344Y-69555438D01*
X83589337Y-69555439D01*
X83589334Y-69555440D01*
X83572316Y-69560000D01*
X83323369Y-69626704D01*
X83068982Y-69732075D01*
X83068971Y-69732080D01*
X82830516Y-69869754D01*
X82612073Y-70037370D01*
X82612066Y-70037376D01*
X82417376Y-70232066D01*
X82417370Y-70232073D01*
X82249754Y-70450516D01*
X82112080Y-70688971D01*
X82112075Y-70688982D01*
X82006704Y-70943369D01*
X81982754Y-71032754D01*
X81939295Y-71194949D01*
X81935441Y-71209331D01*
X81935438Y-71209344D01*
X81899501Y-71482315D01*
X81899500Y-71482332D01*
X63500000Y-71482332D01*
X63500000Y-62875441D01*
X69849500Y-62875441D01*
X69849500Y-63124558D01*
X69849501Y-63124575D01*
X69880497Y-63360017D01*
X69882018Y-63371565D01*
X69894897Y-63419629D01*
X69946498Y-63612207D01*
X70041830Y-63842361D01*
X70041837Y-63842376D01*
X70166400Y-64058126D01*
X70318060Y-64255774D01*
X70318066Y-64255781D01*
X70494218Y-64431933D01*
X70494225Y-64431939D01*
X70691873Y-64583599D01*
X70907623Y-64708162D01*
X70907638Y-64708169D01*
X71006825Y-64749253D01*
X71137793Y-64803502D01*
X71378435Y-64867982D01*
X71625435Y-64900500D01*
X71625442Y-64900500D01*
X71874558Y-64900500D01*
X71874565Y-64900500D01*
X72121565Y-64867982D01*
X72362207Y-64803502D01*
X72592373Y-64708164D01*
X72808127Y-64583599D01*
X73005776Y-64431938D01*
X73181938Y-64255776D01*
X73333599Y-64058127D01*
X73458164Y-63842373D01*
X73553502Y-63612207D01*
X73605102Y-63419635D01*
X112249500Y-63419635D01*
X112249500Y-65420370D01*
X112249501Y-65420376D01*
X112255908Y-65479983D01*
X112306202Y-65614828D01*
X112306206Y-65614835D01*
X112392452Y-65730044D01*
X112392455Y-65730047D01*
X112507664Y-65816293D01*
X112507669Y-65816296D01*
X112535539Y-65826690D01*
X112591473Y-65868561D01*
X112615891Y-65934024D01*
X112601040Y-66002298D01*
X112592525Y-66015759D01*
X112459783Y-66198461D01*
X112355950Y-66402244D01*
X112285278Y-66619750D01*
X112285278Y-66619753D01*
X112249500Y-66845646D01*
X112249500Y-67074353D01*
X112285278Y-67300246D01*
X112285278Y-67300249D01*
X112355950Y-67517755D01*
X112355952Y-67517758D01*
X112459783Y-67721538D01*
X112594214Y-67906566D01*
X112755934Y-68068286D01*
X112825423Y-68118773D01*
X112840438Y-68129682D01*
X112883103Y-68185013D01*
X112889082Y-68254626D01*
X112856476Y-68316421D01*
X112840438Y-68330318D01*
X112755932Y-68391715D01*
X112594216Y-68553431D01*
X112594216Y-68553432D01*
X112594214Y-68553434D01*
X112558600Y-68602452D01*
X112459783Y-68738461D01*
X112355950Y-68942244D01*
X112285278Y-69159750D01*
X112285278Y-69159753D01*
X112249500Y-69385646D01*
X112249500Y-69614353D01*
X112285278Y-69840246D01*
X112285278Y-69840249D01*
X112355950Y-70057755D01*
X112444766Y-70232066D01*
X112459783Y-70261538D01*
X112594214Y-70446566D01*
X112755934Y-70608286D01*
X112940962Y-70742717D01*
X113144742Y-70846548D01*
X113144744Y-70846549D01*
X113362251Y-70917221D01*
X113362252Y-70917221D01*
X113362255Y-70917222D01*
X113588146Y-70953000D01*
X113588147Y-70953000D01*
X113911853Y-70953000D01*
X113911854Y-70953000D01*
X114137745Y-70917222D01*
X114137748Y-70917221D01*
X114137749Y-70917221D01*
X114355255Y-70846549D01*
X114355255Y-70846548D01*
X114355258Y-70846548D01*
X114559038Y-70742717D01*
X114744066Y-70608286D01*
X114905786Y-70446566D01*
X115040217Y-70261538D01*
X115144048Y-70057758D01*
X115144049Y-70057755D01*
X115214721Y-69840249D01*
X115214721Y-69840248D01*
X115214722Y-69840245D01*
X115250500Y-69614354D01*
X115250500Y-69385646D01*
X115214722Y-69159755D01*
X115214721Y-69159751D01*
X115214721Y-69159750D01*
X115145635Y-68947124D01*
X115144528Y-68943721D01*
X115144048Y-68942242D01*
X115128708Y-68912135D01*
X165249500Y-68912135D01*
X165249500Y-70707870D01*
X165249501Y-70707876D01*
X165255908Y-70767483D01*
X165306202Y-70902328D01*
X165306206Y-70902335D01*
X165392452Y-71017544D01*
X165392455Y-71017547D01*
X165507664Y-71103793D01*
X165507671Y-71103797D01*
X165639082Y-71152810D01*
X165695016Y-71194681D01*
X165719433Y-71260145D01*
X165704582Y-71328418D01*
X165683431Y-71356673D01*
X165569889Y-71470215D01*
X165444951Y-71642179D01*
X165348444Y-71831585D01*
X165282753Y-72033760D01*
X165249500Y-72243713D01*
X165249500Y-72456287D01*
X165282754Y-72666243D01*
X165322797Y-72789483D01*
X165348444Y-72868414D01*
X165444951Y-73057820D01*
X165569890Y-73229786D01*
X165720213Y-73380109D01*
X165892182Y-73505050D01*
X165900946Y-73509516D01*
X165951742Y-73557491D01*
X165968536Y-73625312D01*
X165945998Y-73691447D01*
X165900946Y-73730484D01*
X165892182Y-73734949D01*
X165720213Y-73859890D01*
X165569890Y-74010213D01*
X165444951Y-74182179D01*
X165348444Y-74371585D01*
X165282753Y-74573760D01*
X165249500Y-74783713D01*
X165249500Y-74996286D01*
X165282753Y-75206239D01*
X165348444Y-75408414D01*
X165444951Y-75597820D01*
X165569890Y-75769786D01*
X165720213Y-75920109D01*
X165892182Y-76045050D01*
X165900946Y-76049516D01*
X165951742Y-76097491D01*
X165968536Y-76165312D01*
X165945998Y-76231447D01*
X165900946Y-76270484D01*
X165892182Y-76274949D01*
X165720213Y-76399890D01*
X165569890Y-76550213D01*
X165444951Y-76722179D01*
X165348444Y-76911585D01*
X165282753Y-77113760D01*
X165249500Y-77323713D01*
X165249500Y-77536286D01*
X165282753Y-77746239D01*
X165348444Y-77948414D01*
X165444951Y-78137820D01*
X165569890Y-78309786D01*
X165720213Y-78460109D01*
X165892182Y-78585050D01*
X165900946Y-78589516D01*
X165951742Y-78637491D01*
X165968536Y-78705312D01*
X165945998Y-78771447D01*
X165900946Y-78810484D01*
X165892182Y-78814949D01*
X165720213Y-78939890D01*
X165569890Y-79090213D01*
X165444951Y-79262179D01*
X165348444Y-79451585D01*
X165282753Y-79653760D01*
X165249500Y-79863713D01*
X165249500Y-80076286D01*
X165282753Y-80286239D01*
X165348444Y-80488414D01*
X165444951Y-80677820D01*
X165569890Y-80849786D01*
X165720213Y-81000109D01*
X165892182Y-81125050D01*
X165900946Y-81129516D01*
X165951742Y-81177491D01*
X165968536Y-81245312D01*
X165945998Y-81311447D01*
X165900946Y-81350484D01*
X165892182Y-81354949D01*
X165720213Y-81479890D01*
X165569890Y-81630213D01*
X165444951Y-81802179D01*
X165348444Y-81991585D01*
X165282753Y-82193760D01*
X165250088Y-82400000D01*
X165249500Y-82403713D01*
X165249500Y-82616287D01*
X165282754Y-82826243D01*
X165339211Y-83000000D01*
X165348444Y-83028414D01*
X165444951Y-83217820D01*
X165569890Y-83389786D01*
X165720213Y-83540109D01*
X165892182Y-83665050D01*
X165900946Y-83669516D01*
X165951742Y-83717491D01*
X165968536Y-83785312D01*
X165945998Y-83851447D01*
X165900946Y-83890484D01*
X165892182Y-83894949D01*
X165720213Y-84019890D01*
X165569890Y-84170213D01*
X165444951Y-84342179D01*
X165348444Y-84531585D01*
X165282753Y-84733760D01*
X165249500Y-84943713D01*
X165249500Y-85156286D01*
X165282735Y-85366127D01*
X165282754Y-85366243D01*
X165326468Y-85500781D01*
X165348444Y-85568414D01*
X165444951Y-85757820D01*
X165569890Y-85929786D01*
X165720213Y-86080109D01*
X165892182Y-86205050D01*
X165900946Y-86209516D01*
X165951742Y-86257491D01*
X165968536Y-86325312D01*
X165945998Y-86391447D01*
X165900946Y-86430484D01*
X165892182Y-86434949D01*
X165720213Y-86559890D01*
X165569890Y-86710213D01*
X165444951Y-86882179D01*
X165348444Y-87071585D01*
X165282753Y-87273760D01*
X165249500Y-87483713D01*
X165249500Y-87696286D01*
X165282753Y-87906239D01*
X165348444Y-88108414D01*
X165444951Y-88297820D01*
X165569890Y-88469786D01*
X165720213Y-88620109D01*
X165892182Y-88745050D01*
X165900946Y-88749516D01*
X165951742Y-88797491D01*
X165968536Y-88865312D01*
X165945998Y-88931447D01*
X165900946Y-88970484D01*
X165892182Y-88974949D01*
X165720213Y-89099890D01*
X165569890Y-89250213D01*
X165444951Y-89422179D01*
X165348444Y-89611585D01*
X165282753Y-89813760D01*
X165249500Y-90023713D01*
X165249500Y-90236286D01*
X165278473Y-90419219D01*
X165282754Y-90446243D01*
X165299968Y-90499223D01*
X165348444Y-90648414D01*
X165444951Y-90837820D01*
X165569890Y-91009786D01*
X165720213Y-91160109D01*
X165892182Y-91285050D01*
X165900946Y-91289516D01*
X165951742Y-91337491D01*
X165968536Y-91405312D01*
X165945998Y-91471447D01*
X165900946Y-91510484D01*
X165892182Y-91514949D01*
X165720213Y-91639890D01*
X165569890Y-91790213D01*
X165444951Y-91962179D01*
X165348444Y-92151585D01*
X165282753Y-92353760D01*
X165249500Y-92563713D01*
X165249500Y-92776286D01*
X165282753Y-92986239D01*
X165348444Y-93188414D01*
X165444951Y-93377820D01*
X165569890Y-93549786D01*
X165720213Y-93700109D01*
X165892182Y-93825050D01*
X165900946Y-93829516D01*
X165951742Y-93877491D01*
X165968536Y-93945312D01*
X165945998Y-94011447D01*
X165900946Y-94050484D01*
X165892182Y-94054949D01*
X165720213Y-94179890D01*
X165569890Y-94330213D01*
X165444951Y-94502179D01*
X165348444Y-94691585D01*
X165282753Y-94893760D01*
X165249500Y-95103713D01*
X165249500Y-95316286D01*
X165275062Y-95477682D01*
X165282754Y-95526243D01*
X165317331Y-95632661D01*
X165348444Y-95728414D01*
X165444951Y-95917820D01*
X165569890Y-96089786D01*
X165720213Y-96240109D01*
X165892182Y-96365050D01*
X165900946Y-96369516D01*
X165951742Y-96417491D01*
X165968536Y-96485312D01*
X165945998Y-96551447D01*
X165900946Y-96590484D01*
X165892182Y-96594949D01*
X165720213Y-96719890D01*
X165569890Y-96870213D01*
X165444951Y-97042179D01*
X165348444Y-97231585D01*
X165282753Y-97433760D01*
X165249500Y-97643713D01*
X165249500Y-97856286D01*
X165282753Y-98066239D01*
X165348444Y-98268414D01*
X165444951Y-98457820D01*
X165569890Y-98629786D01*
X165720213Y-98780109D01*
X165892182Y-98905050D01*
X165900946Y-98909516D01*
X165951742Y-98957491D01*
X165968536Y-99025312D01*
X165945998Y-99091447D01*
X165900946Y-99130484D01*
X165892182Y-99134949D01*
X165720213Y-99259890D01*
X165569890Y-99410213D01*
X165444951Y-99582179D01*
X165348444Y-99771585D01*
X165282753Y-99973760D01*
X165257586Y-100132661D01*
X165249500Y-100183713D01*
X165249500Y-100396287D01*
X165282754Y-100606243D01*
X165333154Y-100761359D01*
X165348444Y-100808414D01*
X165444951Y-100997820D01*
X165569890Y-101169786D01*
X165720213Y-101320109D01*
X165892179Y-101445048D01*
X165892181Y-101445049D01*
X165892184Y-101445051D01*
X165901493Y-101449794D01*
X165952290Y-101497766D01*
X165969087Y-101565587D01*
X165946552Y-101631722D01*
X165901505Y-101670760D01*
X165892446Y-101675376D01*
X165892440Y-101675380D01*
X165838282Y-101714727D01*
X165838282Y-101714728D01*
X166470591Y-102347037D01*
X166407007Y-102364075D01*
X166292993Y-102429901D01*
X166199901Y-102522993D01*
X166134075Y-102637007D01*
X166117037Y-102700591D01*
X165484728Y-102068282D01*
X165484727Y-102068282D01*
X165445380Y-102122439D01*
X165348904Y-102311782D01*
X165283242Y-102513869D01*
X165283242Y-102513872D01*
X165250000Y-102723753D01*
X165250000Y-102936246D01*
X165283242Y-103146127D01*
X165283242Y-103146130D01*
X165348904Y-103348217D01*
X165445375Y-103537550D01*
X165484728Y-103591716D01*
X166117037Y-102959408D01*
X166134075Y-103022993D01*
X166199901Y-103137007D01*
X166292993Y-103230099D01*
X166407007Y-103295925D01*
X166470590Y-103312962D01*
X165838282Y-103945269D01*
X165838282Y-103945270D01*
X165892452Y-103984626D01*
X165892451Y-103984626D01*
X165901495Y-103989234D01*
X165952292Y-104037208D01*
X165969087Y-104105029D01*
X165946550Y-104171164D01*
X165901499Y-104210202D01*
X165892182Y-104214949D01*
X165720213Y-104339890D01*
X165569890Y-104490213D01*
X165444951Y-104662179D01*
X165348444Y-104851585D01*
X165282753Y-105053760D01*
X165249500Y-105263713D01*
X165249500Y-105476286D01*
X165282753Y-105686239D01*
X165348444Y-105888414D01*
X165444951Y-106077820D01*
X165569890Y-106249786D01*
X165720213Y-106400109D01*
X165892182Y-106525050D01*
X165900946Y-106529516D01*
X165951742Y-106577491D01*
X165968536Y-106645312D01*
X165945998Y-106711447D01*
X165900946Y-106750484D01*
X165892182Y-106754949D01*
X165720213Y-106879890D01*
X165569890Y-107030213D01*
X165444951Y-107202179D01*
X165348444Y-107391585D01*
X165282753Y-107593760D01*
X165249500Y-107803713D01*
X165249500Y-108016286D01*
X165282753Y-108226239D01*
X165348444Y-108428414D01*
X165444951Y-108617820D01*
X165569890Y-108789786D01*
X165720213Y-108940109D01*
X165892182Y-109065050D01*
X165900946Y-109069516D01*
X165951742Y-109117491D01*
X165968536Y-109185312D01*
X165945998Y-109251447D01*
X165900946Y-109290484D01*
X165892182Y-109294949D01*
X165720213Y-109419890D01*
X165569890Y-109570213D01*
X165444951Y-109742179D01*
X165348444Y-109931585D01*
X165282753Y-110133760D01*
X165249500Y-110343713D01*
X165249500Y-110556286D01*
X165282753Y-110766239D01*
X165348444Y-110968414D01*
X165444951Y-111157820D01*
X165569890Y-111329786D01*
X165720213Y-111480109D01*
X165892182Y-111605050D01*
X165900946Y-111609516D01*
X165951742Y-111657491D01*
X165968536Y-111725312D01*
X165945998Y-111791447D01*
X165900946Y-111830484D01*
X165892182Y-111834949D01*
X165720213Y-111959890D01*
X165569890Y-112110213D01*
X165444951Y-112282179D01*
X165348444Y-112471585D01*
X165282753Y-112673760D01*
X165250336Y-112878435D01*
X165249500Y-112883713D01*
X165249500Y-113096287D01*
X165282754Y-113306243D01*
X165304953Y-113374565D01*
X165348444Y-113508414D01*
X165444951Y-113697820D01*
X165569890Y-113869786D01*
X165720213Y-114020109D01*
X165892182Y-114145050D01*
X165900946Y-114149516D01*
X165951742Y-114197491D01*
X165968536Y-114265312D01*
X165945998Y-114331447D01*
X165900946Y-114370484D01*
X165892182Y-114374949D01*
X165720213Y-114499890D01*
X165569890Y-114650213D01*
X165444951Y-114822179D01*
X165348444Y-115011585D01*
X165282753Y-115213760D01*
X165249500Y-115423713D01*
X165249500Y-115636286D01*
X165282753Y-115846239D01*
X165348444Y-116048414D01*
X165444951Y-116237820D01*
X165569890Y-116409786D01*
X165720213Y-116560109D01*
X165892179Y-116685048D01*
X165892181Y-116685049D01*
X165892184Y-116685051D01*
X166081588Y-116781557D01*
X166283757Y-116847246D01*
X166493713Y-116880500D01*
X166493714Y-116880500D01*
X166706286Y-116880500D01*
X166706287Y-116880500D01*
X166916243Y-116847246D01*
X167118412Y-116781557D01*
X167307816Y-116685051D01*
X167332919Y-116666813D01*
X167479786Y-116560109D01*
X167479788Y-116560106D01*
X167479792Y-116560104D01*
X167630104Y-116409792D01*
X167630106Y-116409788D01*
X167630109Y-116409786D01*
X167755048Y-116237820D01*
X167755047Y-116237820D01*
X167755051Y-116237816D01*
X167851557Y-116048412D01*
X167917246Y-115846243D01*
X167950500Y-115636287D01*
X167950500Y-115423713D01*
X167917246Y-115213757D01*
X167851557Y-115011588D01*
X167755051Y-114822184D01*
X167755049Y-114822181D01*
X167755048Y-114822179D01*
X167630109Y-114650213D01*
X167479786Y-114499890D01*
X167307820Y-114374951D01*
X167307115Y-114374591D01*
X167299054Y-114370485D01*
X167248259Y-114322512D01*
X167231463Y-114254692D01*
X167253999Y-114188556D01*
X167299054Y-114149515D01*
X167307816Y-114145051D01*
X167329789Y-114129086D01*
X167479786Y-114020109D01*
X167479788Y-114020106D01*
X167479792Y-114020104D01*
X167630104Y-113869792D01*
X167630106Y-113869788D01*
X167630109Y-113869786D01*
X167755048Y-113697820D01*
X167755047Y-113697820D01*
X167755051Y-113697816D01*
X167851557Y-113508412D01*
X167917246Y-113306243D01*
X167950500Y-113096287D01*
X167950500Y-112883713D01*
X167917246Y-112673757D01*
X167851557Y-112471588D01*
X167755051Y-112282184D01*
X167755049Y-112282181D01*
X167755048Y-112282179D01*
X167630109Y-112110213D01*
X167479786Y-111959890D01*
X167307820Y-111834951D01*
X167307115Y-111834591D01*
X167299054Y-111830485D01*
X167248259Y-111782512D01*
X167231463Y-111714692D01*
X167253999Y-111648556D01*
X167299054Y-111609515D01*
X167307816Y-111605051D01*
X167329789Y-111589086D01*
X167479786Y-111480109D01*
X167479788Y-111480106D01*
X167479792Y-111480104D01*
X167630104Y-111329792D01*
X167630106Y-111329788D01*
X167630109Y-111329786D01*
X167755048Y-111157820D01*
X167755047Y-111157820D01*
X167755051Y-111157816D01*
X167851557Y-110968412D01*
X167917246Y-110766243D01*
X167950500Y-110556287D01*
X167950500Y-110343713D01*
X167917246Y-110133757D01*
X167851557Y-109931588D01*
X167755051Y-109742184D01*
X167755049Y-109742181D01*
X167755048Y-109742179D01*
X167630109Y-109570213D01*
X167479786Y-109419890D01*
X167307820Y-109294951D01*
X167307115Y-109294591D01*
X167299054Y-109290485D01*
X167248259Y-109242512D01*
X167231463Y-109174692D01*
X167253999Y-109108556D01*
X167299054Y-109069515D01*
X167307816Y-109065051D01*
X167329789Y-109049086D01*
X167479786Y-108940109D01*
X167479788Y-108940106D01*
X167479792Y-108940104D01*
X167630104Y-108789792D01*
X167630106Y-108789788D01*
X167630109Y-108789786D01*
X167755048Y-108617820D01*
X167755047Y-108617820D01*
X167755051Y-108617816D01*
X167851557Y-108428412D01*
X167917246Y-108226243D01*
X167950500Y-108016287D01*
X167950500Y-107803713D01*
X167917246Y-107593757D01*
X167851557Y-107391588D01*
X167755051Y-107202184D01*
X167755049Y-107202181D01*
X167755048Y-107202179D01*
X167630109Y-107030213D01*
X167479786Y-106879890D01*
X167307820Y-106754951D01*
X167307115Y-106754591D01*
X167299054Y-106750485D01*
X167248259Y-106702512D01*
X167231463Y-106634692D01*
X167253999Y-106568556D01*
X167299054Y-106529515D01*
X167307816Y-106525051D01*
X167336248Y-106504394D01*
X167479786Y-106400109D01*
X167479788Y-106400106D01*
X167479792Y-106400104D01*
X167630104Y-106249792D01*
X167630106Y-106249788D01*
X167630109Y-106249786D01*
X167755048Y-106077820D01*
X167755047Y-106077820D01*
X167755051Y-106077816D01*
X167851557Y-105888412D01*
X167917246Y-105686243D01*
X167950500Y-105476287D01*
X167950500Y-105263713D01*
X167917246Y-105053757D01*
X167851557Y-104851588D01*
X167755051Y-104662184D01*
X167755049Y-104662181D01*
X167755048Y-104662179D01*
X167630109Y-104490213D01*
X167479786Y-104339890D01*
X167307817Y-104214949D01*
X167298504Y-104210204D01*
X167247707Y-104162230D01*
X167230912Y-104094409D01*
X167253449Y-104028274D01*
X167298507Y-103989232D01*
X167307555Y-103984622D01*
X167361716Y-103945270D01*
X167361717Y-103945270D01*
X166729408Y-103312962D01*
X166792993Y-103295925D01*
X166907007Y-103230099D01*
X167000099Y-103137007D01*
X167065925Y-103022993D01*
X167082962Y-102959409D01*
X167715270Y-103591717D01*
X167715270Y-103591716D01*
X167754622Y-103537554D01*
X167851095Y-103348217D01*
X167916757Y-103146130D01*
X167916757Y-103146127D01*
X167950000Y-102936246D01*
X167950000Y-102723753D01*
X167916757Y-102513872D01*
X167916757Y-102513869D01*
X167851095Y-102311782D01*
X167754624Y-102122449D01*
X167715270Y-102068282D01*
X167715269Y-102068282D01*
X167082962Y-102700590D01*
X167065925Y-102637007D01*
X167000099Y-102522993D01*
X166907007Y-102429901D01*
X166792993Y-102364075D01*
X166729409Y-102347037D01*
X167361716Y-101714728D01*
X167307547Y-101675373D01*
X167307547Y-101675372D01*
X167298500Y-101670763D01*
X167247706Y-101622788D01*
X167230912Y-101554966D01*
X167253451Y-101488832D01*
X167298508Y-101449793D01*
X167307816Y-101445051D01*
X167441410Y-101347990D01*
X167479786Y-101320109D01*
X167479788Y-101320106D01*
X167479792Y-101320104D01*
X167630104Y-101169792D01*
X167630106Y-101169788D01*
X167630109Y-101169786D01*
X167755048Y-100997820D01*
X167755047Y-100997820D01*
X167755051Y-100997816D01*
X167851557Y-100808412D01*
X167917246Y-100606243D01*
X167950500Y-100396287D01*
X167950500Y-100183713D01*
X167917246Y-99973757D01*
X167851557Y-99771588D01*
X167755051Y-99582184D01*
X167755049Y-99582181D01*
X167755048Y-99582179D01*
X167630109Y-99410213D01*
X167479786Y-99259890D01*
X167307820Y-99134951D01*
X167307115Y-99134591D01*
X167299054Y-99130485D01*
X167248259Y-99082512D01*
X167231463Y-99014692D01*
X167253999Y-98948556D01*
X167299054Y-98909515D01*
X167307816Y-98905051D01*
X167400066Y-98838028D01*
X167479786Y-98780109D01*
X167479788Y-98780106D01*
X167479792Y-98780104D01*
X167630104Y-98629792D01*
X167630106Y-98629788D01*
X167630109Y-98629786D01*
X167755048Y-98457820D01*
X167755047Y-98457820D01*
X167755051Y-98457816D01*
X167851557Y-98268412D01*
X167917246Y-98066243D01*
X167950500Y-97856287D01*
X167950500Y-97643713D01*
X167917246Y-97433757D01*
X167851557Y-97231588D01*
X167755051Y-97042184D01*
X167755049Y-97042181D01*
X167755048Y-97042179D01*
X167630109Y-96870213D01*
X167479786Y-96719890D01*
X167307820Y-96594951D01*
X167307115Y-96594591D01*
X167299054Y-96590485D01*
X167248259Y-96542512D01*
X167231463Y-96474692D01*
X167253999Y-96408556D01*
X167299054Y-96369515D01*
X167307816Y-96365051D01*
X167389202Y-96305921D01*
X167479786Y-96240109D01*
X167479788Y-96240106D01*
X167479792Y-96240104D01*
X167630104Y-96089792D01*
X167630106Y-96089788D01*
X167630109Y-96089786D01*
X167755048Y-95917820D01*
X167755047Y-95917820D01*
X167755051Y-95917816D01*
X167851557Y-95728412D01*
X167917246Y-95526243D01*
X167950500Y-95316287D01*
X167950500Y-95103713D01*
X167917246Y-94893757D01*
X167851557Y-94691588D01*
X167755051Y-94502184D01*
X167755049Y-94502181D01*
X167755048Y-94502179D01*
X167630109Y-94330213D01*
X167479786Y-94179890D01*
X167307820Y-94054951D01*
X167307115Y-94054591D01*
X167299054Y-94050485D01*
X167248259Y-94002512D01*
X167231463Y-93934692D01*
X167253999Y-93868556D01*
X167299054Y-93829515D01*
X167307816Y-93825051D01*
X167329789Y-93809086D01*
X167479786Y-93700109D01*
X167479788Y-93700106D01*
X167479792Y-93700104D01*
X167630104Y-93549792D01*
X167630106Y-93549788D01*
X167630109Y-93549786D01*
X167755048Y-93377820D01*
X167755047Y-93377820D01*
X167755051Y-93377816D01*
X167851557Y-93188412D01*
X167917246Y-92986243D01*
X167950500Y-92776287D01*
X167950500Y-92563713D01*
X167917246Y-92353757D01*
X167851557Y-92151588D01*
X167755051Y-91962184D01*
X167755049Y-91962181D01*
X167755048Y-91962179D01*
X167630109Y-91790213D01*
X167479786Y-91639890D01*
X167307820Y-91514951D01*
X167307115Y-91514591D01*
X167299054Y-91510485D01*
X167248259Y-91462512D01*
X167231463Y-91394692D01*
X167253999Y-91328556D01*
X167299054Y-91289515D01*
X167307816Y-91285051D01*
X167330628Y-91268477D01*
X167479786Y-91160109D01*
X167479788Y-91160106D01*
X167479792Y-91160104D01*
X167630104Y-91009792D01*
X167630106Y-91009788D01*
X167630109Y-91009786D01*
X167755048Y-90837820D01*
X167755047Y-90837820D01*
X167755051Y-90837816D01*
X167851557Y-90648412D01*
X167917246Y-90446243D01*
X167950500Y-90236287D01*
X167950500Y-90023713D01*
X167917246Y-89813757D01*
X167851557Y-89611588D01*
X167755051Y-89422184D01*
X167755049Y-89422181D01*
X167755048Y-89422179D01*
X167630109Y-89250213D01*
X167479786Y-89099890D01*
X167307820Y-88974951D01*
X167307115Y-88974591D01*
X167299054Y-88970485D01*
X167248259Y-88922512D01*
X167231463Y-88854692D01*
X167253999Y-88788556D01*
X167299054Y-88749515D01*
X167307816Y-88745051D01*
X167400066Y-88678028D01*
X167479786Y-88620109D01*
X167479788Y-88620106D01*
X167479792Y-88620104D01*
X167630104Y-88469792D01*
X167630106Y-88469788D01*
X167630109Y-88469786D01*
X167755048Y-88297820D01*
X167755047Y-88297820D01*
X167755051Y-88297816D01*
X167851557Y-88108412D01*
X167917246Y-87906243D01*
X167950500Y-87696287D01*
X167950500Y-87483713D01*
X167917246Y-87273757D01*
X167851557Y-87071588D01*
X167755051Y-86882184D01*
X167755049Y-86882181D01*
X167755048Y-86882179D01*
X167630109Y-86710213D01*
X167479786Y-86559890D01*
X167307820Y-86434951D01*
X167307115Y-86434591D01*
X167299054Y-86430485D01*
X167248259Y-86382512D01*
X167231463Y-86314692D01*
X167253999Y-86248556D01*
X167299054Y-86209515D01*
X167307816Y-86205051D01*
X167362572Y-86165269D01*
X167479786Y-86080109D01*
X167479788Y-86080106D01*
X167479792Y-86080104D01*
X167630104Y-85929792D01*
X167630106Y-85929788D01*
X167630109Y-85929786D01*
X167755048Y-85757820D01*
X167755047Y-85757820D01*
X167755051Y-85757816D01*
X167851557Y-85568412D01*
X167917246Y-85366243D01*
X167950500Y-85156287D01*
X167950500Y-84943713D01*
X167917246Y-84733757D01*
X167851557Y-84531588D01*
X167755051Y-84342184D01*
X167755049Y-84342181D01*
X167755048Y-84342179D01*
X167630109Y-84170213D01*
X167479786Y-84019890D01*
X167307820Y-83894951D01*
X167299600Y-83890763D01*
X167299054Y-83890485D01*
X167248259Y-83842512D01*
X167231463Y-83774692D01*
X167253999Y-83708556D01*
X167299054Y-83669515D01*
X167307816Y-83665051D01*
X167397352Y-83600000D01*
X167479786Y-83540109D01*
X167479788Y-83540106D01*
X167479792Y-83540104D01*
X167630104Y-83389792D01*
X167630106Y-83389788D01*
X167630109Y-83389786D01*
X167755048Y-83217820D01*
X167755047Y-83217820D01*
X167755051Y-83217816D01*
X167851557Y-83028412D01*
X167917246Y-82826243D01*
X167950500Y-82616287D01*
X167950500Y-82403713D01*
X167917246Y-82193757D01*
X167851557Y-81991588D01*
X167755051Y-81802184D01*
X167755049Y-81802181D01*
X167755048Y-81802179D01*
X167630109Y-81630213D01*
X167479786Y-81479890D01*
X167307820Y-81354951D01*
X167307115Y-81354591D01*
X167299054Y-81350485D01*
X167248259Y-81302512D01*
X167231463Y-81234692D01*
X167253999Y-81168556D01*
X167299054Y-81129515D01*
X167307816Y-81125051D01*
X167329789Y-81109086D01*
X167479786Y-81000109D01*
X167479788Y-81000106D01*
X167479792Y-81000104D01*
X167630104Y-80849792D01*
X167630106Y-80849788D01*
X167630109Y-80849786D01*
X167755048Y-80677820D01*
X167755047Y-80677820D01*
X167755051Y-80677816D01*
X167851557Y-80488412D01*
X167917246Y-80286243D01*
X167950500Y-80076287D01*
X167950500Y-79863713D01*
X167917246Y-79653757D01*
X167851557Y-79451588D01*
X167755051Y-79262184D01*
X167755049Y-79262181D01*
X167755048Y-79262179D01*
X167630109Y-79090213D01*
X167479786Y-78939890D01*
X167307820Y-78814951D01*
X167307115Y-78814591D01*
X167299054Y-78810485D01*
X167248259Y-78762512D01*
X167231463Y-78694692D01*
X167253999Y-78628556D01*
X167299054Y-78589515D01*
X167307816Y-78585051D01*
X167329789Y-78569086D01*
X167479786Y-78460109D01*
X167479788Y-78460106D01*
X167479792Y-78460104D01*
X167630104Y-78309792D01*
X167630106Y-78309788D01*
X167630109Y-78309786D01*
X167755048Y-78137820D01*
X167755047Y-78137820D01*
X167755051Y-78137816D01*
X167851557Y-77948412D01*
X167917246Y-77746243D01*
X167950500Y-77536287D01*
X167950500Y-77323713D01*
X167917246Y-77113757D01*
X167851557Y-76911588D01*
X167755051Y-76722184D01*
X167755049Y-76722181D01*
X167755048Y-76722179D01*
X167630109Y-76550213D01*
X167479786Y-76399890D01*
X167307820Y-76274951D01*
X167307115Y-76274591D01*
X167299054Y-76270485D01*
X167248259Y-76222512D01*
X167231463Y-76154692D01*
X167253999Y-76088556D01*
X167299054Y-76049515D01*
X167307816Y-76045051D01*
X167329789Y-76029086D01*
X167479786Y-75920109D01*
X167479788Y-75920106D01*
X167479792Y-75920104D01*
X167630104Y-75769792D01*
X167630106Y-75769788D01*
X167630109Y-75769786D01*
X167755048Y-75597820D01*
X167755047Y-75597820D01*
X167755051Y-75597816D01*
X167851557Y-75408412D01*
X167917246Y-75206243D01*
X167950500Y-74996287D01*
X167950500Y-74783713D01*
X167917246Y-74573757D01*
X167851557Y-74371588D01*
X167755051Y-74182184D01*
X167755049Y-74182181D01*
X167755048Y-74182179D01*
X167630109Y-74010213D01*
X167479786Y-73859890D01*
X167307820Y-73734951D01*
X167307115Y-73734591D01*
X167299054Y-73730485D01*
X167248259Y-73682512D01*
X167231463Y-73614692D01*
X167253999Y-73548556D01*
X167299054Y-73509515D01*
X167307816Y-73505051D01*
X167329789Y-73489086D01*
X167479786Y-73380109D01*
X167479788Y-73380106D01*
X167479792Y-73380104D01*
X167630104Y-73229792D01*
X167630106Y-73229788D01*
X167630109Y-73229786D01*
X167755048Y-73057820D01*
X167755047Y-73057820D01*
X167755051Y-73057816D01*
X167851557Y-72868412D01*
X167917246Y-72666243D01*
X167950500Y-72456287D01*
X167950500Y-72243713D01*
X190649500Y-72243713D01*
X190649500Y-72456287D01*
X190682754Y-72666243D01*
X190722797Y-72789483D01*
X190748444Y-72868414D01*
X190844951Y-73057820D01*
X190969890Y-73229786D01*
X191120213Y-73380109D01*
X191292182Y-73505050D01*
X191300946Y-73509516D01*
X191351742Y-73557491D01*
X191368536Y-73625312D01*
X191345998Y-73691447D01*
X191300946Y-73730484D01*
X191292182Y-73734949D01*
X191120213Y-73859890D01*
X190969890Y-74010213D01*
X190844951Y-74182179D01*
X190748444Y-74371585D01*
X190682753Y-74573760D01*
X190649500Y-74783713D01*
X190649500Y-74996286D01*
X190682753Y-75206239D01*
X190748444Y-75408414D01*
X190844951Y-75597820D01*
X190969890Y-75769786D01*
X191120213Y-75920109D01*
X191292182Y-76045050D01*
X191300946Y-76049516D01*
X191351742Y-76097491D01*
X191368536Y-76165312D01*
X191345998Y-76231447D01*
X191300946Y-76270484D01*
X191292182Y-76274949D01*
X191120213Y-76399890D01*
X190969890Y-76550213D01*
X190844951Y-76722179D01*
X190748444Y-76911585D01*
X190682753Y-77113760D01*
X190649500Y-77323713D01*
X190649500Y-77536286D01*
X190682753Y-77746239D01*
X190748444Y-77948414D01*
X190844951Y-78137820D01*
X190969890Y-78309786D01*
X191120213Y-78460109D01*
X191292182Y-78585050D01*
X191300946Y-78589516D01*
X191351742Y-78637491D01*
X191368536Y-78705312D01*
X191345998Y-78771447D01*
X191300946Y-78810484D01*
X191292182Y-78814949D01*
X191120213Y-78939890D01*
X190969890Y-79090213D01*
X190844951Y-79262179D01*
X190748444Y-79451585D01*
X190682753Y-79653760D01*
X190649500Y-79863713D01*
X190649500Y-80076286D01*
X190682753Y-80286239D01*
X190748444Y-80488414D01*
X190844951Y-80677820D01*
X190969890Y-80849786D01*
X191120213Y-81000109D01*
X191292182Y-81125050D01*
X191300946Y-81129516D01*
X191351742Y-81177491D01*
X191368536Y-81245312D01*
X191345998Y-81311447D01*
X191300946Y-81350484D01*
X191292182Y-81354949D01*
X191120213Y-81479890D01*
X190969890Y-81630213D01*
X190844951Y-81802179D01*
X190748444Y-81991585D01*
X190682753Y-82193760D01*
X190650088Y-82400000D01*
X190649500Y-82403713D01*
X190649500Y-82616287D01*
X190682754Y-82826243D01*
X190739211Y-83000000D01*
X190748444Y-83028414D01*
X190844951Y-83217820D01*
X190969890Y-83389786D01*
X191120213Y-83540109D01*
X191292179Y-83665048D01*
X191292181Y-83665049D01*
X191292184Y-83665051D01*
X191301493Y-83669794D01*
X191352290Y-83717766D01*
X191369087Y-83785587D01*
X191346552Y-83851722D01*
X191301505Y-83890760D01*
X191292446Y-83895376D01*
X191292440Y-83895380D01*
X191238282Y-83934727D01*
X191238282Y-83934728D01*
X191870591Y-84567037D01*
X191807007Y-84584075D01*
X191692993Y-84649901D01*
X191599901Y-84742993D01*
X191534075Y-84857007D01*
X191517037Y-84920591D01*
X190884728Y-84288282D01*
X190884727Y-84288282D01*
X190845380Y-84342439D01*
X190748904Y-84531782D01*
X190683242Y-84733869D01*
X190683242Y-84733872D01*
X190650000Y-84943753D01*
X190650000Y-85156246D01*
X190683242Y-85366127D01*
X190683242Y-85366130D01*
X190748904Y-85568217D01*
X190845375Y-85757550D01*
X190884728Y-85811716D01*
X191517037Y-85179408D01*
X191534075Y-85242993D01*
X191599901Y-85357007D01*
X191692993Y-85450099D01*
X191807007Y-85515925D01*
X191870590Y-85532962D01*
X191238282Y-86165269D01*
X191238282Y-86165270D01*
X191292452Y-86204626D01*
X191292451Y-86204626D01*
X191301495Y-86209234D01*
X191352292Y-86257208D01*
X191369087Y-86325029D01*
X191346550Y-86391164D01*
X191301499Y-86430202D01*
X191292182Y-86434949D01*
X191120213Y-86559890D01*
X190969890Y-86710213D01*
X190844951Y-86882179D01*
X190748444Y-87071585D01*
X190682753Y-87273760D01*
X190649500Y-87483713D01*
X190649500Y-87696286D01*
X190682753Y-87906239D01*
X190748444Y-88108414D01*
X190844951Y-88297820D01*
X190969890Y-88469786D01*
X191120213Y-88620109D01*
X191292182Y-88745050D01*
X191300946Y-88749516D01*
X191351742Y-88797491D01*
X191368536Y-88865312D01*
X191345998Y-88931447D01*
X191300946Y-88970484D01*
X191292182Y-88974949D01*
X191120213Y-89099890D01*
X190969890Y-89250213D01*
X190844951Y-89422179D01*
X190748444Y-89611585D01*
X190682753Y-89813760D01*
X190649500Y-90023713D01*
X190649500Y-90236286D01*
X190678473Y-90419219D01*
X190682754Y-90446243D01*
X190699968Y-90499223D01*
X190748444Y-90648414D01*
X190844951Y-90837820D01*
X190969890Y-91009786D01*
X191120213Y-91160109D01*
X191292182Y-91285050D01*
X191300946Y-91289516D01*
X191351742Y-91337491D01*
X191368536Y-91405312D01*
X191345998Y-91471447D01*
X191300946Y-91510484D01*
X191292182Y-91514949D01*
X191120213Y-91639890D01*
X190969890Y-91790213D01*
X190844951Y-91962179D01*
X190748444Y-92151585D01*
X190682753Y-92353760D01*
X190649500Y-92563713D01*
X190649500Y-92776286D01*
X190682753Y-92986239D01*
X190748444Y-93188414D01*
X190844951Y-93377820D01*
X190969890Y-93549786D01*
X191120213Y-93700109D01*
X191292182Y-93825050D01*
X191300946Y-93829516D01*
X191351742Y-93877491D01*
X191368536Y-93945312D01*
X191345998Y-94011447D01*
X191300946Y-94050484D01*
X191292182Y-94054949D01*
X191120213Y-94179890D01*
X190969890Y-94330213D01*
X190844951Y-94502179D01*
X190748444Y-94691585D01*
X190682753Y-94893760D01*
X190649500Y-95103713D01*
X190649500Y-95316286D01*
X190675062Y-95477682D01*
X190682754Y-95526243D01*
X190717331Y-95632661D01*
X190748444Y-95728414D01*
X190844951Y-95917820D01*
X190969890Y-96089786D01*
X191120213Y-96240109D01*
X191292182Y-96365050D01*
X191300946Y-96369516D01*
X191351742Y-96417491D01*
X191368536Y-96485312D01*
X191345998Y-96551447D01*
X191300946Y-96590484D01*
X191292182Y-96594949D01*
X191120213Y-96719890D01*
X190969890Y-96870213D01*
X190844951Y-97042179D01*
X190748444Y-97231585D01*
X190682753Y-97433760D01*
X190649500Y-97643713D01*
X190649500Y-97856286D01*
X190682753Y-98066239D01*
X190748444Y-98268414D01*
X190844951Y-98457820D01*
X190969890Y-98629786D01*
X191120213Y-98780109D01*
X191292182Y-98905050D01*
X191300946Y-98909516D01*
X191351742Y-98957491D01*
X191368536Y-99025312D01*
X191345998Y-99091447D01*
X191300946Y-99130484D01*
X191292182Y-99134949D01*
X191120213Y-99259890D01*
X190969890Y-99410213D01*
X190844951Y-99582179D01*
X190748444Y-99771585D01*
X190682753Y-99973760D01*
X190657586Y-100132661D01*
X190649500Y-100183713D01*
X190649500Y-100396287D01*
X190682754Y-100606243D01*
X190733154Y-100761359D01*
X190748444Y-100808414D01*
X190844951Y-100997820D01*
X190969890Y-101169786D01*
X191120213Y-101320109D01*
X191292182Y-101445050D01*
X191300946Y-101449516D01*
X191351742Y-101497491D01*
X191368536Y-101565312D01*
X191345998Y-101631447D01*
X191300946Y-101670484D01*
X191292182Y-101674949D01*
X191120213Y-101799890D01*
X190969890Y-101950213D01*
X190844951Y-102122179D01*
X190748444Y-102311585D01*
X190682753Y-102513760D01*
X190649500Y-102723713D01*
X190649500Y-102936286D01*
X190682735Y-103146127D01*
X190682754Y-103146243D01*
X190719077Y-103258034D01*
X190748444Y-103348414D01*
X190844951Y-103537820D01*
X190969890Y-103709786D01*
X191120213Y-103860109D01*
X191292182Y-103985050D01*
X191300946Y-103989516D01*
X191351742Y-104037491D01*
X191368536Y-104105312D01*
X191345998Y-104171447D01*
X191300946Y-104210484D01*
X191292182Y-104214949D01*
X191120213Y-104339890D01*
X190969890Y-104490213D01*
X190844951Y-104662179D01*
X190748444Y-104851585D01*
X190682753Y-105053760D01*
X190649500Y-105263713D01*
X190649500Y-105476286D01*
X190682753Y-105686239D01*
X190748444Y-105888414D01*
X190844951Y-106077820D01*
X190969890Y-106249786D01*
X191120213Y-106400109D01*
X191292182Y-106525050D01*
X191300946Y-106529516D01*
X191351742Y-106577491D01*
X191368536Y-106645312D01*
X191345998Y-106711447D01*
X191300946Y-106750484D01*
X191292182Y-106754949D01*
X191120213Y-106879890D01*
X190969890Y-107030213D01*
X190844951Y-107202179D01*
X190748444Y-107391585D01*
X190682753Y-107593760D01*
X190649500Y-107803713D01*
X190649500Y-108016286D01*
X190682753Y-108226239D01*
X190748444Y-108428414D01*
X190844951Y-108617820D01*
X190969890Y-108789786D01*
X191120213Y-108940109D01*
X191292182Y-109065050D01*
X191300946Y-109069516D01*
X191351742Y-109117491D01*
X191368536Y-109185312D01*
X191345998Y-109251447D01*
X191300946Y-109290484D01*
X191292182Y-109294949D01*
X191120213Y-109419890D01*
X190969890Y-109570213D01*
X190844951Y-109742179D01*
X190748444Y-109931585D01*
X190682753Y-110133760D01*
X190649500Y-110343713D01*
X190649500Y-110556286D01*
X190682753Y-110766239D01*
X190748444Y-110968414D01*
X190844951Y-111157820D01*
X190969890Y-111329786D01*
X191120213Y-111480109D01*
X191292182Y-111605050D01*
X191300946Y-111609516D01*
X191351742Y-111657491D01*
X191368536Y-111725312D01*
X191345998Y-111791447D01*
X191300946Y-111830484D01*
X191292182Y-111834949D01*
X191120213Y-111959890D01*
X190969890Y-112110213D01*
X190844951Y-112282179D01*
X190748444Y-112471585D01*
X190682753Y-112673760D01*
X190650336Y-112878435D01*
X190649500Y-112883713D01*
X190649500Y-113096287D01*
X190682754Y-113306243D01*
X190704953Y-113374565D01*
X190748444Y-113508414D01*
X190844951Y-113697820D01*
X190969890Y-113869786D01*
X191120213Y-114020109D01*
X191292182Y-114145050D01*
X191300946Y-114149516D01*
X191351742Y-114197491D01*
X191368536Y-114265312D01*
X191345998Y-114331447D01*
X191300946Y-114370484D01*
X191292182Y-114374949D01*
X191120213Y-114499890D01*
X190969890Y-114650213D01*
X190844951Y-114822179D01*
X190748444Y-115011585D01*
X190682753Y-115213760D01*
X190649500Y-115423713D01*
X190649500Y-115636286D01*
X190682753Y-115846239D01*
X190748444Y-116048414D01*
X190844951Y-116237820D01*
X190969890Y-116409786D01*
X191120213Y-116560109D01*
X191292179Y-116685048D01*
X191292181Y-116685049D01*
X191292184Y-116685051D01*
X191481588Y-116781557D01*
X191683757Y-116847246D01*
X191893713Y-116880500D01*
X191893714Y-116880500D01*
X192106286Y-116880500D01*
X192106287Y-116880500D01*
X192316243Y-116847246D01*
X192518412Y-116781557D01*
X192707816Y-116685051D01*
X192732919Y-116666813D01*
X192879786Y-116560109D01*
X192879788Y-116560106D01*
X192879792Y-116560104D01*
X193030104Y-116409792D01*
X193030106Y-116409788D01*
X193030109Y-116409786D01*
X193155048Y-116237820D01*
X193155047Y-116237820D01*
X193155051Y-116237816D01*
X193251557Y-116048412D01*
X193317246Y-115846243D01*
X193350500Y-115636287D01*
X193350500Y-115423713D01*
X193317246Y-115213757D01*
X193251557Y-115011588D01*
X193155051Y-114822184D01*
X193155049Y-114822181D01*
X193155048Y-114822179D01*
X193030109Y-114650213D01*
X192879786Y-114499890D01*
X192707820Y-114374951D01*
X192707115Y-114374591D01*
X192699054Y-114370485D01*
X192648259Y-114322512D01*
X192631463Y-114254692D01*
X192653999Y-114188556D01*
X192699054Y-114149515D01*
X192707816Y-114145051D01*
X192729789Y-114129086D01*
X192879786Y-114020109D01*
X192879788Y-114020106D01*
X192879792Y-114020104D01*
X193030104Y-113869792D01*
X193030106Y-113869788D01*
X193030109Y-113869786D01*
X193155048Y-113697820D01*
X193155047Y-113697820D01*
X193155051Y-113697816D01*
X193251557Y-113508412D01*
X193317246Y-113306243D01*
X193350500Y-113096287D01*
X193350500Y-112883713D01*
X193317246Y-112673757D01*
X193251557Y-112471588D01*
X193155051Y-112282184D01*
X193155049Y-112282181D01*
X193155048Y-112282179D01*
X193030109Y-112110213D01*
X192879786Y-111959890D01*
X192707820Y-111834951D01*
X192707115Y-111834591D01*
X192699054Y-111830485D01*
X192648259Y-111782512D01*
X192631463Y-111714692D01*
X192653999Y-111648556D01*
X192699054Y-111609515D01*
X192707816Y-111605051D01*
X192729789Y-111589086D01*
X192879786Y-111480109D01*
X192879788Y-111480106D01*
X192879792Y-111480104D01*
X193030104Y-111329792D01*
X193030106Y-111329788D01*
X193030109Y-111329786D01*
X193155048Y-111157820D01*
X193155047Y-111157820D01*
X193155051Y-111157816D01*
X193251557Y-110968412D01*
X193317246Y-110766243D01*
X193350500Y-110556287D01*
X193350500Y-110343713D01*
X193317246Y-110133757D01*
X193251557Y-109931588D01*
X193155051Y-109742184D01*
X193155049Y-109742181D01*
X193155048Y-109742179D01*
X193030109Y-109570213D01*
X192879786Y-109419890D01*
X192707820Y-109294951D01*
X192707115Y-109294591D01*
X192699054Y-109290485D01*
X192648259Y-109242512D01*
X192631463Y-109174692D01*
X192653999Y-109108556D01*
X192699054Y-109069515D01*
X192707816Y-109065051D01*
X192729789Y-109049086D01*
X192879786Y-108940109D01*
X192879788Y-108940106D01*
X192879792Y-108940104D01*
X193030104Y-108789792D01*
X193030106Y-108789788D01*
X193030109Y-108789786D01*
X193155048Y-108617820D01*
X193155047Y-108617820D01*
X193155051Y-108617816D01*
X193251557Y-108428412D01*
X193317246Y-108226243D01*
X193350500Y-108016287D01*
X193350500Y-107803713D01*
X193317246Y-107593757D01*
X193251557Y-107391588D01*
X193155051Y-107202184D01*
X193155049Y-107202181D01*
X193155048Y-107202179D01*
X193030109Y-107030213D01*
X192879786Y-106879890D01*
X192707820Y-106754951D01*
X192707115Y-106754591D01*
X192699054Y-106750485D01*
X192648259Y-106702512D01*
X192631463Y-106634692D01*
X192653999Y-106568556D01*
X192699054Y-106529515D01*
X192707816Y-106525051D01*
X192736248Y-106504394D01*
X192879786Y-106400109D01*
X192879788Y-106400106D01*
X192879792Y-106400104D01*
X193030104Y-106249792D01*
X193030106Y-106249788D01*
X193030109Y-106249786D01*
X193155048Y-106077820D01*
X193155047Y-106077820D01*
X193155051Y-106077816D01*
X193251557Y-105888412D01*
X193317246Y-105686243D01*
X193350500Y-105476287D01*
X193350500Y-105263713D01*
X193317246Y-105053757D01*
X193251557Y-104851588D01*
X193155051Y-104662184D01*
X193155049Y-104662181D01*
X193155048Y-104662179D01*
X193030109Y-104490213D01*
X192879786Y-104339890D01*
X192707820Y-104214951D01*
X192707115Y-104214591D01*
X192699054Y-104210485D01*
X192648259Y-104162512D01*
X192631463Y-104094692D01*
X192653999Y-104028556D01*
X192699054Y-103989515D01*
X192707816Y-103985051D01*
X192729789Y-103969086D01*
X192879786Y-103860109D01*
X192879788Y-103860106D01*
X192879792Y-103860104D01*
X193030104Y-103709792D01*
X193030106Y-103709788D01*
X193030109Y-103709786D01*
X193155048Y-103537820D01*
X193155047Y-103537820D01*
X193155051Y-103537816D01*
X193251557Y-103348412D01*
X193317246Y-103146243D01*
X193350500Y-102936287D01*
X193350500Y-102723713D01*
X193317246Y-102513757D01*
X193251557Y-102311588D01*
X193155051Y-102122184D01*
X193155049Y-102122181D01*
X193155048Y-102122179D01*
X193030109Y-101950213D01*
X192879786Y-101799890D01*
X192707820Y-101674951D01*
X192699600Y-101670763D01*
X192699054Y-101670485D01*
X192648259Y-101622512D01*
X192631463Y-101554692D01*
X192653999Y-101488556D01*
X192699054Y-101449515D01*
X192707816Y-101445051D01*
X192797352Y-101380000D01*
X192879786Y-101320109D01*
X192879788Y-101320106D01*
X192879792Y-101320104D01*
X193030104Y-101169792D01*
X193030106Y-101169788D01*
X193030109Y-101169786D01*
X193155048Y-100997820D01*
X193155047Y-100997820D01*
X193155051Y-100997816D01*
X193251557Y-100808412D01*
X193317246Y-100606243D01*
X193350500Y-100396287D01*
X193350500Y-100183713D01*
X193317246Y-99973757D01*
X193251557Y-99771588D01*
X193155051Y-99582184D01*
X193155049Y-99582181D01*
X193155048Y-99582179D01*
X193030109Y-99410213D01*
X192879786Y-99259890D01*
X192707820Y-99134951D01*
X192707115Y-99134591D01*
X192699054Y-99130485D01*
X192648259Y-99082512D01*
X192631463Y-99014692D01*
X192653999Y-98948556D01*
X192699054Y-98909515D01*
X192707816Y-98905051D01*
X192800066Y-98838028D01*
X192879786Y-98780109D01*
X192879788Y-98780106D01*
X192879792Y-98780104D01*
X193030104Y-98629792D01*
X193030106Y-98629788D01*
X193030109Y-98629786D01*
X193155048Y-98457820D01*
X193155047Y-98457820D01*
X193155051Y-98457816D01*
X193251557Y-98268412D01*
X193317246Y-98066243D01*
X193350500Y-97856287D01*
X193350500Y-97643713D01*
X193317246Y-97433757D01*
X193251557Y-97231588D01*
X193155051Y-97042184D01*
X193155049Y-97042181D01*
X193155048Y-97042179D01*
X193030109Y-96870213D01*
X192879786Y-96719890D01*
X192707820Y-96594951D01*
X192707115Y-96594591D01*
X192699054Y-96590485D01*
X192648259Y-96542512D01*
X192631463Y-96474692D01*
X192653999Y-96408556D01*
X192699054Y-96369515D01*
X192707816Y-96365051D01*
X192789202Y-96305921D01*
X192879786Y-96240109D01*
X192879788Y-96240106D01*
X192879792Y-96240104D01*
X193030104Y-96089792D01*
X193030106Y-96089788D01*
X193030109Y-96089786D01*
X193155048Y-95917820D01*
X193155047Y-95917820D01*
X193155051Y-95917816D01*
X193251557Y-95728412D01*
X193317246Y-95526243D01*
X193350500Y-95316287D01*
X193350500Y-95103713D01*
X193317246Y-94893757D01*
X193251557Y-94691588D01*
X193155051Y-94502184D01*
X193155049Y-94502181D01*
X193155048Y-94502179D01*
X193030109Y-94330213D01*
X192879786Y-94179890D01*
X192707820Y-94054951D01*
X192707115Y-94054591D01*
X192699054Y-94050485D01*
X192648259Y-94002512D01*
X192631463Y-93934692D01*
X192653999Y-93868556D01*
X192699054Y-93829515D01*
X192707816Y-93825051D01*
X192729789Y-93809086D01*
X192879786Y-93700109D01*
X192879788Y-93700106D01*
X192879792Y-93700104D01*
X193030104Y-93549792D01*
X193030106Y-93549788D01*
X193030109Y-93549786D01*
X193155048Y-93377820D01*
X193155047Y-93377820D01*
X193155051Y-93377816D01*
X193251557Y-93188412D01*
X193317246Y-92986243D01*
X193350500Y-92776287D01*
X193350500Y-92563713D01*
X193317246Y-92353757D01*
X193251557Y-92151588D01*
X193155051Y-91962184D01*
X193155049Y-91962181D01*
X193155048Y-91962179D01*
X193030109Y-91790213D01*
X192879786Y-91639890D01*
X192707820Y-91514951D01*
X192707115Y-91514591D01*
X192699054Y-91510485D01*
X192648259Y-91462512D01*
X192631463Y-91394692D01*
X192653999Y-91328556D01*
X192699054Y-91289515D01*
X192707816Y-91285051D01*
X192730628Y-91268477D01*
X192879786Y-91160109D01*
X192879788Y-91160106D01*
X192879792Y-91160104D01*
X193030104Y-91009792D01*
X193030106Y-91009788D01*
X193030109Y-91009786D01*
X193155048Y-90837820D01*
X193155047Y-90837820D01*
X193155051Y-90837816D01*
X193251557Y-90648412D01*
X193317246Y-90446243D01*
X193350500Y-90236287D01*
X193350500Y-90023713D01*
X193317246Y-89813757D01*
X193251557Y-89611588D01*
X193155051Y-89422184D01*
X193155049Y-89422181D01*
X193155048Y-89422179D01*
X193030109Y-89250213D01*
X192879786Y-89099890D01*
X192707820Y-88974951D01*
X192707115Y-88974591D01*
X192699054Y-88970485D01*
X192648259Y-88922512D01*
X192631463Y-88854692D01*
X192653999Y-88788556D01*
X192699054Y-88749515D01*
X192707816Y-88745051D01*
X192800066Y-88678028D01*
X192879786Y-88620109D01*
X192879788Y-88620106D01*
X192879792Y-88620104D01*
X193030104Y-88469792D01*
X193030106Y-88469788D01*
X193030109Y-88469786D01*
X193155048Y-88297820D01*
X193155047Y-88297820D01*
X193155051Y-88297816D01*
X193251557Y-88108412D01*
X193317246Y-87906243D01*
X193350500Y-87696287D01*
X193350500Y-87483713D01*
X193317246Y-87273757D01*
X193251557Y-87071588D01*
X193155051Y-86882184D01*
X193155049Y-86882181D01*
X193155048Y-86882179D01*
X193030109Y-86710213D01*
X192879786Y-86559890D01*
X192707817Y-86434949D01*
X192698504Y-86430204D01*
X192647707Y-86382230D01*
X192630912Y-86314409D01*
X192653449Y-86248274D01*
X192698507Y-86209232D01*
X192707555Y-86204622D01*
X192761716Y-86165270D01*
X192761717Y-86165270D01*
X192129408Y-85532962D01*
X192192993Y-85515925D01*
X192307007Y-85450099D01*
X192400099Y-85357007D01*
X192465925Y-85242993D01*
X192482962Y-85179408D01*
X193115270Y-85811717D01*
X193115270Y-85811716D01*
X193154622Y-85757554D01*
X193251095Y-85568217D01*
X193316757Y-85366130D01*
X193316757Y-85366127D01*
X193350000Y-85156246D01*
X193350000Y-84943753D01*
X193316757Y-84733872D01*
X193316757Y-84733869D01*
X193251095Y-84531782D01*
X193154624Y-84342449D01*
X193115270Y-84288282D01*
X193115269Y-84288282D01*
X192482962Y-84920590D01*
X192465925Y-84857007D01*
X192400099Y-84742993D01*
X192307007Y-84649901D01*
X192192993Y-84584075D01*
X192129409Y-84567037D01*
X192761716Y-83934728D01*
X192707547Y-83895373D01*
X192707547Y-83895372D01*
X192698500Y-83890763D01*
X192647706Y-83842788D01*
X192630912Y-83774966D01*
X192653451Y-83708832D01*
X192698508Y-83669793D01*
X192707816Y-83665051D01*
X192797352Y-83600000D01*
X192879786Y-83540109D01*
X192879788Y-83540106D01*
X192879792Y-83540104D01*
X193030104Y-83389792D01*
X193030106Y-83389788D01*
X193030109Y-83389786D01*
X193155048Y-83217820D01*
X193155047Y-83217820D01*
X193155051Y-83217816D01*
X193251557Y-83028412D01*
X193317246Y-82826243D01*
X193350500Y-82616287D01*
X193350500Y-82403713D01*
X193317246Y-82193757D01*
X193251557Y-81991588D01*
X193155051Y-81802184D01*
X193155049Y-81802181D01*
X193155048Y-81802179D01*
X193030109Y-81630213D01*
X192879786Y-81479890D01*
X192707820Y-81354951D01*
X192707115Y-81354591D01*
X192699054Y-81350485D01*
X192648259Y-81302512D01*
X192631463Y-81234692D01*
X192653999Y-81168556D01*
X192699054Y-81129515D01*
X192707816Y-81125051D01*
X192729789Y-81109086D01*
X192879786Y-81000109D01*
X192879788Y-81000106D01*
X192879792Y-81000104D01*
X193030104Y-80849792D01*
X193030106Y-80849788D01*
X193030109Y-80849786D01*
X193155048Y-80677820D01*
X193155047Y-80677820D01*
X193155051Y-80677816D01*
X193251557Y-80488412D01*
X193317246Y-80286243D01*
X193350500Y-80076287D01*
X193350500Y-79863713D01*
X193317246Y-79653757D01*
X193251557Y-79451588D01*
X193155051Y-79262184D01*
X193155049Y-79262181D01*
X193155048Y-79262179D01*
X193030109Y-79090213D01*
X192879786Y-78939890D01*
X192707820Y-78814951D01*
X192707115Y-78814591D01*
X192699054Y-78810485D01*
X192648259Y-78762512D01*
X192631463Y-78694692D01*
X192653999Y-78628556D01*
X192699054Y-78589515D01*
X192707816Y-78585051D01*
X192729789Y-78569086D01*
X192879786Y-78460109D01*
X192879788Y-78460106D01*
X192879792Y-78460104D01*
X193030104Y-78309792D01*
X193030106Y-78309788D01*
X193030109Y-78309786D01*
X193155048Y-78137820D01*
X193155047Y-78137820D01*
X193155051Y-78137816D01*
X193251557Y-77948412D01*
X193317246Y-77746243D01*
X193350500Y-77536287D01*
X193350500Y-77323713D01*
X193317246Y-77113757D01*
X193251557Y-76911588D01*
X193155051Y-76722184D01*
X193155049Y-76722181D01*
X193155048Y-76722179D01*
X193030109Y-76550213D01*
X192879786Y-76399890D01*
X192707820Y-76274951D01*
X192707115Y-76274591D01*
X192699054Y-76270485D01*
X192648259Y-76222512D01*
X192631463Y-76154692D01*
X192653999Y-76088556D01*
X192699054Y-76049515D01*
X192707816Y-76045051D01*
X192729789Y-76029086D01*
X192879786Y-75920109D01*
X192879788Y-75920106D01*
X192879792Y-75920104D01*
X193030104Y-75769792D01*
X193030106Y-75769788D01*
X193030109Y-75769786D01*
X193155048Y-75597820D01*
X193155047Y-75597820D01*
X193155051Y-75597816D01*
X193251557Y-75408412D01*
X193317246Y-75206243D01*
X193350500Y-74996287D01*
X193350500Y-74783713D01*
X193317246Y-74573757D01*
X193251557Y-74371588D01*
X193155051Y-74182184D01*
X193155049Y-74182181D01*
X193155048Y-74182179D01*
X193030109Y-74010213D01*
X192879786Y-73859890D01*
X192707820Y-73734951D01*
X192707115Y-73734591D01*
X192699054Y-73730485D01*
X192648259Y-73682512D01*
X192631463Y-73614692D01*
X192653999Y-73548556D01*
X192699054Y-73509515D01*
X192707816Y-73505051D01*
X192729789Y-73489086D01*
X192879786Y-73380109D01*
X192879788Y-73380106D01*
X192879792Y-73380104D01*
X193030104Y-73229792D01*
X193030106Y-73229788D01*
X193030109Y-73229786D01*
X193155048Y-73057820D01*
X193155047Y-73057820D01*
X193155051Y-73057816D01*
X193251557Y-72868412D01*
X193317246Y-72666243D01*
X193350500Y-72456287D01*
X193350500Y-72243713D01*
X193317246Y-72033757D01*
X193251557Y-71831588D01*
X193155051Y-71642184D01*
X193155049Y-71642181D01*
X193155048Y-71642179D01*
X193030109Y-71470213D01*
X192916181Y-71356285D01*
X192882696Y-71294962D01*
X192887680Y-71225270D01*
X192929552Y-71169337D01*
X192960529Y-71152422D01*
X193092086Y-71103354D01*
X193092093Y-71103350D01*
X193207187Y-71017190D01*
X193207190Y-71017187D01*
X193293350Y-70902093D01*
X193293354Y-70902086D01*
X193343596Y-70767379D01*
X193343598Y-70767372D01*
X193349999Y-70707844D01*
X193350000Y-70707827D01*
X193350000Y-70060000D01*
X192433012Y-70060000D01*
X192465925Y-70002993D01*
X192500000Y-69875826D01*
X192500000Y-69744174D01*
X192465925Y-69617007D01*
X192433012Y-69560000D01*
X193350000Y-69560000D01*
X193350000Y-68912172D01*
X193349999Y-68912155D01*
X193343598Y-68852627D01*
X193343596Y-68852620D01*
X193293354Y-68717913D01*
X193293350Y-68717906D01*
X193207190Y-68602812D01*
X193207187Y-68602809D01*
X193092093Y-68516649D01*
X193092086Y-68516645D01*
X192957379Y-68466403D01*
X192957372Y-68466401D01*
X192897844Y-68460000D01*
X192250000Y-68460000D01*
X192250000Y-69376988D01*
X192192993Y-69344075D01*
X192065826Y-69310000D01*
X191934174Y-69310000D01*
X191807007Y-69344075D01*
X191750000Y-69376988D01*
X191750000Y-68460000D01*
X191102155Y-68460000D01*
X191042627Y-68466401D01*
X191042620Y-68466403D01*
X190907913Y-68516645D01*
X190907906Y-68516649D01*
X190792812Y-68602809D01*
X190792809Y-68602812D01*
X190706649Y-68717906D01*
X190706645Y-68717913D01*
X190656403Y-68852620D01*
X190656401Y-68852627D01*
X190650000Y-68912155D01*
X190650000Y-69560000D01*
X191566988Y-69560000D01*
X191534075Y-69617007D01*
X191500000Y-69744174D01*
X191500000Y-69875826D01*
X191534075Y-70002993D01*
X191566988Y-70060000D01*
X190650000Y-70060000D01*
X190650000Y-70707844D01*
X190656401Y-70767372D01*
X190656403Y-70767379D01*
X190706645Y-70902086D01*
X190706649Y-70902093D01*
X190792809Y-71017187D01*
X190792812Y-71017190D01*
X190907906Y-71103350D01*
X190907913Y-71103354D01*
X191039470Y-71152422D01*
X191095404Y-71194293D01*
X191119821Y-71259758D01*
X191104969Y-71328031D01*
X191083819Y-71356285D01*
X190969889Y-71470215D01*
X190844951Y-71642179D01*
X190748444Y-71831585D01*
X190682753Y-72033760D01*
X190649500Y-72243713D01*
X167950500Y-72243713D01*
X167917246Y-72033757D01*
X167851557Y-71831588D01*
X167755051Y-71642184D01*
X167755049Y-71642181D01*
X167755048Y-71642179D01*
X167630109Y-71470213D01*
X167516569Y-71356673D01*
X167483084Y-71295350D01*
X167488068Y-71225658D01*
X167529940Y-71169725D01*
X167560915Y-71152810D01*
X167692331Y-71103796D01*
X167807546Y-71017546D01*
X167893796Y-70902331D01*
X167944091Y-70767483D01*
X167950500Y-70707873D01*
X167950499Y-68912128D01*
X167944091Y-68852517D01*
X167901551Y-68738462D01*
X167893797Y-68717671D01*
X167893793Y-68717664D01*
X167807547Y-68602455D01*
X167807544Y-68602452D01*
X167692335Y-68516206D01*
X167692328Y-68516202D01*
X167557482Y-68465908D01*
X167557483Y-68465908D01*
X167497883Y-68459501D01*
X167497881Y-68459500D01*
X167497873Y-68459500D01*
X167497864Y-68459500D01*
X165702129Y-68459500D01*
X165702123Y-68459501D01*
X165642516Y-68465908D01*
X165507671Y-68516202D01*
X165507664Y-68516206D01*
X165392455Y-68602452D01*
X165392452Y-68602455D01*
X165306206Y-68717664D01*
X165306202Y-68717671D01*
X165255908Y-68852517D01*
X165249501Y-68912116D01*
X165249501Y-68912123D01*
X165249500Y-68912135D01*
X115128708Y-68912135D01*
X115040217Y-68738462D01*
X114905786Y-68553434D01*
X114744066Y-68391714D01*
X114659559Y-68330316D01*
X114616896Y-68274988D01*
X114610917Y-68205375D01*
X114643523Y-68143580D01*
X114659556Y-68129685D01*
X114744066Y-68068286D01*
X114905786Y-67906566D01*
X115040217Y-67721538D01*
X115144048Y-67517758D01*
X115214722Y-67300245D01*
X115250500Y-67074354D01*
X115250500Y-66845646D01*
X115214722Y-66619755D01*
X115214721Y-66619751D01*
X115214721Y-66619750D01*
X115144049Y-66402244D01*
X115040216Y-66198461D01*
X114907472Y-66015755D01*
X114883994Y-65949953D01*
X114899819Y-65881899D01*
X114949925Y-65833204D01*
X114964455Y-65826692D01*
X114992331Y-65816296D01*
X115107546Y-65730046D01*
X115193796Y-65614831D01*
X115244091Y-65479983D01*
X115250500Y-65420373D01*
X115250499Y-63419628D01*
X115244091Y-63360017D01*
X115193796Y-63225169D01*
X115193795Y-63225168D01*
X115193793Y-63225164D01*
X115107547Y-63109955D01*
X115107544Y-63109952D01*
X114992335Y-63023706D01*
X114992328Y-63023702D01*
X114857482Y-62973408D01*
X114857483Y-62973408D01*
X114797883Y-62967001D01*
X114797881Y-62967000D01*
X114797873Y-62967000D01*
X114797864Y-62967000D01*
X112702129Y-62967000D01*
X112702123Y-62967001D01*
X112642516Y-62973408D01*
X112507671Y-63023702D01*
X112507664Y-63023706D01*
X112392455Y-63109952D01*
X112392452Y-63109955D01*
X112306206Y-63225164D01*
X112306202Y-63225171D01*
X112255908Y-63360017D01*
X112249501Y-63419616D01*
X112249501Y-63419623D01*
X112249500Y-63419635D01*
X73605102Y-63419635D01*
X73617982Y-63371565D01*
X73650500Y-63124565D01*
X73650500Y-62875435D01*
X73617982Y-62628435D01*
X73553502Y-62387793D01*
X73458164Y-62157627D01*
X73333599Y-61941873D01*
X73181938Y-61744224D01*
X73181933Y-61744218D01*
X73005781Y-61568066D01*
X73005774Y-61568060D01*
X72808126Y-61416400D01*
X72592376Y-61291837D01*
X72592361Y-61291830D01*
X72362207Y-61196498D01*
X72121561Y-61132017D01*
X71874575Y-61099501D01*
X71874570Y-61099500D01*
X71874565Y-61099500D01*
X71625435Y-61099500D01*
X71625429Y-61099500D01*
X71625424Y-61099501D01*
X71378438Y-61132017D01*
X71137792Y-61196498D01*
X70907638Y-61291830D01*
X70907623Y-61291837D01*
X70691873Y-61416400D01*
X70494225Y-61568060D01*
X70494218Y-61568066D01*
X70318066Y-61744218D01*
X70318060Y-61744225D01*
X70166400Y-61941873D01*
X70041837Y-62157623D01*
X70041830Y-62157638D01*
X69946498Y-62387792D01*
X69882017Y-62628438D01*
X69849501Y-62875424D01*
X69849500Y-62875441D01*
X63500000Y-62875441D01*
X63500000Y-56799984D01*
X69849500Y-56799984D01*
X69849500Y-59200015D01*
X69860000Y-59302795D01*
X69860001Y-59302796D01*
X69915186Y-59469335D01*
X69915187Y-59469337D01*
X70007286Y-59618651D01*
X70007289Y-59618655D01*
X70131344Y-59742710D01*
X70131348Y-59742713D01*
X70280662Y-59834812D01*
X70280664Y-59834813D01*
X70280666Y-59834814D01*
X70447203Y-59889999D01*
X70549992Y-59900500D01*
X70549997Y-59900500D01*
X72950003Y-59900500D01*
X72950008Y-59900500D01*
X73052797Y-59889999D01*
X73219334Y-59834814D01*
X73368655Y-59742711D01*
X73492711Y-59618655D01*
X73584814Y-59469334D01*
X73639999Y-59302797D01*
X73650500Y-59200008D01*
X73650500Y-56799992D01*
X73639999Y-56697203D01*
X73584814Y-56530666D01*
X73584470Y-56530109D01*
X73492713Y-56381348D01*
X73492710Y-56381344D01*
X73368655Y-56257289D01*
X73368651Y-56257286D01*
X73219337Y-56165187D01*
X73219335Y-56165186D01*
X73115902Y-56130912D01*
X73052797Y-56110001D01*
X73052795Y-56110000D01*
X72950015Y-56099500D01*
X72950008Y-56099500D01*
X70549992Y-56099500D01*
X70549984Y-56099500D01*
X70447204Y-56110000D01*
X70447203Y-56110001D01*
X70280664Y-56165186D01*
X70280662Y-56165187D01*
X70131348Y-56257286D01*
X70131344Y-56257289D01*
X70007289Y-56381344D01*
X70007286Y-56381348D01*
X69915187Y-56530662D01*
X69915186Y-56530664D01*
X69860001Y-56697203D01*
X69860000Y-56697204D01*
X69849500Y-56799984D01*
X63500000Y-56799984D01*
X63500000Y-54979983D01*
X81899500Y-54979983D01*
X81899500Y-57780001D01*
X81899501Y-57780018D01*
X81910000Y-57882796D01*
X81910001Y-57882799D01*
X81965185Y-58049331D01*
X81965186Y-58049334D01*
X82057288Y-58198656D01*
X82181344Y-58322712D01*
X82330666Y-58414814D01*
X82497203Y-58469999D01*
X82599991Y-58480500D01*
X85400008Y-58480499D01*
X85502797Y-58469999D01*
X85669334Y-58414814D01*
X85818656Y-58322712D01*
X85942712Y-58198656D01*
X86034814Y-58049334D01*
X86089999Y-57882797D01*
X86100500Y-57780009D01*
X86100499Y-54979992D01*
X86089999Y-54877203D01*
X86034814Y-54710666D01*
X85967872Y-54602135D01*
X175859500Y-54602135D01*
X175859500Y-56397870D01*
X175859501Y-56397876D01*
X175865908Y-56457483D01*
X175916202Y-56592328D01*
X175916206Y-56592335D01*
X176002452Y-56707544D01*
X176002455Y-56707547D01*
X176117664Y-56793793D01*
X176117671Y-56793797D01*
X176252517Y-56844091D01*
X176252516Y-56844091D01*
X176259444Y-56844835D01*
X176312127Y-56850500D01*
X178107872Y-56850499D01*
X178167483Y-56844091D01*
X178302331Y-56793796D01*
X178417546Y-56707546D01*
X178503796Y-56592331D01*
X178554091Y-56457483D01*
X178560500Y-56397873D01*
X178560499Y-56373979D01*
X178563330Y-56360963D01*
X178573940Y-56341525D01*
X178580179Y-56320275D01*
X178596803Y-56299643D01*
X178596808Y-56299636D01*
X178596811Y-56299634D01*
X178596818Y-56299626D01*
X179267037Y-55629408D01*
X179284075Y-55692993D01*
X179349901Y-55807007D01*
X179442993Y-55900099D01*
X179557007Y-55965925D01*
X179620590Y-55982962D01*
X178988282Y-56615269D01*
X178988282Y-56615270D01*
X179042449Y-56654624D01*
X179231782Y-56751095D01*
X179433870Y-56816757D01*
X179643754Y-56850000D01*
X179856246Y-56850000D01*
X180066127Y-56816757D01*
X180066130Y-56816757D01*
X180268217Y-56751095D01*
X180457554Y-56654622D01*
X180511716Y-56615270D01*
X180511717Y-56615270D01*
X179879408Y-55982962D01*
X179942993Y-55965925D01*
X180057007Y-55900099D01*
X180150099Y-55807007D01*
X180215925Y-55692993D01*
X180232962Y-55629408D01*
X180865270Y-56261717D01*
X180865270Y-56261716D01*
X180904622Y-56207555D01*
X180909232Y-56198507D01*
X180957205Y-56147709D01*
X181025025Y-56130912D01*
X181091161Y-56153447D01*
X181130204Y-56198504D01*
X181134949Y-56207817D01*
X181259890Y-56379786D01*
X181410213Y-56530109D01*
X181582179Y-56655048D01*
X181582181Y-56655049D01*
X181582184Y-56655051D01*
X181771588Y-56751557D01*
X181973757Y-56817246D01*
X182183713Y-56850500D01*
X182183714Y-56850500D01*
X182396286Y-56850500D01*
X182396287Y-56850500D01*
X182606243Y-56817246D01*
X182808412Y-56751557D01*
X182997816Y-56655051D01*
X183084138Y-56592335D01*
X183169786Y-56530109D01*
X183169788Y-56530106D01*
X183169792Y-56530104D01*
X183320104Y-56379792D01*
X183320106Y-56379788D01*
X183320109Y-56379786D01*
X183445048Y-56207820D01*
X183445050Y-56207817D01*
X183445051Y-56207816D01*
X183541557Y-56018412D01*
X183607246Y-55816243D01*
X183640500Y-55606287D01*
X183640500Y-55393713D01*
X183607246Y-55183757D01*
X183541557Y-54981588D01*
X183445051Y-54792184D01*
X183445049Y-54792181D01*
X183445048Y-54792179D01*
X183320109Y-54620213D01*
X183169786Y-54469890D01*
X182997820Y-54344951D01*
X182808414Y-54248444D01*
X182808413Y-54248443D01*
X182808412Y-54248443D01*
X182606243Y-54182754D01*
X182606241Y-54182753D01*
X182606240Y-54182753D01*
X182444957Y-54157208D01*
X182396287Y-54149500D01*
X182183713Y-54149500D01*
X182135042Y-54157208D01*
X181973760Y-54182753D01*
X181771585Y-54248444D01*
X181582179Y-54344951D01*
X181410213Y-54469890D01*
X181259890Y-54620213D01*
X181134949Y-54792182D01*
X181130202Y-54801499D01*
X181082227Y-54852293D01*
X181014405Y-54869087D01*
X180948271Y-54846548D01*
X180909234Y-54801495D01*
X180904626Y-54792452D01*
X180865270Y-54738282D01*
X180865269Y-54738282D01*
X180232962Y-55370590D01*
X180215925Y-55307007D01*
X180150099Y-55192993D01*
X180057007Y-55099901D01*
X179942993Y-55034075D01*
X179879409Y-55017037D01*
X180511716Y-54384728D01*
X180457550Y-54345375D01*
X180268217Y-54248904D01*
X180066129Y-54183242D01*
X179856246Y-54150000D01*
X179643754Y-54150000D01*
X179433872Y-54183242D01*
X179433869Y-54183242D01*
X179231782Y-54248904D01*
X179042439Y-54345380D01*
X178988282Y-54384727D01*
X178988282Y-54384728D01*
X179620591Y-55017037D01*
X179557007Y-55034075D01*
X179442993Y-55099901D01*
X179349901Y-55192993D01*
X179284075Y-55307007D01*
X179267037Y-55370591D01*
X178596818Y-54700372D01*
X178563333Y-54639049D01*
X178563330Y-54639036D01*
X178560499Y-54626015D01*
X178560499Y-54602128D01*
X178554091Y-54542517D01*
X178514844Y-54437289D01*
X178503798Y-54407673D01*
X178503793Y-54407664D01*
X178417547Y-54292455D01*
X178417544Y-54292452D01*
X178302335Y-54206206D01*
X178302328Y-54206202D01*
X178167482Y-54155908D01*
X178167483Y-54155908D01*
X178107883Y-54149501D01*
X178107881Y-54149500D01*
X178107873Y-54149500D01*
X178107864Y-54149500D01*
X176312129Y-54149500D01*
X176312123Y-54149501D01*
X176252516Y-54155908D01*
X176117671Y-54206202D01*
X176117664Y-54206206D01*
X176002455Y-54292452D01*
X176002452Y-54292455D01*
X175916206Y-54407664D01*
X175916202Y-54407671D01*
X175865908Y-54542517D01*
X175859501Y-54602116D01*
X175859500Y-54602135D01*
X85967872Y-54602135D01*
X85942712Y-54561344D01*
X85818656Y-54437288D01*
X85669649Y-54345380D01*
X85669336Y-54345187D01*
X85669331Y-54345185D01*
X85667862Y-54344698D01*
X85502797Y-54290001D01*
X85502795Y-54290000D01*
X85400010Y-54279500D01*
X82599998Y-54279500D01*
X82599981Y-54279501D01*
X82497203Y-54290000D01*
X82497200Y-54290001D01*
X82330668Y-54345185D01*
X82330663Y-54345187D01*
X82181342Y-54437289D01*
X82057289Y-54561342D01*
X81965187Y-54710663D01*
X81965185Y-54710668D01*
X81956035Y-54738282D01*
X81910001Y-54877203D01*
X81910001Y-54877204D01*
X81910000Y-54877204D01*
X81899500Y-54979983D01*
X63500000Y-54979983D01*
X63500000Y-53623770D01*
X63519685Y-53556731D01*
X63572489Y-53510976D01*
X63623768Y-53499770D01*
X198123580Y-53250234D01*
X198190655Y-53269794D01*
G37*
%TD.AperFunction*%
%TD*%
M02*
